<?xml version="1.0" encoding="UTF-8" standalone="no"?>
<!DOCTYPE svg PUBLIC "-//W3C//DTD SVG 1.0//EN" "http://www.w3.org/TR/2001/REC-SVG-20010904/DTD/svg10.dtd">
<svg xmlns="http://www.w3.org/2000/svg" version="1.0" viewBox="0.00 0.00 1024.00 1024.00">
<g stroke-width="2.00" fill="none" stroke-linecap="butt">
<path stroke="#011002" vector-effect="non-scaling-stroke" d="
  M 832.16 565.49
  Q 832.62 557.04 833.88 552.81
  Q 838.32 537.95 839.17 522.46"
/>
<path stroke="#0e3207" vector-effect="non-scaling-stroke" d="
  M 839.17 522.46
  Q 840.47 509.86 841.76 497.25
  Q 843.71 478.14 840.83 450.51
  Q 839.56 438.38 838.23 430.74
  C 837.74 427.92 837.07 426.11 836.76 424.03
  Q 836.38 421.51 835.75 419.00
  Q 833.71 410.91 832.75 406.66
  Q 831.27 400.14 829.26 394.49
  Q 825.52 384.00 822.08 374.89
  Q 817.47 362.70 810.01 349.77
  Q 802.24 336.32 793.49 324.03
  Q 791.28 320.93 790.50 319.98
  Q 788.63 317.71 787.42 315.30
  A 1.87 1.85 4.2 0 0 786.78 314.57
  Q 785.56 313.73 783.51 310.67
  Q 782.48 309.15 778.72 305.82
  A 1.46 1.11 86.3 0 1 778.52 305.59
  L 775.27 300.78
  A 1.51 1.36 -87.1 0 0 775.09 300.56
  Q 771.40 296.96 768.42 293.84
  Q 766.35 291.67 761.70 287.59
  Q 755.18 281.86 750.11 277.20
  Q 747.94 275.20 745.65 273.52
  A 2.94 2.70 -10.6 0 0 745.20 273.24
  Q 743.09 272.23 741.99 270.78
  A 2.86 2.82 -0.4 0 0 741.32 270.13
  Q 734.98 265.70 729.93 262.01
  C 726.42 259.44 723.15 257.86 719.85 255.63
  Q 716.17 253.14 712.13 250.98
  Q 701.54 245.33 697.11 242.96
  A 1.57 0.00 19.6 0 1 695.70 242.46
  Q 694.67 242.10 693.36 241.47
  Q 672.87 231.55 646.26 224.63
  Q 646.23 224.62 645.90 224.72
  A 1.01 0.95 43.2 0 1 645.35 224.72
  Q 624.89 218.73 603.28 217.17
  Q 602.06 217.08 600.81 216.97
  Q 577.13 214.81 553.44 216.39
  A 5.74 5.32 33.2 0 0 552.50 216.55
  Q 548.05 217.71 543.63 217.33
  A 1.60 1.55 -56.3 0 0 542.74 217.52
  Q 542.04 217.90 540.25 217.89
  Q 532.21 217.82 522.13 219.62
  A 3.14 3.09 27.0 0 0 521.40 219.85
  C 519.60 220.67 518.01 220.62 515.82 221.01
  Q 509.78 222.07 503.95 223.65
  Q 500.47 224.59 494.17 225.83
  Q 491.55 226.35 487.41 227.53
  Q 461.98 234.78 438.12 246.11"
/>
<path stroke="#173f0b" vector-effect="non-scaling-stroke" d="
  M 438.12 246.11
  Q 388.48 269.90 350.39 309.64
  Q 347.62 312.52 344.81 315.39
  C 339.96 320.32 337.11 324.29 331.94 330.41
  Q 328.52 334.45 324.76 339.74
  Q 311.47 358.40 301.59 377.30
  A 0.93 0.08 -41.3 0 1 301.09 377.82
  Q 300.97 377.93 300.88 378.12
  C 297.69 384.47 294.46 390.20 292.36 396.05
  Q 292.24 396.38 289.43 402.64
  Q 288.16 405.48 286.66 409.31
  Q 279.72 427.06 278.03 432.28
  Q 275.18 441.10 271.84 453.23
  Q 269.73 460.89 267.43 472.74
  C 264.66 487.01 261.32 502.88 259.89 518.30
  A 3.93 3.78 59.1 0 1 259.68 519.21
  C 258.76 521.65 259.24 524.22 258.43 526.68
  A 1.04 0.55 73.2 0 0 258.40 526.83
  L 257.85 534.80
  A 0.56 0.53 73.2 0 1 257.67 535.16
  Q 257.49 535.33 257.47 535.34
  A 0.55 0.53 -9.4 0 0 257.21 535.69
  L 256.13 540.25
  A 0.87 0.86 -0.1 0 1 255.47 540.90
  Q 250.77 541.98 246.46 542.01
  Q 226.33 542.14 210.31 542.00
  C 201.64 541.93 195.52 542.69 188.51 545.24
  C 176.84 549.48 169.32 559.59 166.10 571.35
  Q 165.14 574.83 165.44 578.76
  Q 165.93 585.03 166.41 586.26
  Q 169.24 593.40 170.87 596.01
  Q 172.51 598.65 172.69 599.57
  A 1.45 1.43 18.0 0 0 173.07 600.30
  Q 174.12 601.40 181.29 611.99
  C 188.67 622.92 199.02 636.62 208.74 648.55
  Q 217.06 658.77 219.34 662.08
  Q 219.91 662.91 227.32 671.76
  Q 231.12 676.30 234.34 680.53
  C 238.16 685.52 242.47 689.47 246.82 694.55
  Q 282.25 735.87 321.05 773.33
  A 5.02 4.98 82.1 0 0 322.02 774.07
  Q 323.28 774.83 323.79 775.76
  A 4.22 4.18 -83.7 0 0 324.72 776.93
  Q 332.03 783.36 335.89 786.81
  Q 339.81 790.31 343.52 792.70
  Q 346.19 794.42 352.03 797.33
  Q 355.74 799.18 361.77 799.73
  Q 369.68 800.45 377.03 799.09
  Q 380.07 798.52 381.80 797.42
  Q 382.13 797.20 383.71 797.11
  A 2.68 2.60 28.2 0 0 384.76 796.81
  Q 389.06 794.59 392.27 791.41"
/>
<path stroke="#011002" vector-effect="non-scaling-stroke" d="
  M 392.27 791.41
  Q 393.72 790.95 395.55 791.30"
/>
<path stroke="#0f3b08" vector-effect="non-scaling-stroke" d="
  M 839.17 522.46
  C 837.05 533.06 835.13 545.01 832.37 554.31
  Q 827.85 569.52 821.91 583.17
  C 819.19 589.43 816.69 594.95 811.90 598.62
  C 808.10 601.54 801.13 605.48 795.47 606.46
  C 790.98 607.23 788.09 608.47 784.02 608.16
  Q 779.09 607.78 777.75 607.27
  Q 776.52 606.80 770.37 603.43
  A 11.60 11.29 81.8 0 1 767.59 601.29
  C 764.31 597.87 760.91 594.92 758.83 590.75
  Q 756.36 585.80 755.77 582.97
  Q 754.00 574.37 753.34 572.18
  A 9.64 9.27 -54.9 0 1 752.94 569.59
  Q 752.89 565.68 752.48 563.82
  Q 750.79 556.02 749.29 547.80
  Q 748.03 540.89 745.21 532.03
  Q 741.41 520.08 737.30 508.20"
/>
<path stroke="#256a11" vector-effect="non-scaling-stroke" d="
  M 737.30 508.20
  Q 743.87 524.04 746.64 533.65
  Q 747.83 537.77 752.89 559.37
  C 754.72 567.17 755.28 574.57 757.21 582.25
  C 757.95 585.19 759.16 588.93 761.42 590.79
  Q 762.05 591.32 762.56 590.73
  Q 762.92 590.32 762.92 589.49"
/>
<path stroke="#105806" vector-effect="non-scaling-stroke" d="
  M 762.92 589.49
  C 768.46 596.87 775.99 603.12 785.45 603.59
  Q 800.25 604.33 809.81 595.48
  Q 814.33 591.29 818.13 582.95
  C 824.05 569.98 828.27 555.11 830.57 543.31
  Q 833.79 526.80 836.20 503.46
  Q 837.12 494.64 837.09 487.96
  C 837.04 471.61 837.30 463.57 835.74 451.02
  Q 833.76 435.07 830.43 417.54
  Q 829.09 410.44 827.97 407.10
  Q 826.98 404.16 821.91 388.33
  Q 814.50 365.15 800.73 343.75
  Q 793.51 332.52 788.43 324.82
  C 783.62 317.55 774.43 307.25 766.64 299.15
  Q 748.64 280.44 729.36 267.40
  C 725.28 264.65 721.58 262.69 717.86 259.99
  Q 714.36 257.46 709.15 254.61
  C 698.87 249.01 686.31 242.55 674.10 238.25
  Q 661.83 233.94 658.42 232.86
  Q 624.02 222.03 588.02 220.46
  Q 529.83 217.92 475.49 235.68
  C 465.05 239.10 453.26 244.01 442.23 248.43"
/>
<path stroke="#256a11" vector-effect="non-scaling-stroke" d="
  M 442.23 248.43
  Q 442.72 247.40 442.47 246.77
  Q 442.21 246.16 441.03 246.07
  Q 439.70 245.97 438.12 246.11"
/>
<path stroke="#18610b" vector-effect="non-scaling-stroke" d="
  M 356.37 793.72
  Q 373.69 798.15 387.47 789.07"
/>
<path stroke="#18480c" vector-effect="non-scaling-stroke" d="
  M 737.30 508.20
  Q 735.71 504.23 733.94 500.30
  Q 725.75 482.16 716.25 465.83
  Q 711.43 457.55 706.20 450.55
  Q 697.29 438.63 694.74 435.89
  Q 680.47 420.58 678.13 418.50
  C 665.02 406.88 651.25 396.15 635.97 389.36
  Q 618.13 381.44 597.24 378.33
  Q 591.16 377.43 584.71 377.57
  C 569.92 377.90 553.95 379.72 539.96 384.99
  C 527.33 389.73 515.52 395.07 505.81 403.82
  Q 482.17 425.11 472.15 455.41
  Q 466.76 471.71 465.96 486.31
  Q 465.74 490.25 465.57 491.66
  Q 465.03 496.00 464.89 497.00
  Q 464.38 500.59 464.26 505.03
  Q 463.90 518.75 464.65 531.00
  C 465.12 538.67 466.09 541.87 474.26 541.89
  Q 476.51 541.90 513.75 541.82
  Q 514.94 541.82 520.77 542.17
  A 3.72 3.59 57.3 0 1 521.95 542.45
  Q 523.20 542.99 524.57 542.89
  A 2.43 2.36 49.9 0 1 525.38 542.97
  L 531.41 544.65
  A 0.62 0.46 53.3 0 1 531.51 544.68
  L 538.06 547.67
  A 12.07 11.56 -12.5 0 1 540.42 549.10
  C 544.39 552.19 548.39 554.93 550.90 558.92
  C 553.64 563.28 557.15 569.51 558.06 574.96
  C 560.35 588.66 556.70 599.87 548.48 610.48
  Q 541.29 619.77 524.04 641.58
  Q 520.03 646.64 514.91 652.42
  Q 507.92 660.30 505.71 663.20
  Q 498.00 673.33 492.38 679.38
  Q 478.71 694.10 469.83 705.17
  C 465.91 710.06 462.06 713.50 458.08 718.08
  C 454.52 722.17 447.52 728.49 443.17 734.16
  Q 439.21 739.30 435.91 742.69
  C 429.53 749.25 422.84 757.22 418.18 761.98
  Q 413.22 767.03 407.38 774.04
  Q 398.87 784.26 396.78 786.28
  Q 393.61 789.34 392.27 791.41"
/>
<path stroke="#18650b" vector-effect="non-scaling-stroke" d="
  M 762.92 589.49
  Q 759.33 584.02 758.42 577.18
  Q 756.93 565.82 755.11 555.85
  Q 754.40 551.98 748.99 531.08
  Q 748.14 527.80 747.39 525.85
  C 745.65 521.37 744.88 517.54 742.87 512.99
  Q 742.26 511.59 739.16 503.32
  Q 730.55 480.36 713.45 454.22
  C 708.93 447.31 702.61 439.73 697.18 433.37
  Q 683.72 417.59 666.61 404.02
  Q 661.56 400.02 656.01 396.47
  Q 646.91 390.65 644.97 389.56
  Q 640.52 387.06 631.07 382.92
  C 617.73 377.08 601.99 374.00 587.80 373.18
  Q 581.53 372.82 575.50 373.50
  C 561.51 375.07 548.34 377.42 535.87 382.33
  C 515.18 390.48 496.67 404.88 484.05 423.30
  Q 476.79 433.92 470.71 448.45
  Q 470.22 449.64 466.28 462.44
  Q 463.70 470.83 462.63 476.60
  Q 457.14 506.09 461.24 535.75
  Q 462.61 545.70 473.17 545.37
  Q 486.28 544.96 502.73 545.07
  C 519.70 545.18 531.37 546.03 542.86 556.62
  Q 556.81 569.46 554.70 588.78
  Q 553.97 595.50 550.38 601.14
  Q 544.84 609.83 539.11 616.84
  C 533.27 623.98 528.08 631.85 522.54 638.30
  Q 517.55 644.10 489.24 677.77
  C 484.05 683.95 477.64 690.02 472.61 696.09
  Q 459.92 711.41 448.50 723.58
  C 441.23 731.33 433.95 740.34 427.45 747.17
  Q 422.60 752.27 411.45 764.70
  C 403.86 773.16 396.24 781.96 387.47 789.07"
/>
<path stroke="#034e00" vector-effect="non-scaling-stroke" d="
  M 387.47 789.07
  Q 397.89 777.31 402.32 770.71
  C 408.75 761.15 413.26 754.19 419.00 746.80
  C 427.38 736.02 439.15 721.38 449.08 707.05
  C 469.60 677.43 490.59 653.54 516.44 623.65
  C 525.40 613.29 539.23 597.01 533.90 582.92
  C 526.73 563.97 498.81 563.44 481.90 562.91
  C 468.39 562.49 456.81 560.01 451.37 545.74
  C 447.72 536.14 446.95 525.42 446.82 515.21
  Q 446.52 491.59 450.57 467.23
  C 455.19 439.45 468.06 415.86 487.59 395.39
  C 530.08 350.84 597.06 341.08 652.43 367.03
  Q 667.65 374.17 679.06 381.71
  C 703.90 398.12 723.95 421.66 739.56 447.19
  C 748.01 461.02 755.96 474.29 765.74 488.01"
/>
<path stroke="#022d01" vector-effect="non-scaling-stroke" d="
  M 765.74 488.01
  Q 772.29 504.26 774.67 512.10
  Q 778.86 525.90 782.93 547.77
  Q 785.59 562.03 786.74 576.57"
/>
<path stroke="#024d00" vector-effect="non-scaling-stroke" d="
  M 786.74 576.57
  Q 786.90 578.21 787.75 579.79
  A 0.44 0.44 0.0 0 0 788.39 579.95
  Q 794.39 575.77 798.26 572.09
  C 807.41 563.39 812.29 551.28 815.59 538.95
  C 825.36 502.52 824.86 463.51 817.54 426.73
  C 809.62 387.00 790.42 350.05 764.61 319.39
  Q 735.20 284.45 694.47 266.24
  C 663.80 252.53 628.03 243.13 593.58 242.02
  C 562.47 241.02 531.84 244.76 501.37 251.79
  Q 481.29 256.42 463.69 264.58
  C 446.56 272.53 427.94 282.09 412.30 293.85
  C 402.31 301.36 391.60 309.87 382.93 318.23
  Q 370.97 329.76 361.85 345.40"
/>
<path stroke="#022d01" vector-effect="non-scaling-stroke" d="
  M 361.85 345.40
  Q 354.80 354.13 348.13 363.38
  Q 336.85 379.04 328.86 394.09
  C 325.38 400.66 320.77 409.17 317.46 416.88
  Q 305.71 444.21 298.98 471.49
  Q 291.37 502.30 286.47 544.29
  C 285.77 550.33 285.97 554.25 284.85 561.41
  C 283.94 567.23 278.33 572.85 272.15 573.13
  A 0.68 0.68 0.0 0 0 271.62 574.19
  Q 271.77 574.41 272.34 574.58"
/>
<path stroke="#78a54b" vector-effect="non-scaling-stroke" d="
  M 272.34 574.58
  Q 271.22 574.85 270.12 574.86
  Q 238.35 575.24 206.93 574.75"
/>
<path stroke="#022d01" vector-effect="non-scaling-stroke" d="
  M 206.93 574.75
  Q 204.87 572.80 201.01 575.77
  Q 197.58 578.40 197.78 582.15
  Q 197.90 584.56 200.82 588.84
  Q 217.67 613.62 237.41 638.60
  Q 246.13 649.64 253.71 658.80
  Q 266.34 674.06 294.17 705.08
  Q 306.27 718.57 332.55 744.17"
/>
<path stroke="#034e00" vector-effect="non-scaling-stroke" d="
  M 332.55 744.17
  C 340.87 755.93 349.58 765.43 361.10 771.71
  Q 371.16 777.20 371.87 777.61
  C 385.16 785.26 360.29 792.74 356.37 793.72"
/>
<path stroke="#18650b" vector-effect="non-scaling-stroke" d="
  M 356.37 793.72
  Q 348.18 791.16 344.74 788.50
  Q 341.87 786.28 321.25 767.47
  Q 308.59 755.92 300.99 747.76
  C 296.68 743.15 287.11 733.18 280.16 725.34
  Q 276.43 721.14 270.84 715.42
  Q 260.69 705.01 246.52 688.11
  Q 246.49 688.08 236.99 676.87
  Q 229.50 668.03 224.80 662.18
  Q 196.68 627.18 182.89 607.39
  Q 179.89 603.09 177.60 599.56
  Q 177.57 599.51 175.31 596.10
  Q 169.01 586.61 169.85 576.04
  C 170.89 562.92 180.19 552.91 192.18 547.99
  Q 197.21 545.92 208.57 545.40
  Q 222.64 544.76 237.59 544.97
  Q 241.79 545.03 242.93 544.93
  Q 247.42 544.56 248.26 544.60
  C 253.75 544.83 258.00 543.87 260.53 539.32
  Q 261.54 537.51 261.98 533.30
  C 262.81 525.27 263.43 517.56 264.48 511.36
  Q 269.97 478.74 272.51 467.90
  Q 277.10 448.29 280.30 438.26
  Q 291.45 403.38 309.29 371.76
  Q 325.26 343.47 344.73 321.46
  Q 372.66 289.88 409.14 266.39
  Q 417.28 261.15 442.23 248.43"
/>
<path stroke="#014200" vector-effect="non-scaling-stroke" d="
  M 366.39 766.97
  Q 381.91 761.10 394.14 750.23
  Q 399.34 745.60 407.52 736.93
  C 424.73 718.69 435.70 707.46 451.85 688.57
  C 477.18 658.95 490.98 643.35 511.46 617.49
  Q 516.09 611.65 519.87 606.01
  Q 528.74 592.78 528.97 576.61
  A 0.80 0.78 13.3 0 0 528.51 575.88
  Q 522.50 573.18 515.96 573.36"
/>
<path stroke="#c6e670" vector-effect="non-scaling-stroke" d="
  M 275.16 575.54
  Q 266.13 576.53 256.84 576.07
  C 252.17 575.83 247.61 576.13 243.44 576.03
  Q 226.17 575.62 208.70 576.32"
/>
<path stroke="#daf184" vector-effect="non-scaling-stroke" d="
  M 208.70 576.32
  Q 203.46 575.51 201.14 579.83
  C 199.66 582.59 201.47 585.28 202.78 587.21
  Q 210.51 598.59 216.72 607.12
  C 217.02 607.52 217.50 607.80 217.77 608.19
  Q 220.05 611.54 225.69 619.30
  Q 227.91 622.37 229.94 624.60
  Q 230.52 625.25 233.88 630.16
  A 8.76 8.71 6.2 0 0 234.82 631.32
  Q 236.03 632.57 236.36 633.01
  Q 241.03 639.23 253.71 654.88
  Q 255.86 657.54 257.61 659.32
  A 5.18 5.15 6.9 0 1 258.28 660.17
  C 260.00 662.92 262.94 664.94 264.80 668.10
  A 6.35 6.26 5.9 0 0 266.07 669.64
  Q 269.66 672.81 271.21 675.49
  A 5.42 5.03 9.2 0 0 272.13 676.67
  Q 275.10 679.52 278.16 683.33
  C 280.48 686.23 283.44 688.77 285.44 691.41
  Q 287.98 694.78 290.74 697.44
  C 295.47 702.02 300.59 708.53 305.43 713.18
  Q 309.22 716.82 317.43 725.51
  Q 320.27 728.51 328.67 736.79
  Q 334.55 742.58 352.03 759.44
  C 354.25 761.58 356.80 763.99 359.98 764.55"
/>
<path stroke="#bbde69" vector-effect="non-scaling-stroke" d="
  M 359.98 764.55
  Q 361.69 765.18 363.81 764.84"
/>
<path stroke="#ace55b" vector-effect="non-scaling-stroke" d="
  M 363.81 764.84
  L 364.06 766.08"
/>
<path stroke="#012801" vector-effect="non-scaling-stroke" d="
  M 786.74 576.57
  Q 786.84 578.23 789.10 577.92
  A 1.32 1.29 15.6 0 0 789.92 577.47
  Q 790.92 576.26 791.03 574.81"
/>
<path stroke="#014100" vector-effect="non-scaling-stroke" d="
  M 791.03 574.81
  Q 800.58 562.63 805.32 550.72
  C 811.82 534.40 814.75 516.45 816.29 497.70
  C 820.55 445.78 806.99 392.54 779.50 348.45
  C 768.91 331.48 755.60 316.19 740.88 303.03
  Q 723.46 287.46 705.84 278.10
  Q 667.95 257.96 624.97 251.19
  Q 608.26 248.56 593.55 249.68"
/>
<path stroke="#012801" vector-effect="non-scaling-stroke" d="
  M 593.55 249.68
  Q 560.80 247.35 528.44 252.19
  Q 488.13 258.22 451.30 275.85
  Q 427.18 287.41 406.13 303.90
  C 402.29 306.91 398.10 309.93 394.73 312.86
  Q 387.85 318.86 380.78 325.06
  Q 376.01 329.23 361.85 345.40"
/>
<path stroke="#012901" vector-effect="non-scaling-stroke" d="
  M 765.74 488.01
  Q 746.51 439.92 711.62 402.16
  C 704.35 394.29 696.40 387.34 688.03 380.72
  Q 658.77 357.59 622.84 348.39"
/>
<path stroke="#002101" vector-effect="non-scaling-stroke" d="
  M 622.84 348.39
  Q 607.11 344.79 595.72 344.10
  Q 580.15 343.15 561.09 345.47
  C 538.05 348.26 515.26 356.56 496.58 368.49
  Q 487.41 374.35 479.98 381.30
  Q 470.61 390.08 465.39 396.39
  C 439.91 427.24 430.59 467.63 430.26 507.01
  Q 430.23 511.41 430.56 523.39
  C 430.77 531.31 431.76 537.82 432.67 546.74
  Q 433.66 556.38 434.57 560.51
  C 436.54 569.50 440.64 573.99 450.37 573.07"
/>
<path stroke="#012901" vector-effect="non-scaling-stroke" d="
  M 450.37 573.07
  L 515.96 573.36"
/>
<path stroke="#002101" vector-effect="non-scaling-stroke" d="
  M 515.96 573.36
  C 522.16 574.58 527.25 579.15 524.32 586.03
  A 1.17 1.08 -16.1 0 1 524.12 586.36
  Q 508.58 605.68 491.69 627.19
  Q 487.91 631.99 464.76 659.28
  Q 459.17 665.87 449.56 676.57
  C 439.63 687.62 427.56 701.59 416.64 712.88
  Q 415.89 713.65 415.06 714.57
  Q 386.84 745.81 372.28 762.53
  Q 370.46 764.63 366.39 766.97"
/>
<path stroke="#012901" vector-effect="non-scaling-stroke" d="
  M 366.39 766.97
  Q 362.61 768.29 358.88 767.16
  Q 356.23 766.37 352.54 763.07
  Q 349.66 760.51 346.89 757.83
  Q 339.78 750.93 332.55 744.17"
/>
<path stroke="#777f4c" vector-effect="non-scaling-stroke" d="
  M 206.93 574.75
  C 201.40 575.23 196.64 580.42 200.06 585.67
  Q 207.44 596.99 220.59 614.67
  Q 279.55 693.95 352.92 761.83
  Q 357.89 766.44 364.06 766.08"
/>
<path stroke="#366d11" vector-effect="non-scaling-stroke" d="
  M 364.06 766.08
  Q 368.43 764.98 371.59 761.34
  Q 394.96 734.45 418.55 709.01
  C 430.82 695.76 439.74 685.49 450.67 673.37
  C 460.76 662.19 471.44 649.33 481.46 637.48
  Q 492.26 624.70 512.42 598.77
  Q 514.51 596.08 517.93 592.06
  C 521.44 587.93 526.68 582.86 522.24 578.18"
/>
<path stroke="#648127" vector-effect="non-scaling-stroke" d="
  M 522.24 578.18
  C 519.61 575.08 515.78 574.56 511.74 574.58
  Q 478.87 574.67 446.00 574.38
  Q 444.14 574.36 442.26 573.74"
/>
<path stroke="#366d11" vector-effect="non-scaling-stroke" d="
  M 442.26 573.74
  C 435.90 571.18 433.79 564.96 432.84 558.72
  C 423.51 497.58 427.82 430.24 474.85 384.18
  C 497.54 361.95 526.32 349.70 557.59 344.30"
/>
<path stroke="#798244" vector-effect="non-scaling-stroke" d="
  M 557.59 344.30
  C 584.23 340.35 610.88 342.06 636.42 350.88
  Q 666.02 361.10 691.30 381.67
  Q 703.96 391.97 713.10 401.90
  Q 740.41 431.55 758.24 467.98
  Q 771.83 495.75 778.62 521.36
  Q 784.91 545.07 787.70 570.00
  Q 788.06 573.24 788.02 576.77
  A 0.46 0.46 0.0 0 0 788.89 576.97
  Q 790.39 573.87 790.30 571.48"
/>
<path stroke="#58732f" vector-effect="non-scaling-stroke" d="
  M 790.30 571.48
  L 796.31 552.79"
/>
<path stroke="#2f660e" vector-effect="non-scaling-stroke" d="
  M 796.31 552.79
  Q 797.91 548.61 799.00 544.24
  Q 809.35 502.77 806.31 460.99
  C 802.69 411.32 783.78 363.51 750.79 326.53
  Q 730.58 303.89 706.87 288.36
  Q 670.60 264.61 625.97 255.63"
/>
<path stroke="#657b3a" vector-effect="non-scaling-stroke" d="
  M 625.97 255.63
  Q 623.33 255.19 620.61 254.71
  Q 572.95 246.36 525.24 254.26
  Q 485.42 260.85 452.80 276.55
  C 425.67 289.61 400.17 307.88 378.90 328.90
  Q 367.75 339.91 356.14 354.60"
/>
<path stroke="#777f4c" vector-effect="non-scaling-stroke" d="
  M 356.14 354.60
  Q 330.88 387.24 316.65 421.89
  C 298.84 465.26 290.39 511.77 286.65 558.47
  C 285.98 566.78 280.91 573.38 272.34 574.58"
/>
<path stroke="#014200" vector-effect="non-scaling-stroke" d="
  M 622.84 348.39
  Q 616.89 349.04 614.73 349.07
  Q 594.77 349.34 587.61 349.51
  C 542.89 350.60 501.31 369.76 473.74 405.40
  C 455.05 429.55 446.66 457.04 443.55 487.40
  C 440.53 516.86 441.97 544.33 450.37 573.07"
/>
<path stroke="#b3df5d" vector-effect="non-scaling-stroke" d="
  M 212.65 585.65
  L 208.70 576.32"
/>
<path stroke="#94da47" vector-effect="non-scaling-stroke" d="
  M 625.97 255.63
  Q 625.83 256.18 625.50 256.51"
/>
<path stroke="#9cd24b" vector-effect="non-scaling-stroke" d="
  M 625.50 256.51
  Q 614.06 254.57 602.50 253.19
  Q 598.14 252.67 593.66 252.52"
/>
<path stroke="#b0df59" vector-effect="non-scaling-stroke" d="
  M 593.66 252.52
  C 584.93 251.40 573.39 251.86 566.99 251.85
  Q 557.16 251.84 549.54 252.55
  Q 528.91 254.48 511.39 258.14
  Q 473.20 266.12 438.46 285.48"
/>
<path stroke="#c1e968" vector-effect="non-scaling-stroke" d="
  M 438.46 285.48
  Q 427.95 291.38 420.64 296.41
  Q 413.61 301.24 400.24 311.52
  C 396.58 314.34 393.88 317.25 390.19 320.09
  A 0.68 0.68 0.0 0 0 390.02 320.96
  L 392.03 324.43
  A 1.36 1.34 72.6 0 0 393.31 325.11
  Q 396.46 324.87 398.88 322.78
  Q 416.64 307.41 436.96 295.54
  Q 440.34 293.56 443.37 293.22"
/>
<path stroke="#a6d950" vector-effect="non-scaling-stroke" d="
  M 443.37 293.22
  Q 421.44 305.29 402.03 322.28
  Q 382.84 339.07 367.39 357.78"
/>
<path stroke="#aadc53" vector-effect="non-scaling-stroke" d="
  M 367.39 357.78
  Q 348.13 382.15 334.27 409.83
  Q 327.01 424.34 321.13 440.92
  C 309.56 473.53 302.76 507.35 299.02 542.25
  Q 297.96 552.11 297.69 557.40"
/>
<path stroke="#b0df56" vector-effect="non-scaling-stroke" d="
  M 297.69 557.40
  Q 297.15 559.22 296.58 564.30
  Q 296.15 568.10 293.64 573.14
  Q 289.18 582.13 279.79 584.09"
/>
<path stroke="#b5e15e" vector-effect="non-scaling-stroke" d="
  M 279.79 584.09
  Q 276.51 580.34 275.16 575.54"
/>
<path stroke="#dcf384" vector-effect="non-scaling-stroke" d="
  M 275.16 575.54
  Q 286.63 570.86 288.15 559.02
  Q 288.77 554.17 289.73 543.57
  Q 290.60 534.06 291.41 528.12
  Q 294.62 504.62 299.04 483.10
  A 2.77 2.74 63.1 0 1 299.22 482.54
  Q 300.10 480.58 300.15 478.41
  A 3.49 3.47 -36.1 0 1 300.30 477.47
  Q 300.78 475.90 302.44 469.10
  Q 306.27 453.51 314.95 429.89
  Q 320.04 416.07 329.23 398.77
  Q 341.73 375.26 356.51 356.25
  Q 356.84 355.83 357.04 355.13
  A 0.45 0.45 0.0 0 0 356.56 354.56
  L 356.14 354.60"
/>
<path stroke="#7acc2e" vector-effect="non-scaling-stroke" d="
  M 363.81 764.84
  Q 366.57 764.18 369.24 762.18"
/>
<path stroke="#5db81e" vector-effect="non-scaling-stroke" d="
  M 369.24 762.18
  Q 380.73 749.41 392.13 736.60
  Q 404.49 722.71 415.15 711.15
  Q 432.81 692.00 452.47 669.72
  Q 483.41 634.65 509.61 600.62
  Q 515.28 593.26 520.22 587.74
  Q 522.65 585.03 522.20 581.40
  A 0.32 0.32 0.0 0 0 521.70 581.18
  Q 513.89 586.86 511.29 589.79
  Q 509.49 591.83 506.44 594.88
  A 0.19 0.18 42.6 0 1 506.19 594.89
  L 506.18 594.89
  A 0.20 0.20 0.0 0 1 506.15 594.62
  L 507.53 592.61"
/>
<path stroke="#a7d856" vector-effect="non-scaling-stroke" d="
  M 363.59 755.59
  L 359.98 764.55"
/>
<path stroke="#002101" vector-effect="non-scaling-stroke" d="
  M 791.03 574.81
  Q 793.68 565.75 796.54 556.86
  Q 800.59 544.26 801.80 538.84
  Q 804.32 527.57 806.35 514.03
  Q 807.97 503.23 808.14 488.90
  Q 808.38 467.42 807.78 459.65
  Q 805.60 431.24 795.66 401.40
  Q 790.76 386.68 783.48 372.53
  Q 774.94 355.91 767.53 345.50
  Q 735.03 299.84 685.04 274.25
  Q 681.88 272.63 662.43 264.44
  C 661.66 264.11 660.66 264.06 659.77 263.72
  Q 649.79 259.96 641.84 257.82
  Q 618.08 251.44 593.55 249.68"
/>
<path stroke="#9ae737" vector-effect="non-scaling-stroke" d="
  M 442.26 573.74
  L 441.77 574.39"
/>
<path stroke="#5db81e" vector-effect="non-scaling-stroke" d="
  M 441.77 574.39
  Q 441.29 574.45 440.63 574.01"
/>
<path stroke="#59b51c" vector-effect="non-scaling-stroke" d="
  M 440.63 574.01
  Q 433.77 569.92 432.34 561.94
  Q 426.59 529.77 427.85 497.18
  Q 428.20 488.24 429.26 480.36
  Q 430.67 469.84 431.91 463.69
  C 436.40 441.41 445.20 419.66 458.54 401.48
  Q 471.81 383.40 490.27 369.74"
/>
<path stroke="#5db81e" vector-effect="non-scaling-stroke" d="
  M 490.27 369.74
  Q 503.60 360.47 518.63 353.99
  C 521.61 352.71 525.57 351.52 528.98 350.01"
/>
<path stroke="#87d23c" vector-effect="non-scaling-stroke" d="
  M 796.31 552.79
  Q 796.07 552.23 795.34 551.64"
/>
<path stroke="#51ac18" vector-effect="non-scaling-stroke" d="
  M 795.34 551.64
  Q 797.10 546.77 798.32 541.72
  Q 806.31 508.70 805.75 475.14
  Q 805.18 440.41 795.49 409.00
  Q 786.80 380.85 770.97 354.96
  Q 767.46 349.21 762.33 342.29
  Q 757.13 335.25 752.73 330.28
  C 749.12 326.20 744.99 321.37 741.30 317.74
  Q 716.10 292.99 686.11 277.68
  Q 669.38 269.15 648.05 262.43"
/>
<path stroke="#9ae737" vector-effect="non-scaling-stroke" d="
  M 522.24 578.18
  L 522.21 578.65
  A 0.40 0.39 23.6 0 1 521.54 578.91
  L 520.33 577.76"
/>
<path stroke="#94d338" vector-effect="non-scaling-stroke" d="
  M 520.33 577.76
  Q 519.78 577.27 519.31 577.24"
/>
<path stroke="#9bd939" vector-effect="non-scaling-stroke" d="
  M 519.31 577.24
  Q 518.78 576.89 518.24 576.77"
/>
<path stroke="#d1ed72" vector-effect="non-scaling-stroke" d="
  M 648.19 354.19
  Q 660.74 359.53 669.40 364.84
  Q 670.94 365.78 684.71 375.00
  C 688.06 377.25 690.63 380.05 693.78 382.36
  Q 696.51 384.35 700.53 387.96
  Q 705.50 392.41 707.41 394.32
  Q 728.84 415.72 745.03 441.66
  Q 769.54 480.93 780.95 524.66
  C 781.87 528.16 783.13 534.05 784.20 538.82
  Q 785.33 543.89 786.26 549.51
  Q 788.05 560.26 790.30 571.48"
/>
<path stroke="#aee854" vector-effect="non-scaling-stroke" d="
  M 557.59 344.30
  Q 555.74 343.97 556.28 343.34"
/>
<path stroke="#aedd55" vector-effect="non-scaling-stroke" d="
  M 262.98 651.75
  Q 236.99 619.52 212.65 585.65"
/>
<path stroke="#9ad241" vector-effect="non-scaling-stroke" d="
  M 212.65 585.65
  Q 221.70 583.35 231.80 583.42
  Q 255.69 583.58 279.79 584.09"
/>
<path stroke="#79be2b" vector-effect="non-scaling-stroke" d="
  M 424.51 562.96
  L 427.75 571.44"
/>
<path stroke="#72b82a" vector-effect="non-scaling-stroke" d="
  M 427.75 571.44
  Q 430.30 575.13 434.03 577.39
  A 2.08 2.01 -26.8 0 0 434.97 577.68
  Q 441.51 578.13 446.99 576.08"
/>
<path stroke="#a6e03f" vector-effect="non-scaling-stroke" d="
  M 446.99 576.08
  Q 480.25 575.91 514.00 575.96
  Q 516.23 575.96 518.24 576.77"
/>
<path stroke="#79be2b" vector-effect="non-scaling-stroke" d="
  M 518.24 576.77
  Q 515.68 583.34 510.45 588.15"
/>
<path stroke="#6ab126" vector-effect="non-scaling-stroke" d="
  M 510.45 588.15
  Q 510.63 587.56 509.86 588.46
  Q 499.74 600.41 493.74 609.00
  Q 493.70 609.06 493.88 608.87
  Q 497.30 605.34 498.35 604.10
  Q 498.46 603.97 498.57 604.03
  A 0.09 0.09 0.0 0 1 498.60 604.16
  C 487.67 617.96 481.69 626.44 472.05 636.48
  Q 466.92 641.83 458.62 652.05
  C 453.56 658.28 449.14 662.75 443.07 669.84
  Q 438.95 674.66 431.27 683.04
  Q 414.28 701.56 408.96 707.35
  C 405.08 711.58 402.30 715.62 398.57 719.39
  C 392.63 725.37 386.91 732.16 381.04 738.52"
/>
<path stroke="#86c536" vector-effect="non-scaling-stroke" d="
  M 381.04 738.52
  L 363.59 755.59"
/>
<path stroke="#a5d851" vector-effect="non-scaling-stroke" d="
  M 363.59 755.59
  Q 357.67 751.96 356.03 750.47
  Q 341.66 737.43 327.94 723.46"
/>
<path stroke="#6cb12b" vector-effect="non-scaling-stroke" d="
  M 369.24 762.18
  Q 366.06 754.94 371.62 749.12
  Q 373.70 746.94 381.04 738.52"
/>
<path stroke="#78bd29" vector-effect="non-scaling-stroke" d="
  M 496.03 356.77
  Q 490.17 360.13 484.89 364.32
  Q 483.55 365.38 482.65 366.84
  Q 482.62 366.88 482.65 366.84
  C 483.16 366.29 483.78 365.92 484.46 365.85"
/>
<path stroke="#69b125" vector-effect="non-scaling-stroke" d="
  M 484.46 365.85
  L 479.37 369.71"
/>
<path stroke="#65ad23" vector-effect="non-scaling-stroke" d="
  M 479.37 369.71
  L 472.62 375.70
  A 0.20 0.19 -46.1 0 1 472.36 375.71
  A 0.19 0.18 42.8 0 1 472.34 375.45
  L 475.59 371.85"
/>
<path stroke="#78bd29" vector-effect="non-scaling-stroke" d="
  M 475.59 371.85
  L 480.69 367.99
  A 0.17 0.17 0.0 0 0 480.74 367.79
  Q 480.63 367.56 480.54 367.61
  Q 477.59 369.29 475.59 371.85"
/>
<path stroke="#65ad23" vector-effect="non-scaling-stroke" d="
  M 475.59 371.85
  L 469.88 377.79"
/>
<path stroke="#71b729" vector-effect="non-scaling-stroke" d="
  M 469.88 377.79
  L 467.50 380.11"
/>
<path stroke="#78bd29" vector-effect="non-scaling-stroke" d="
  M 467.50 380.11
  Q 457.20 388.60 450.38 400.26"
/>
<path stroke="#71b729" vector-effect="non-scaling-stroke" d="
  M 450.38 400.26
  L 446.95 404.66"
/>
<path stroke="#7dc12c" vector-effect="non-scaling-stroke" d="
  M 446.95 404.66
  Q 439.77 414.53 435.69 425.98"
/>
<path stroke="#65ad23" vector-effect="non-scaling-stroke" d="
  M 435.69 425.98
  L 433.63 431.06"
/>
<path stroke="#86c731" vector-effect="non-scaling-stroke" d="
  M 433.63 431.06
  Q 434.44 421.05 434.28 417.65
  C 433.88 408.90 433.81 402.47 436.29 396.03
  C 439.79 386.90 442.17 381.71 441.59 374.11
  Q 441.14 368.38 439.74 352.36
  C 438.81 341.65 434.72 331.75 425.69 326.02
  C 415.52 319.57 405.57 324.48 396.96 331.04
  Q 390.42 336.02 384.55 340.94
  Q 382.10 342.98 377.54 348.14
  Q 372.86 353.44 367.39 357.78"
/>
<path stroke="#9dd446" vector-effect="non-scaling-stroke" d="
  M 443.37 293.22
  Q 455.56 286.16 468.64 280.52"
/>
<path stroke="#65be20" vector-effect="non-scaling-stroke" d="
  M 625.50 256.51
  L 648.05 262.43"
/>
<path stroke="#59a41d" vector-effect="non-scaling-stroke" d="
  M 648.05 262.43
  C 652.88 265.83 659.06 268.04 666.42 271.09
  Q 667.36 271.48 671.07 274.85
  C 675.70 279.06 680.48 281.24 688.20 285.41
  Q 695.09 289.13 700.12 292.61
  Q 718.11 305.06 726.79 312.62
  C 749.50 332.39 767.02 357.31 779.49 386.00
  Q 783.61 395.49 785.09 400.08
  C 790.22 416.04 794.56 429.63 796.51 443.38
  Q 798.08 454.47 798.97 463.41
  Q 799.62 469.93 799.33 483.60
  C 799.05 496.56 799.08 504.65 797.32 514.98
  C 795.70 524.43 795.17 529.04 793.37 541.97
  Q 792.60 547.47 795.22 552.23"
/>
<path stroke="#8fca40" vector-effect="non-scaling-stroke" d="
  M 795.22 552.23
  L 791.52 562.63
  A 0.14 0.13 16.8 0 1 791.36 562.71
  L 791.12 562.64
  A 0.32 0.32 0.0 0 1 790.89 562.26
  Q 793.24 552.06 792.28 542.69
  Q 790.41 524.43 783.98 504.24
  Q 767.97 453.93 735.96 413.26
  Q 725.92 400.49 716.20 390.80
  C 697.03 371.68 673.30 355.48 648.79 346.22"
/>
<path stroke="#7bbe30" vector-effect="non-scaling-stroke" d="
  M 648.79 346.22
  L 630.64 340.04"
/>
<path stroke="#73ba27" vector-effect="non-scaling-stroke" d="
  M 630.64 340.04
  C 637.21 336.25 641.63 332.90 643.94 326.52
  Q 648.06 315.16 650.31 304.22
  C 652.96 291.31 656.19 283.00 668.15 277.72
  A 0.28 0.28 0.0 0 0 668.18 277.23
  Q 664.24 274.83 660.12 273.40
  Q 648.64 269.40 636.95 266.09"
/>
<path stroke="#81c332" vector-effect="non-scaling-stroke" d="
  M 593.66 252.52
  L 606.03 255.69
  A 4.63 4.30 -25.3 0 1 606.69 255.90
  Q 609.24 256.93 612.78 258.54
  C 617.96 260.89 624.00 262.26 629.70 263.59
  Q 631.21 263.94 636.95 266.09"
/>
<path stroke="#87c735" vector-effect="non-scaling-stroke" d="
  M 636.95 266.09
  L 620.60 262.42
  A 5.51 5.30 48.4 0 0 618.97 262.29
  C 616.06 262.47 614.07 263.06 610.66 262.58
  Q 602.02 261.36 593.41 260.31
  Q 586.39 259.46 576.06 259.55
  Q 561.70 259.67 547.40 260.98
  Q 540.27 261.63 533.16 263.00"
/>
<path stroke="#8cca37" vector-effect="non-scaling-stroke" d="
  M 533.16 263.00
  Q 499.78 267.69 468.64 280.52"
/>
<path stroke="#a6da4f" vector-effect="non-scaling-stroke" d="
  M 468.64 280.52
  C 462.37 281.53 457.10 283.57 450.53 283.25
  Q 444.43 282.96 438.46 285.48"
/>
<path stroke="#69b026" vector-effect="non-scaling-stroke" d="
  M 433.63 431.06
  C 431.88 436.93 429.08 443.43 427.67 448.36
  Q 425.51 455.92 423.39 465.48
  C 421.69 473.10 421.82 481.49 420.60 489.01
  Q 419.36 496.65 419.42 506.54
  Q 419.51 522.67 419.69 524.38
  Q 421.31 540.03 422.52 555.71"
/>
<path stroke="#87c733" vector-effect="non-scaling-stroke" d="
  M 422.52 555.71
  Q 423.61 564.31 424.87 572.89
  C 426.53 584.19 423.55 595.25 419.54 607.65
  Q 411.08 633.78 393.38 655.79
  C 386.90 663.85 379.37 671.76 373.59 679.56
  C 366.88 688.59 362.76 694.46 356.02 701.31
  C 347.50 709.96 339.63 719.30 327.94 723.46"
/>
<path stroke="#a8da53" vector-effect="non-scaling-stroke" d="
  M 327.94 723.46
  L 309.48 704.11"
/>
<path stroke="#8dcb35" vector-effect="non-scaling-stroke" d="
  M 309.48 704.11
  C 315.81 699.18 321.96 693.37 324.73 687.01
  C 329.81 675.35 332.66 668.26 337.38 660.66
  Q 342.64 652.20 351.22 640.57
  Q 358.00 631.40 360.98 622.67
  C 363.05 616.63 363.19 610.05 364.32 603.34
  Q 365.24 597.85 367.13 593.38
  C 369.29 588.26 371.31 583.97 370.82 579.62
  Q 370.30 575.06 369.08 568.15
  A 24.32 23.78 -49.2 0 1 368.75 562.84
  C 369.03 556.84 369.25 552.36 369.00 545.60
  Q 368.35 527.79 368.67 520.20
  Q 368.92 514.30 371.21 489.86
  Q 371.54 486.25 374.10 474.59
  C 375.42 468.53 374.18 463.69 372.98 457.95
  C 370.84 447.63 373.04 436.53 372.56 428.38
  Q 372.20 422.17 369.34 402.00
  Q 368.42 395.50 365.82 389.64
  C 361.86 380.74 354.54 385.09 347.69 388.72
  A 2.08 2.03 -87.8 0 0 346.92 389.45
  C 320.05 433.98 307.76 483.53 300.83 536.01"
/>
<path stroke="#90cd37" vector-effect="non-scaling-stroke" d="
  M 300.83 536.01
  Q 300.63 547.41 297.69 557.40"
/>
<path stroke="#65bf22" vector-effect="non-scaling-stroke" d="
  M 520.33 577.76
  Q 517.89 583.41 512.49 587.25"
/>
<path stroke="#66b024" vector-effect="non-scaling-stroke" d="
  M 519.31 577.24
  Q 516.55 582.65 512.49 587.25"
/>
<path stroke="#6cc522" vector-effect="non-scaling-stroke" d="
  M 512.49 587.25
  L 507.53 592.61"
/>
<path stroke="#5eaa20" vector-effect="non-scaling-stroke" d="
  M 507.53 592.61
  L 502.63 598.59
  A 0.07 0.06 -47.9 0 1 502.53 598.60
  L 502.32 598.46
  A 0.28 0.28 0.0 0 1 502.27 598.05
  L 510.45 588.15"
/>
<path stroke="#abdb54" vector-effect="non-scaling-stroke" d="
  M 309.48 704.11
  Q 285.26 678.84 262.98 651.75"
/>
<path stroke="#92ce38" vector-effect="non-scaling-stroke" d="
  M 262.98 651.75
  C 271.51 656.94 281.04 662.40 290.41 656.48
  C 295.50 653.26 300.13 648.08 302.74 642.38
  C 307.06 632.98 310.99 621.29 316.16 611.17
  C 319.75 604.14 323.11 597.86 323.53 591.13
  C 324.11 581.74 322.91 573.04 319.48 563.08
  Q 317.74 558.02 315.45 549.50
  C 313.14 540.93 309.85 536.67 300.83 536.01"
/>
<path stroke="#8ccc34" vector-effect="non-scaling-stroke" d="
  M 441.77 574.39
  Q 442.52 574.64 442.97 574.98"
/>
<path stroke="#57a41f" vector-effect="non-scaling-stroke" d="
  M 442.97 574.98
  C 433.02 577.51 429.18 571.67 425.20 563.94"
/>
<path stroke="#4b9a1a" vector-effect="non-scaling-stroke" d="
  M 440.63 574.01
  C 428.32 575.18 425.83 563.09 423.90 553.25
  A 0.23 0.23 0.0 0 0 423.64 553.06
  L 423.63 553.06
  A 0.23 0.22 -8.4 0 0 423.43 553.32
  L 425.20 563.94"
/>
<path stroke="#5aa61e" vector-effect="non-scaling-stroke" d="
  M 425.20 563.94
  L 424.51 562.96"
/>
<path stroke="#66ae25" vector-effect="non-scaling-stroke" d="
  M 424.51 562.96
  L 422.52 555.71"
/>
<path stroke="#60aa21" vector-effect="non-scaling-stroke" d="
  M 435.69 425.98
  Q 436.28 425.77 436.63 424.76"
/>
<path stroke="#5aa61e" vector-effect="non-scaling-stroke" d="
  M 436.63 424.76
  L 438.73 421.30"
/>
<path stroke="#53a01e" vector-effect="non-scaling-stroke" d="
  M 438.73 421.30
  L 446.43 409.28"
/>
<path stroke="#4b9a1a" vector-effect="non-scaling-stroke" d="
  M 446.43 409.28
  L 457.25 393.01"
/>
<path stroke="#53a01e" vector-effect="non-scaling-stroke" d="
  M 457.25 393.01
  Q 460.49 389.70 463.27 385.96
  Q 464.36 384.50 466.75 382.02
  Q 468.65 380.04 469.88 377.79"
/>
<path stroke="#a8d355" vector-effect="non-scaling-stroke" d="
  M 587.77 341.13
  Q 572.67 340.62 557.73 343.25
  Q 557.03 343.37 556.28 343.34"
/>
<path stroke="#65bf22" vector-effect="non-scaling-stroke" d="
  M 556.28 343.34
  Q 552.61 343.95 548.93 344.61
  C 542.19 345.81 535.53 348.02 528.98 350.01"
/>
<path stroke="#57a41f" vector-effect="non-scaling-stroke" d="
  M 528.98 350.01
  C 514.85 352.38 501.46 357.61 488.44 363.47"
/>
<path stroke="#66b024" vector-effect="non-scaling-stroke" d="
  M 488.44 363.47
  L 507.73 351.47"
/>
<path stroke="#4b9a1a" vector-effect="non-scaling-stroke" d="
  M 490.27 369.74
  Q 486.67 367.61 482.62 369.91
  C 476.12 373.61 470.40 379.45 464.94 385.12
  A 0.25 0.25 0.0 0 1 464.55 385.07
  L 464.39 384.79
  A 0.09 0.08 -42.1 0 1 464.40 384.69
  L 479.37 369.71"
/>
<path stroke="#5eaa20" vector-effect="non-scaling-stroke" d="
  M 484.46 365.85
  L 488.44 363.47"
/>
<path stroke="#7ab839" vector-effect="non-scaling-stroke" d="
  M 795.34 551.64
  Q 795.57 551.61 795.22 552.23"
/>
<path stroke="#9cd24c" vector-effect="non-scaling-stroke" d="
  M 648.79 346.22
  L 648.19 354.19"
/>
<path stroke="#bde161" vector-effect="non-scaling-stroke" d="
  M 648.19 354.19
  Q 624.97 344.08 599.90 341.84"
/>
<path stroke="#94d338" vector-effect="non-scaling-stroke" d="
  M 442.97 574.98
  Q 444.62 575.78 446.99 576.08"
/>
<path stroke="#80c232" vector-effect="non-scaling-stroke" d="
  M 630.64 340.04
  Q 618.31 336.49 605.34 334.87
  A 0.87 0.84 20.6 0 0 604.54 335.22
  L 599.90 341.84"
/>
<path stroke="#b5dd58" vector-effect="non-scaling-stroke" d="
  M 599.90 341.84
  Q 599.65 341.60 599.40 341.36"
/>
<path stroke="#73ba27" vector-effect="non-scaling-stroke" d="
  M 599.40 341.36
  Q 586.12 334.59 568.94 335.95
  C 547.61 337.64 527.08 342.14 507.73 351.47"
/>
<path stroke="#73ba27" vector-effect="non-scaling-stroke" d="
  M 507.73 351.47
  L 496.03 356.77"
/>
<path stroke="#7dc12c" vector-effect="non-scaling-stroke" d="
  M 496.03 356.77
  Q 509.37 350.17 522.59 343.36
  Q 529.03 340.05 532.29 334.43
  Q 533.08 333.07 533.71 328.96
  C 534.60 323.21 536.72 317.60 537.86 311.78
  Q 541.45 293.50 544.34 280.48
  Q 544.90 277.98 544.85 273.72
  C 544.76 266.91 539.05 264.79 533.16 263.00"
/>
<path stroke="#afd956" vector-effect="non-scaling-stroke" d="
  M 599.40 341.36
  L 587.77 341.13"
/>
<path stroke="#66b024" vector-effect="non-scaling-stroke" d="
  M 587.77 341.13
  Q 589.01 340.69 590.30 340.50
  Q 590.39 340.48 590.02 340.46
  Q 580.66 340.00 567.36 338.51
  C 555.87 337.22 542.81 340.17 531.95 343.18
  C 524.83 345.15 515.82 348.76 507.73 351.47"
/>
<path stroke="#66b024" vector-effect="non-scaling-stroke" d="
  M 425.20 563.94
  L 427.75 571.44"
/>
<path stroke="#73ba27" vector-effect="non-scaling-stroke" d="
  M 445.89 407.08
  Q 440.22 415.38 436.63 424.76"
/>
<path stroke="#66b024" vector-effect="non-scaling-stroke" d="
  M 457.25 393.01
  Q 461.32 386.04 467.50 380.11"
/>
<path stroke="#5eaa20" vector-effect="non-scaling-stroke" d="
  M 457.25 393.01
  L 452.75 398.21"
/>
<path stroke="#66b024" vector-effect="non-scaling-stroke" d="
  M 452.75 398.21
  Q 450.86 400.39 448.85 402.42
  Q 448.71 402.56 448.81 402.33
  C 449.07 401.69 450.00 401.04 450.38 400.26"
/>
<path stroke="#66b024" vector-effect="non-scaling-stroke" d="
  M 438.73 421.30
  L 445.89 407.08"
/>
<path stroke="#6cb426" vector-effect="non-scaling-stroke" d="
  M 445.89 407.08
  Q 446.74 405.83 446.95 404.66"
/>
<path stroke="#57a41f" vector-effect="non-scaling-stroke" d="
  M 446.43 409.28
  L 452.75 398.21"
/>
</g>
<path fill="#000701" d="
  M 832.16 565.49
  Q 832.62 557.04 833.88 552.81
  Q 838.32 537.95 839.17 522.46
  Q 840.47 509.86 841.76 497.25
  Q 843.71 478.14 840.83 450.51
  Q 839.56 438.38 838.23 430.74
  C 837.74 427.92 837.07 426.11 836.76 424.03
  Q 836.38 421.51 835.75 419.00
  Q 833.71 410.91 832.75 406.66
  Q 831.27 400.14 829.26 394.49
  Q 825.52 384.00 822.08 374.89
  Q 817.47 362.70 810.01 349.77
  Q 802.24 336.32 793.49 324.03
  Q 791.28 320.93 790.50 319.98
  Q 788.63 317.71 787.42 315.30
  A 1.87 1.85 4.2 0 0 786.78 314.57
  Q 785.56 313.73 783.51 310.67
  Q 782.48 309.15 778.72 305.82
  A 1.46 1.11 86.3 0 1 778.52 305.59
  L 775.27 300.78
  A 1.51 1.36 -87.1 0 0 775.09 300.56
  Q 771.40 296.96 768.42 293.84
  Q 766.35 291.67 761.70 287.59
  Q 755.18 281.86 750.11 277.20
  Q 747.94 275.20 745.65 273.52
  A 2.94 2.70 -10.6 0 0 745.20 273.24
  Q 743.09 272.23 741.99 270.78
  A 2.86 2.82 -0.4 0 0 741.32 270.13
  Q 734.98 265.70 729.93 262.01
  C 726.42 259.44 723.15 257.86 719.85 255.63
  Q 716.17 253.14 712.13 250.98
  Q 701.54 245.33 697.11 242.96
  A 1.57 0.00 19.6 0 1 695.70 242.46
  Q 694.67 242.10 693.36 241.47
  Q 672.87 231.55 646.26 224.63
  Q 646.23 224.62 645.90 224.72
  A 1.01 0.95 43.2 0 1 645.35 224.72
  Q 624.89 218.73 603.28 217.17
  Q 602.06 217.08 600.81 216.97
  Q 577.13 214.81 553.44 216.39
  A 5.74 5.32 33.2 0 0 552.50 216.55
  Q 548.05 217.71 543.63 217.33
  A 1.60 1.55 -56.3 0 0 542.74 217.52
  Q 542.04 217.90 540.25 217.89
  Q 532.21 217.82 522.13 219.62
  A 3.14 3.09 27.0 0 0 521.40 219.85
  C 519.60 220.67 518.01 220.62 515.82 221.01
  Q 509.78 222.07 503.95 223.65
  Q 500.47 224.59 494.17 225.83
  Q 491.55 226.35 487.41 227.53
  Q 461.98 234.78 438.12 246.11
  Q 388.48 269.90 350.39 309.64
  Q 347.62 312.52 344.81 315.39
  C 339.96 320.32 337.11 324.29 331.94 330.41
  Q 328.52 334.45 324.76 339.74
  Q 311.47 358.40 301.59 377.30
  A 0.93 0.08 -41.3 0 1 301.09 377.82
  Q 300.97 377.93 300.88 378.12
  C 297.69 384.47 294.46 390.20 292.36 396.05
  Q 292.24 396.38 289.43 402.64
  Q 288.16 405.48 286.66 409.31
  Q 279.72 427.06 278.03 432.28
  Q 275.18 441.10 271.84 453.23
  Q 269.73 460.89 267.43 472.74
  C 264.66 487.01 261.32 502.88 259.89 518.30
  A 3.93 3.78 59.1 0 1 259.68 519.21
  C 258.76 521.65 259.24 524.22 258.43 526.68
  A 1.04 0.55 73.2 0 0 258.40 526.83
  L 257.85 534.80
  A 0.56 0.53 73.2 0 1 257.67 535.16
  Q 257.49 535.33 257.47 535.34
  A 0.55 0.53 -9.4 0 0 257.21 535.69
  L 256.13 540.25
  A 0.87 0.86 -0.1 0 1 255.47 540.90
  Q 250.77 541.98 246.46 542.01
  Q 226.33 542.14 210.31 542.00
  C 201.64 541.93 195.52 542.69 188.51 545.24
  C 176.84 549.48 169.32 559.59 166.10 571.35
  Q 165.14 574.83 165.44 578.76
  Q 165.93 585.03 166.41 586.26
  Q 169.24 593.40 170.87 596.01
  Q 172.51 598.65 172.69 599.57
  A 1.45 1.43 18.0 0 0 173.07 600.30
  Q 174.12 601.40 181.29 611.99
  C 188.67 622.92 199.02 636.62 208.74 648.55
  Q 217.06 658.77 219.34 662.08
  Q 219.91 662.91 227.32 671.76
  Q 231.12 676.30 234.34 680.53
  C 238.16 685.52 242.47 689.47 246.82 694.55
  Q 282.25 735.87 321.05 773.33
  A 5.02 4.98 82.1 0 0 322.02 774.07
  Q 323.28 774.83 323.79 775.76
  A 4.22 4.18 -83.7 0 0 324.72 776.93
  Q 332.03 783.36 335.89 786.81
  Q 339.81 790.31 343.52 792.70
  Q 346.19 794.42 352.03 797.33
  Q 355.74 799.18 361.77 799.73
  Q 369.68 800.45 377.03 799.09
  Q 380.07 798.52 381.80 797.42
  Q 382.13 797.20 383.71 797.11
  A 2.68 2.60 28.2 0 0 384.76 796.81
  Q 389.06 794.59 392.27 791.41
  Q 393.72 790.95 395.55 791.30
  Q 390.90 795.87 385.02 798.52
  Q 383.77 799.07 380.36 800.17
  Q 377.90 800.96 375.55 801.36
  Q 356.12 804.68 340.15 793.39
  Q 336.30 790.67 321.94 777.56
  Q 306.16 763.15 292.97 749.34
  Q 258.70 713.44 240.25 691.56
  Q 216.30 663.18 196.78 637.98
  Q 184.96 622.72 172.34 604.23
  Q 168.67 598.86 166.83 594.81
  Q 163.85 588.28 163.26 584.52
  Q 162.60 580.30 163.15 573.64
  Q 163.59 568.35 165.95 563.13
  Q 172.75 548.08 189.04 542.03
  Q 193.19 540.49 199.61 539.53
  Q 203.62 538.93 210.44 538.96
  Q 234.23 539.06 251.54 539.09
  Q 253.88 539.09 254.88 536.61
  A 2.33 2.24 -32.5 0 0 255.04 535.95
  Q 257.45 512.27 260.10 495.77
  Q 263.16 476.77 268.03 457.26
  Q 278.94 413.51 300.81 372.80
  Q 326.15 325.64 366.29 290.30
  Q 369.62 287.37 378.59 280.08
  Q 385.70 274.31 391.32 270.42
  Q 413.55 255.01 436.91 243.67
  Q 451.59 236.54 467.69 230.94
  Q 496.36 220.99 526.12 216.28
  Q 531.03 215.50 540.41 214.56
  Q 542.38 214.36 549.96 213.72
  Q 556.53 213.16 559.55 213.09
  Q 580.62 212.56 596.06 213.42
  Q 606.05 213.99 622.97 216.60
  Q 638.18 218.95 658.95 225.16
  Q 709.31 240.23 751.47 274.58
  Q 775.46 294.12 794.37 319.89
  Q 828.11 365.84 839.50 421.71
  Q 842.17 434.82 842.80 441.78
  Q 843.19 446.00 843.28 446.46
  C 844.16 450.82 843.93 453.58 844.56 458.53
  Q 844.97 461.73 844.99 465.99
  Q 845.04 474.98 845.01 486.91
  C 844.99 493.68 843.92 500.25 843.88 506.27
  A 5.64 5.50 -38.2 0 1 843.69 507.71
  Q 843.29 509.18 843.27 510.01
  Q 843.10 515.92 840.36 531.37
  Q 836.92 550.79 832.16 565.49
  Z"
/>
<path fill="#1c5d0c" d="
  M 839.17 522.46
  C 837.05 533.06 835.13 545.01 832.37 554.31
  Q 827.85 569.52 821.91 583.17
  C 819.19 589.43 816.69 594.95 811.90 598.62
  C 808.10 601.54 801.13 605.48 795.47 606.46
  C 790.98 607.23 788.09 608.47 784.02 608.16
  Q 779.09 607.78 777.75 607.27
  Q 776.52 606.80 770.37 603.43
  A 11.60 11.29 81.8 0 1 767.59 601.29
  C 764.31 597.87 760.91 594.92 758.83 590.75
  Q 756.36 585.80 755.77 582.97
  Q 754.00 574.37 753.34 572.18
  A 9.64 9.27 -54.9 0 1 752.94 569.59
  Q 752.89 565.68 752.48 563.82
  Q 750.79 556.02 749.29 547.80
  Q 748.03 540.89 745.21 532.03
  Q 741.41 520.08 737.30 508.20
  Q 743.87 524.04 746.64 533.65
  Q 747.83 537.77 752.89 559.37
  C 754.72 567.17 755.28 574.57 757.21 582.25
  C 757.95 585.19 759.16 588.93 761.42 590.79
  Q 762.05 591.32 762.56 590.73
  Q 762.92 590.32 762.92 589.49
  C 768.46 596.87 775.99 603.12 785.45 603.59
  Q 800.25 604.33 809.81 595.48
  Q 814.33 591.29 818.13 582.95
  C 824.05 569.98 828.27 555.11 830.57 543.31
  Q 833.79 526.80 836.20 503.46
  Q 837.12 494.64 837.09 487.96
  C 837.04 471.61 837.30 463.57 835.74 451.02
  Q 833.76 435.07 830.43 417.54
  Q 829.09 410.44 827.97 407.10
  Q 826.98 404.16 821.91 388.33
  Q 814.50 365.15 800.73 343.75
  Q 793.51 332.52 788.43 324.82
  C 783.62 317.55 774.43 307.25 766.64 299.15
  Q 748.64 280.44 729.36 267.40
  C 725.28 264.65 721.58 262.69 717.86 259.99
  Q 714.36 257.46 709.15 254.61
  C 698.87 249.01 686.31 242.55 674.10 238.25
  Q 661.83 233.94 658.42 232.86
  Q 624.02 222.03 588.02 220.46
  Q 529.83 217.92 475.49 235.68
  C 465.05 239.10 453.26 244.01 442.23 248.43
  Q 442.72 247.40 442.47 246.77
  Q 442.21 246.16 441.03 246.07
  Q 439.70 245.97 438.12 246.11
  Q 461.98 234.78 487.41 227.53
  Q 491.55 226.35 494.17 225.83
  Q 500.47 224.59 503.95 223.65
  Q 509.78 222.07 515.82 221.01
  C 518.01 220.62 519.60 220.67 521.40 219.85
  A 3.14 3.09 27.0 0 1 522.13 219.62
  Q 532.21 217.82 540.25 217.89
  Q 542.04 217.90 542.74 217.52
  A 1.60 1.55 -56.3 0 1 543.63 217.33
  Q 548.05 217.71 552.50 216.55
  A 5.74 5.32 33.2 0 1 553.44 216.39
  Q 577.13 214.81 600.81 216.97
  Q 602.06 217.08 603.28 217.17
  Q 624.89 218.73 645.35 224.72
  A 1.01 0.95 43.2 0 0 645.90 224.72
  Q 646.23 224.62 646.26 224.63
  Q 672.87 231.55 693.36 241.47
  Q 694.67 242.10 695.70 242.46
  A 1.57 0.00 19.6 0 0 697.11 242.96
  Q 701.54 245.33 712.13 250.98
  Q 716.17 253.14 719.85 255.63
  C 723.15 257.86 726.42 259.44 729.93 262.01
  Q 734.98 265.70 741.32 270.13
  A 2.86 2.82 -0.4 0 1 741.99 270.78
  Q 743.09 272.23 745.20 273.24
  A 2.94 2.70 -10.6 0 1 745.65 273.52
  Q 747.94 275.20 750.11 277.20
  Q 755.18 281.86 761.70 287.59
  Q 766.35 291.67 768.42 293.84
  Q 771.40 296.96 775.09 300.56
  A 1.51 1.36 -87.1 0 1 775.27 300.78
  L 778.52 305.59
  A 1.46 1.11 86.3 0 0 778.72 305.82
  Q 782.48 309.15 783.51 310.67
  Q 785.56 313.73 786.78 314.57
  A 1.87 1.85 4.2 0 1 787.42 315.30
  Q 788.63 317.71 790.50 319.98
  Q 791.28 320.93 793.49 324.03
  Q 802.24 336.32 810.01 349.77
  Q 817.47 362.70 822.08 374.89
  Q 825.52 384.00 829.26 394.49
  Q 831.27 400.14 832.75 406.66
  Q 833.71 410.91 835.75 419.00
  Q 836.38 421.51 836.76 424.03
  C 837.07 426.11 837.74 427.92 838.23 430.74
  Q 839.56 438.38 840.83 450.51
  Q 843.71 478.14 841.76 497.25
  Q 840.47 509.86 839.17 522.46
  Z"
/>
<path fill="#035200" d="
  M 762.92 589.49
  Q 759.33 584.02 758.42 577.18
  Q 756.93 565.82 755.11 555.85
  Q 754.40 551.98 748.99 531.08
  Q 748.14 527.80 747.39 525.85
  C 745.65 521.37 744.88 517.54 742.87 512.99
  Q 742.26 511.59 739.16 503.32
  Q 730.55 480.36 713.45 454.22
  C 708.93 447.31 702.61 439.73 697.18 433.37
  Q 683.72 417.59 666.61 404.02
  Q 661.56 400.02 656.01 396.47
  Q 646.91 390.65 644.97 389.56
  Q 640.52 387.06 631.07 382.92
  C 617.73 377.08 601.99 374.00 587.80 373.18
  Q 581.53 372.82 575.50 373.50
  C 561.51 375.07 548.34 377.42 535.87 382.33
  C 515.18 390.48 496.67 404.88 484.05 423.30
  Q 476.79 433.92 470.71 448.45
  Q 470.22 449.64 466.28 462.44
  Q 463.70 470.83 462.63 476.60
  Q 457.14 506.09 461.24 535.75
  Q 462.61 545.70 473.17 545.37
  Q 486.28 544.96 502.73 545.07
  C 519.70 545.18 531.37 546.03 542.86 556.62
  Q 556.81 569.46 554.70 588.78
  Q 553.97 595.50 550.38 601.14
  Q 544.84 609.83 539.11 616.84
  C 533.27 623.98 528.08 631.85 522.54 638.30
  Q 517.55 644.10 489.24 677.77
  C 484.05 683.95 477.64 690.02 472.61 696.09
  Q 459.92 711.41 448.50 723.58
  C 441.23 731.33 433.95 740.34 427.45 747.17
  Q 422.60 752.27 411.45 764.70
  C 403.86 773.16 396.24 781.96 387.47 789.07
  Q 397.89 777.31 402.32 770.71
  C 408.75 761.15 413.26 754.19 419.00 746.80
  C 427.38 736.02 439.15 721.38 449.08 707.05
  C 469.60 677.43 490.59 653.54 516.44 623.65
  C 525.40 613.29 539.23 597.01 533.90 582.92
  C 526.73 563.97 498.81 563.44 481.90 562.91
  C 468.39 562.49 456.81 560.01 451.37 545.74
  C 447.72 536.14 446.95 525.42 446.82 515.21
  Q 446.52 491.59 450.57 467.23
  C 455.19 439.45 468.06 415.86 487.59 395.39
  C 530.08 350.84 597.06 341.08 652.43 367.03
  Q 667.65 374.17 679.06 381.71
  C 703.90 398.12 723.95 421.66 739.56 447.19
  C 748.01 461.02 755.96 474.29 765.74 488.01
  Q 772.29 504.26 774.67 512.10
  Q 778.86 525.90 782.93 547.77
  Q 785.59 562.03 786.74 576.57
  Q 786.90 578.21 787.75 579.79
  A 0.44 0.44 0.0 0 0 788.39 579.95
  Q 794.39 575.77 798.26 572.09
  C 807.41 563.39 812.29 551.28 815.59 538.95
  C 825.36 502.52 824.86 463.51 817.54 426.73
  C 809.62 387.00 790.42 350.05 764.61 319.39
  Q 735.20 284.45 694.47 266.24
  C 663.80 252.53 628.03 243.13 593.58 242.02
  C 562.47 241.02 531.84 244.76 501.37 251.79
  Q 481.29 256.42 463.69 264.58
  C 446.56 272.53 427.94 282.09 412.30 293.85
  C 402.31 301.36 391.60 309.87 382.93 318.23
  Q 370.97 329.76 361.85 345.40
  Q 354.80 354.13 348.13 363.38
  Q 336.85 379.04 328.86 394.09
  C 325.38 400.66 320.77 409.17 317.46 416.88
  Q 305.71 444.21 298.98 471.49
  Q 291.37 502.30 286.47 544.29
  C 285.77 550.33 285.97 554.25 284.85 561.41
  C 283.94 567.23 278.33 572.85 272.15 573.13
  A 0.68 0.68 0.0 0 0 271.62 574.19
  Q 271.77 574.41 272.34 574.58
  Q 271.22 574.85 270.12 574.86
  Q 238.35 575.24 206.93 574.75
  Q 204.87 572.80 201.01 575.77
  Q 197.58 578.40 197.78 582.15
  Q 197.90 584.56 200.82 588.84
  Q 217.67 613.62 237.41 638.60
  Q 246.13 649.64 253.71 658.80
  Q 266.34 674.06 294.17 705.08
  Q 306.27 718.57 332.55 744.17
  C 340.87 755.93 349.58 765.43 361.10 771.71
  Q 371.16 777.20 371.87 777.61
  C 385.16 785.26 360.29 792.74 356.37 793.72
  Q 348.18 791.16 344.74 788.50
  Q 341.87 786.28 321.25 767.47
  Q 308.59 755.92 300.99 747.76
  C 296.68 743.15 287.11 733.18 280.16 725.34
  Q 276.43 721.14 270.84 715.42
  Q 260.69 705.01 246.52 688.11
  Q 246.49 688.08 236.99 676.87
  Q 229.50 668.03 224.80 662.18
  Q 196.68 627.18 182.89 607.39
  Q 179.89 603.09 177.60 599.56
  Q 177.57 599.51 175.31 596.10
  Q 169.01 586.61 169.85 576.04
  C 170.89 562.92 180.19 552.91 192.18 547.99
  Q 197.21 545.92 208.57 545.40
  Q 222.64 544.76 237.59 544.97
  Q 241.79 545.03 242.93 544.93
  Q 247.42 544.56 248.26 544.60
  C 253.75 544.83 258.00 543.87 260.53 539.32
  Q 261.54 537.51 261.98 533.30
  C 262.81 525.27 263.43 517.56 264.48 511.36
  Q 269.97 478.74 272.51 467.90
  Q 277.10 448.29 280.30 438.26
  Q 291.45 403.38 309.29 371.76
  Q 325.26 343.47 344.73 321.46
  Q 372.66 289.88 409.14 266.39
  Q 417.28 261.15 442.23 248.43
  C 453.26 244.01 465.05 239.10 475.49 235.68
  Q 529.83 217.92 588.02 220.46
  Q 624.02 222.03 658.42 232.86
  Q 661.83 233.94 674.10 238.25
  C 686.31 242.55 698.87 249.01 709.15 254.61
  Q 714.36 257.46 717.86 259.99
  C 721.58 262.69 725.28 264.65 729.36 267.40
  Q 748.64 280.44 766.64 299.15
  C 774.43 307.25 783.62 317.55 788.43 324.82
  Q 793.51 332.52 800.73 343.75
  Q 814.50 365.15 821.91 388.33
  Q 826.98 404.16 827.97 407.10
  Q 829.09 410.44 830.43 417.54
  Q 833.76 435.07 835.74 451.02
  C 837.30 463.57 837.04 471.61 837.09 487.96
  Q 837.12 494.64 836.20 503.46
  Q 833.79 526.80 830.57 543.31
  C 828.27 555.11 824.05 569.98 818.13 582.95
  Q 814.33 591.29 809.81 595.48
  Q 800.25 604.33 785.45 603.59
  C 775.99 603.12 768.46 596.87 762.92 589.49
  Z"
/>
<path fill="#014800" d="
  M 786.74 576.57
  Q 786.84 578.23 789.10 577.92
  A 1.32 1.29 15.6 0 0 789.92 577.47
  Q 790.92 576.26 791.03 574.81
  Q 800.58 562.63 805.32 550.72
  C 811.82 534.40 814.75 516.45 816.29 497.70
  C 820.55 445.78 806.99 392.54 779.50 348.45
  C 768.91 331.48 755.60 316.19 740.88 303.03
  Q 723.46 287.46 705.84 278.10
  Q 667.95 257.96 624.97 251.19
  Q 608.26 248.56 593.55 249.68
  Q 560.80 247.35 528.44 252.19
  Q 488.13 258.22 451.30 275.85
  Q 427.18 287.41 406.13 303.90
  C 402.29 306.91 398.10 309.93 394.73 312.86
  Q 387.85 318.86 380.78 325.06
  Q 376.01 329.23 361.85 345.40
  Q 370.97 329.76 382.93 318.23
  C 391.60 309.87 402.31 301.36 412.30 293.85
  C 427.94 282.09 446.56 272.53 463.69 264.58
  Q 481.29 256.42 501.37 251.79
  C 531.84 244.76 562.47 241.02 593.58 242.02
  C 628.03 243.13 663.80 252.53 694.47 266.24
  Q 735.20 284.45 764.61 319.39
  C 790.42 350.05 809.62 387.00 817.54 426.73
  C 824.86 463.51 825.36 502.52 815.59 538.95
  C 812.29 551.28 807.41 563.39 798.26 572.09
  Q 794.39 575.77 788.39 579.95
  A 0.44 0.44 0.0 0 1 787.75 579.79
  Q 786.90 578.21 786.74 576.57
  Z"
/>
<path fill="#2d7715" d="
  M 442.23 248.43
  Q 417.28 261.15 409.14 266.39
  Q 372.66 289.88 344.73 321.46
  Q 325.26 343.47 309.29 371.76
  Q 291.45 403.38 280.30 438.26
  Q 277.10 448.29 272.51 467.90
  Q 269.97 478.74 264.48 511.36
  C 263.43 517.56 262.81 525.27 261.98 533.30
  Q 261.54 537.51 260.53 539.32
  C 258.00 543.87 253.75 544.83 248.26 544.60
  Q 247.42 544.56 242.93 544.93
  Q 241.79 545.03 237.59 544.97
  Q 222.64 544.76 208.57 545.40
  Q 197.21 545.92 192.18 547.99
  C 180.19 552.91 170.89 562.92 169.85 576.04
  Q 169.01 586.61 175.31 596.10
  Q 177.57 599.51 177.60 599.56
  Q 179.89 603.09 182.89 607.39
  Q 196.68 627.18 224.80 662.18
  Q 229.50 668.03 236.99 676.87
  Q 246.49 688.08 246.52 688.11
  Q 260.69 705.01 270.84 715.42
  Q 276.43 721.14 280.16 725.34
  C 287.11 733.18 296.68 743.15 300.99 747.76
  Q 308.59 755.92 321.25 767.47
  Q 341.87 786.28 344.74 788.50
  Q 348.18 791.16 356.37 793.72
  Q 373.69 798.15 387.47 789.07
  C 396.24 781.96 403.86 773.16 411.45 764.70
  Q 422.60 752.27 427.45 747.17
  C 433.95 740.34 441.23 731.33 448.50 723.58
  Q 459.92 711.41 472.61 696.09
  C 477.64 690.02 484.05 683.95 489.24 677.77
  Q 517.55 644.10 522.54 638.30
  C 528.08 631.85 533.27 623.98 539.11 616.84
  Q 544.84 609.83 550.38 601.14
  Q 553.97 595.50 554.70 588.78
  Q 556.81 569.46 542.86 556.62
  C 531.37 546.03 519.70 545.18 502.73 545.07
  Q 486.28 544.96 473.17 545.37
  Q 462.61 545.70 461.24 535.75
  Q 457.14 506.09 462.63 476.60
  Q 463.70 470.83 466.28 462.44
  Q 470.22 449.64 470.71 448.45
  Q 476.79 433.92 484.05 423.30
  C 496.67 404.88 515.18 390.48 535.87 382.33
  C 548.34 377.42 561.51 375.07 575.50 373.50
  Q 581.53 372.82 587.80 373.18
  C 601.99 374.00 617.73 377.08 631.07 382.92
  Q 640.52 387.06 644.97 389.56
  Q 646.91 390.65 656.01 396.47
  Q 661.56 400.02 666.61 404.02
  Q 683.72 417.59 697.18 433.37
  C 702.61 439.73 708.93 447.31 713.45 454.22
  Q 730.55 480.36 739.16 503.32
  Q 742.26 511.59 742.87 512.99
  C 744.88 517.54 745.65 521.37 747.39 525.85
  Q 748.14 527.80 748.99 531.08
  Q 754.40 551.98 755.11 555.85
  Q 756.93 565.82 758.42 577.18
  Q 759.33 584.02 762.92 589.49
  Q 762.92 590.32 762.56 590.73
  Q 762.05 591.32 761.42 590.79
  C 759.16 588.93 757.95 585.19 757.21 582.25
  C 755.28 574.57 754.72 567.17 752.89 559.37
  Q 747.83 537.77 746.64 533.65
  Q 743.87 524.04 737.30 508.20
  Q 735.71 504.23 733.94 500.30
  Q 725.75 482.16 716.25 465.83
  Q 711.43 457.55 706.20 450.55
  Q 697.29 438.63 694.74 435.89
  Q 680.47 420.58 678.13 418.50
  C 665.02 406.88 651.25 396.15 635.97 389.36
  Q 618.13 381.44 597.24 378.33
  Q 591.16 377.43 584.71 377.57
  C 569.92 377.90 553.95 379.72 539.96 384.99
  C 527.33 389.73 515.52 395.07 505.81 403.82
  Q 482.17 425.11 472.15 455.41
  Q 466.76 471.71 465.96 486.31
  Q 465.74 490.25 465.57 491.66
  Q 465.03 496.00 464.89 497.00
  Q 464.38 500.59 464.26 505.03
  Q 463.90 518.75 464.65 531.00
  C 465.12 538.67 466.09 541.87 474.26 541.89
  Q 476.51 541.90 513.75 541.82
  Q 514.94 541.82 520.77 542.17
  A 3.72 3.59 57.3 0 1 521.95 542.45
  Q 523.20 542.99 524.57 542.89
  A 2.43 2.36 49.9 0 1 525.38 542.97
  L 531.41 544.65
  A 0.62 0.46 53.3 0 1 531.51 544.68
  L 538.06 547.67
  A 12.07 11.56 -12.5 0 1 540.42 549.10
  C 544.39 552.19 548.39 554.93 550.90 558.92
  C 553.64 563.28 557.15 569.51 558.06 574.96
  C 560.35 588.66 556.70 599.87 548.48 610.48
  Q 541.29 619.77 524.04 641.58
  Q 520.03 646.64 514.91 652.42
  Q 507.92 660.30 505.71 663.20
  Q 498.00 673.33 492.38 679.38
  Q 478.71 694.10 469.83 705.17
  C 465.91 710.06 462.06 713.50 458.08 718.08
  C 454.52 722.17 447.52 728.49 443.17 734.16
  Q 439.21 739.30 435.91 742.69
  C 429.53 749.25 422.84 757.22 418.18 761.98
  Q 413.22 767.03 407.38 774.04
  Q 398.87 784.26 396.78 786.28
  Q 393.61 789.34 392.27 791.41
  Q 389.06 794.59 384.76 796.81
  A 2.68 2.60 28.2 0 1 383.71 797.11
  Q 382.13 797.20 381.80 797.42
  Q 380.07 798.52 377.03 799.09
  Q 369.68 800.45 361.77 799.73
  Q 355.74 799.18 352.03 797.33
  Q 346.19 794.42 343.52 792.70
  Q 339.81 790.31 335.89 786.81
  Q 332.03 783.36 324.72 776.93
  A 4.22 4.18 -83.7 0 1 323.79 775.76
  Q 323.28 774.83 322.02 774.07
  A 5.02 4.98 82.1 0 1 321.05 773.33
  Q 282.25 735.87 246.82 694.55
  C 242.47 689.47 238.16 685.52 234.34 680.53
  Q 231.12 676.30 227.32 671.76
  Q 219.91 662.91 219.34 662.08
  Q 217.06 658.77 208.74 648.55
  C 199.02 636.62 188.67 622.92 181.29 611.99
  Q 174.12 601.40 173.07 600.30
  A 1.45 1.43 18.0 0 1 172.69 599.57
  Q 172.51 598.65 170.87 596.01
  Q 169.24 593.40 166.41 586.26
  Q 165.93 585.03 165.44 578.76
  Q 165.14 574.83 166.10 571.35
  C 169.32 559.59 176.84 549.48 188.51 545.24
  C 195.52 542.69 201.64 541.93 210.31 542.00
  Q 226.33 542.14 246.46 542.01
  Q 250.77 541.98 255.47 540.90
  A 0.87 0.86 -0.1 0 0 256.13 540.25
  L 257.21 535.69
  A 0.55 0.53 -9.4 0 1 257.47 535.34
  Q 257.49 535.33 257.67 535.16
  A 0.56 0.53 73.2 0 0 257.85 534.80
  L 258.40 526.83
  A 1.04 0.55 73.2 0 1 258.43 526.68
  C 259.24 524.22 258.76 521.65 259.68 519.21
  A 3.93 3.78 59.1 0 0 259.89 518.30
  C 261.32 502.88 264.66 487.01 267.43 472.74
  Q 269.73 460.89 271.84 453.23
  Q 275.18 441.10 278.03 432.28
  Q 279.72 427.06 286.66 409.31
  Q 288.16 405.48 289.43 402.64
  Q 292.24 396.38 292.36 396.05
  C 294.46 390.20 297.69 384.47 300.88 378.12
  Q 300.97 377.93 301.09 377.82
  A 0.93 0.08 -41.3 0 0 301.59 377.30
  Q 311.47 358.40 324.76 339.74
  Q 328.52 334.45 331.94 330.41
  C 337.11 324.29 339.96 320.32 344.81 315.39
  Q 347.62 312.52 350.39 309.64
  Q 388.48 269.90 438.12 246.11
  Q 439.70 245.97 441.03 246.07
  Q 442.21 246.16 442.47 246.77
  Q 442.72 247.40 442.23 248.43
  Z"
/>
<path fill="#003a00" d="
  M 791.03 574.81
  Q 793.68 565.75 796.54 556.86
  Q 800.59 544.26 801.80 538.84
  Q 804.32 527.57 806.35 514.03
  Q 807.97 503.23 808.14 488.90
  Q 808.38 467.42 807.78 459.65
  Q 805.60 431.24 795.66 401.40
  Q 790.76 386.68 783.48 372.53
  Q 774.94 355.91 767.53 345.50
  Q 735.03 299.84 685.04 274.25
  Q 681.88 272.63 662.43 264.44
  C 661.66 264.11 660.66 264.06 659.77 263.72
  Q 649.79 259.96 641.84 257.82
  Q 618.08 251.44 593.55 249.68
  Q 608.26 248.56 624.97 251.19
  Q 667.95 257.96 705.84 278.10
  Q 723.46 287.46 740.88 303.03
  C 755.60 316.19 768.91 331.48 779.50 348.45
  C 806.99 392.54 820.55 445.78 816.29 497.70
  C 814.75 516.45 811.82 534.40 805.32 550.72
  Q 800.58 562.63 791.03 574.81
  Z"
/>
<path fill="#000701" d="
  M 593.55 249.68
  Q 618.08 251.44 641.84 257.82
  Q 649.79 259.96 659.77 263.72
  C 660.66 264.06 661.66 264.11 662.43 264.44
  Q 681.88 272.63 685.04 274.25
  Q 735.03 299.84 767.53 345.50
  Q 774.94 355.91 783.48 372.53
  Q 790.76 386.68 795.66 401.40
  Q 805.60 431.24 807.78 459.65
  Q 808.38 467.42 808.14 488.90
  Q 807.97 503.23 806.35 514.03
  Q 804.32 527.57 801.80 538.84
  Q 800.59 544.26 796.54 556.86
  Q 793.68 565.75 791.03 574.81
  Q 790.92 576.26 789.92 577.47
  A 1.32 1.29 15.6 0 1 789.10 577.92
  Q 786.84 578.23 786.74 576.57
  Q 785.59 562.03 782.93 547.77
  Q 778.86 525.90 774.67 512.10
  Q 772.29 504.26 765.74 488.01
  Q 746.51 439.92 711.62 402.16
  C 704.35 394.29 696.40 387.34 688.03 380.72
  Q 658.77 357.59 622.84 348.39
  Q 607.11 344.79 595.72 344.10
  Q 580.15 343.15 561.09 345.47
  C 538.05 348.26 515.26 356.56 496.58 368.49
  Q 487.41 374.35 479.98 381.30
  Q 470.61 390.08 465.39 396.39
  C 439.91 427.24 430.59 467.63 430.26 507.01
  Q 430.23 511.41 430.56 523.39
  C 430.77 531.31 431.76 537.82 432.67 546.74
  Q 433.66 556.38 434.57 560.51
  C 436.54 569.50 440.64 573.99 450.37 573.07
  L 515.96 573.36
  C 522.16 574.58 527.25 579.15 524.32 586.03
  A 1.17 1.08 -16.1 0 1 524.12 586.36
  Q 508.58 605.68 491.69 627.19
  Q 487.91 631.99 464.76 659.28
  Q 459.17 665.87 449.56 676.57
  C 439.63 687.62 427.56 701.59 416.64 712.88
  Q 415.89 713.65 415.06 714.57
  Q 386.84 745.81 372.28 762.53
  Q 370.46 764.63 366.39 766.97
  Q 362.61 768.29 358.88 767.16
  Q 356.23 766.37 352.54 763.07
  Q 349.66 760.51 346.89 757.83
  Q 339.78 750.93 332.55 744.17
  Q 306.27 718.57 294.17 705.08
  Q 266.34 674.06 253.71 658.80
  Q 246.13 649.64 237.41 638.60
  Q 217.67 613.62 200.82 588.84
  Q 197.90 584.56 197.78 582.15
  Q 197.58 578.40 201.01 575.77
  Q 204.87 572.80 206.93 574.75
  C 201.40 575.23 196.64 580.42 200.06 585.67
  Q 207.44 596.99 220.59 614.67
  Q 279.55 693.95 352.92 761.83
  Q 357.89 766.44 364.06 766.08
  Q 368.43 764.98 371.59 761.34
  Q 394.96 734.45 418.55 709.01
  C 430.82 695.76 439.74 685.49 450.67 673.37
  C 460.76 662.19 471.44 649.33 481.46 637.48
  Q 492.26 624.70 512.42 598.77
  Q 514.51 596.08 517.93 592.06
  C 521.44 587.93 526.68 582.86 522.24 578.18
  C 519.61 575.08 515.78 574.56 511.74 574.58
  Q 478.87 574.67 446.00 574.38
  Q 444.14 574.36 442.26 573.74
  C 435.90 571.18 433.79 564.96 432.84 558.72
  C 423.51 497.58 427.82 430.24 474.85 384.18
  C 497.54 361.95 526.32 349.70 557.59 344.30
  C 584.23 340.35 610.88 342.06 636.42 350.88
  Q 666.02 361.10 691.30 381.67
  Q 703.96 391.97 713.10 401.90
  Q 740.41 431.55 758.24 467.98
  Q 771.83 495.75 778.62 521.36
  Q 784.91 545.07 787.70 570.00
  Q 788.06 573.24 788.02 576.77
  A 0.46 0.46 0.0 0 0 788.89 576.97
  Q 790.39 573.87 790.30 571.48
  L 796.31 552.79
  Q 797.91 548.61 799.00 544.24
  Q 809.35 502.77 806.31 460.99
  C 802.69 411.32 783.78 363.51 750.79 326.53
  Q 730.58 303.89 706.87 288.36
  Q 670.60 264.61 625.97 255.63
  Q 623.33 255.19 620.61 254.71
  Q 572.95 246.36 525.24 254.26
  Q 485.42 260.85 452.80 276.55
  C 425.67 289.61 400.17 307.88 378.90 328.90
  Q 367.75 339.91 356.14 354.60
  Q 330.88 387.24 316.65 421.89
  C 298.84 465.26 290.39 511.77 286.65 558.47
  C 285.98 566.78 280.91 573.38 272.34 574.58
  Q 271.77 574.41 271.62 574.19
  A 0.68 0.68 0.0 0 1 272.15 573.13
  C 278.33 572.85 283.94 567.23 284.85 561.41
  C 285.97 554.25 285.77 550.33 286.47 544.29
  Q 291.37 502.30 298.98 471.49
  Q 305.71 444.21 317.46 416.88
  C 320.77 409.17 325.38 400.66 328.86 394.09
  Q 336.85 379.04 348.13 363.38
  Q 354.80 354.13 361.85 345.40
  Q 376.01 329.23 380.78 325.06
  Q 387.85 318.86 394.73 312.86
  C 398.10 309.93 402.29 306.91 406.13 303.90
  Q 427.18 287.41 451.30 275.85
  Q 488.13 258.22 528.44 252.19
  Q 560.80 247.35 593.55 249.68
  Z"
/>
<path fill="#caee72" d="
  M 625.97 255.63
  Q 625.83 256.18 625.50 256.51
  Q 614.06 254.57 602.50 253.19
  Q 598.14 252.67 593.66 252.52
  C 584.93 251.40 573.39 251.86 566.99 251.85
  Q 557.16 251.84 549.54 252.55
  Q 528.91 254.48 511.39 258.14
  Q 473.20 266.12 438.46 285.48
  Q 427.95 291.38 420.64 296.41
  Q 413.61 301.24 400.24 311.52
  C 396.58 314.34 393.88 317.25 390.19 320.09
  A 0.68 0.68 0.0 0 0 390.02 320.96
  L 392.03 324.43
  A 1.36 1.34 72.6 0 0 393.31 325.11
  Q 396.46 324.87 398.88 322.78
  Q 416.64 307.41 436.96 295.54
  Q 440.34 293.56 443.37 293.22
  Q 421.44 305.29 402.03 322.28
  Q 382.84 339.07 367.39 357.78
  Q 348.13 382.15 334.27 409.83
  Q 327.01 424.34 321.13 440.92
  C 309.56 473.53 302.76 507.35 299.02 542.25
  Q 297.96 552.11 297.69 557.40
  Q 297.15 559.22 296.58 564.30
  Q 296.15 568.10 293.64 573.14
  Q 289.18 582.13 279.79 584.09
  Q 276.51 580.34 275.16 575.54
  Q 286.63 570.86 288.15 559.02
  Q 288.77 554.17 289.73 543.57
  Q 290.60 534.06 291.41 528.12
  Q 294.62 504.62 299.04 483.10
  A 2.77 2.74 63.1 0 1 299.22 482.54
  Q 300.10 480.58 300.15 478.41
  A 3.49 3.47 -36.1 0 1 300.30 477.47
  Q 300.78 475.90 302.44 469.10
  Q 306.27 453.51 314.95 429.89
  Q 320.04 416.07 329.23 398.77
  Q 341.73 375.26 356.51 356.25
  Q 356.84 355.83 357.04 355.13
  A 0.45 0.45 0.0 0 0 356.56 354.56
  L 356.14 354.60
  Q 367.75 339.91 378.90 328.90
  C 400.17 307.88 425.67 289.61 452.80 276.55
  Q 485.42 260.85 525.24 254.26
  Q 572.95 246.36 620.61 254.71
  Q 623.33 255.19 625.97 255.63
  Z"
/>
<path fill="#95cf40" d="
  M 593.66 252.52
  L 606.03 255.69
  A 4.63 4.30 -25.3 0 1 606.69 255.90
  Q 609.24 256.93 612.78 258.54
  C 617.96 260.89 624.00 262.26 629.70 263.59
  Q 631.21 263.94 636.95 266.09
  L 620.60 262.42
  A 5.51 5.30 48.4 0 0 618.97 262.29
  C 616.06 262.47 614.07 263.06 610.66 262.58
  Q 602.02 261.36 593.41 260.31
  Q 586.39 259.46 576.06 259.55
  Q 561.70 259.67 547.40 260.98
  Q 540.27 261.63 533.16 263.00
  Q 499.78 267.69 468.64 280.52
  C 462.37 281.53 457.10 283.57 450.53 283.25
  Q 444.43 282.96 438.46 285.48
  Q 473.20 266.12 511.39 258.14
  Q 528.91 254.48 549.54 252.55
  Q 557.16 251.84 566.99 251.85
  C 573.39 251.86 584.93 251.40 593.66 252.52
  Z"
/>
<path fill="#6db624" d="
  M 625.50 256.51
  L 648.05 262.43
  C 652.88 265.83 659.06 268.04 666.42 271.09
  Q 667.36 271.48 671.07 274.85
  C 675.70 279.06 680.48 281.24 688.20 285.41
  Q 695.09 289.13 700.12 292.61
  Q 718.11 305.06 726.79 312.62
  C 749.50 332.39 767.02 357.31 779.49 386.00
  Q 783.61 395.49 785.09 400.08
  C 790.22 416.04 794.56 429.63 796.51 443.38
  Q 798.08 454.47 798.97 463.41
  Q 799.62 469.93 799.33 483.60
  C 799.05 496.56 799.08 504.65 797.32 514.98
  C 795.70 524.43 795.17 529.04 793.37 541.97
  Q 792.60 547.47 795.22 552.23
  L 791.52 562.63
  A 0.14 0.13 16.8 0 1 791.36 562.71
  L 791.12 562.64
  A 0.32 0.32 0.0 0 1 790.89 562.26
  Q 793.24 552.06 792.28 542.69
  Q 790.41 524.43 783.98 504.24
  Q 767.97 453.93 735.96 413.26
  Q 725.92 400.49 716.20 390.80
  C 697.03 371.68 673.30 355.48 648.79 346.22
  L 630.64 340.04
  C 637.21 336.25 641.63 332.90 643.94 326.52
  Q 648.06 315.16 650.31 304.22
  C 652.96 291.31 656.19 283.00 668.15 277.72
  A 0.28 0.28 0.0 0 0 668.18 277.23
  Q 664.24 274.83 660.12 273.40
  Q 648.64 269.40 636.95 266.09
  Q 631.21 263.94 629.70 263.59
  C 624.00 262.26 617.96 260.89 612.78 258.54
  Q 609.24 256.93 606.69 255.90
  A 4.63 4.30 -25.3 0 0 606.03 255.69
  L 593.66 252.52
  Q 598.14 252.67 602.50 253.19
  Q 614.06 254.57 625.50 256.51
  Z"
/>
<path fill="#5dc51b" d="
  M 796.31 552.79
  Q 796.07 552.23 795.34 551.64
  Q 797.10 546.77 798.32 541.72
  Q 806.31 508.70 805.75 475.14
  Q 805.18 440.41 795.49 409.00
  Q 786.80 380.85 770.97 354.96
  Q 767.46 349.21 762.33 342.29
  Q 757.13 335.25 752.73 330.28
  C 749.12 326.20 744.99 321.37 741.30 317.74
  Q 716.10 292.99 686.11 277.68
  Q 669.38 269.15 648.05 262.43
  L 625.50 256.51
  Q 625.83 256.18 625.97 255.63
  Q 670.60 264.61 706.87 288.36
  Q 730.58 303.89 750.79 326.53
  C 783.78 363.51 802.69 411.32 806.31 460.99
  Q 809.35 502.77 799.00 544.24
  Q 797.91 548.61 796.31 552.79
  Z"
/>
<path fill="#78be29" d="
  M 636.95 266.09
  Q 648.64 269.40 660.12 273.40
  Q 664.24 274.83 668.18 277.23
  A 0.28 0.28 0.0 0 1 668.15 277.72
  C 656.19 283.00 652.96 291.31 650.31 304.22
  Q 648.06 315.16 643.94 326.52
  C 641.63 332.90 637.21 336.25 630.64 340.04
  Q 618.31 336.49 605.34 334.87
  A 0.87 0.84 20.6 0 0 604.54 335.22
  L 599.90 341.84
  Q 599.65 341.60 599.40 341.36
  Q 586.12 334.59 568.94 335.95
  C 547.61 337.64 527.08 342.14 507.73 351.47
  L 496.03 356.77
  Q 509.37 350.17 522.59 343.36
  Q 529.03 340.05 532.29 334.43
  Q 533.08 333.07 533.71 328.96
  C 534.60 323.21 536.72 317.60 537.86 311.78
  Q 541.45 293.50 544.34 280.48
  Q 544.90 277.98 544.85 273.72
  C 544.76 266.91 539.05 264.79 533.16 263.00
  Q 540.27 261.63 547.40 260.98
  Q 561.70 259.67 576.06 259.55
  Q 586.39 259.46 593.41 260.31
  Q 602.02 261.36 610.66 262.58
  C 614.07 263.06 616.06 262.47 618.97 262.29
  A 5.51 5.30 48.4 0 1 620.60 262.42
  L 636.95 266.09
  Z"
/>
<path fill="#449215" d="
  M 795.34 551.64
  Q 795.57 551.61 795.22 552.23
  Q 792.60 547.47 793.37 541.97
  C 795.17 529.04 795.70 524.43 797.32 514.98
  C 799.08 504.65 799.05 496.56 799.33 483.60
  Q 799.62 469.93 798.97 463.41
  Q 798.08 454.47 796.51 443.38
  C 794.56 429.63 790.22 416.04 785.09 400.08
  Q 783.61 395.49 779.49 386.00
  C 767.02 357.31 749.50 332.39 726.79 312.62
  Q 718.11 305.06 700.12 292.61
  Q 695.09 289.13 688.20 285.41
  C 680.48 281.24 675.70 279.06 671.07 274.85
  Q 667.36 271.48 666.42 271.09
  C 659.06 268.04 652.88 265.83 648.05 262.43
  Q 669.38 269.15 686.11 277.68
  Q 716.10 292.99 741.30 317.74
  C 744.99 321.37 749.12 326.20 752.73 330.28
  Q 757.13 335.25 762.33 342.29
  Q 767.46 349.21 770.97 354.96
  Q 786.80 380.85 795.49 409.00
  Q 805.18 440.41 805.75 475.14
  Q 806.31 508.70 798.32 541.72
  Q 797.10 546.77 795.34 551.64
  Z"
/>
<path fill="#82c42e" d="
  M 496.03 356.77
  Q 490.17 360.13 484.89 364.32
  Q 483.55 365.38 482.65 366.84
  Q 482.62 366.88 482.65 366.84
  C 483.16 366.29 483.78 365.92 484.46 365.85
  L 479.37 369.71
  L 472.62 375.70
  A 0.20 0.19 -46.1 0 1 472.36 375.71
  A 0.19 0.18 42.8 0 1 472.34 375.45
  L 475.59 371.85
  L 480.69 367.99
  A 0.17 0.17 0.0 0 0 480.74 367.79
  Q 480.63 367.56 480.54 367.61
  Q 477.59 369.29 475.59 371.85
  L 469.88 377.79
  L 467.50 380.11
  Q 457.20 388.60 450.38 400.26
  L 446.95 404.66
  Q 439.77 414.53 435.69 425.98
  L 433.63 431.06
  Q 434.44 421.05 434.28 417.65
  C 433.88 408.90 433.81 402.47 436.29 396.03
  C 439.79 386.90 442.17 381.71 441.59 374.11
  Q 441.14 368.38 439.74 352.36
  C 438.81 341.65 434.72 331.75 425.69 326.02
  C 415.52 319.57 405.57 324.48 396.96 331.04
  Q 390.42 336.02 384.55 340.94
  Q 382.10 342.98 377.54 348.14
  Q 372.86 353.44 367.39 357.78
  Q 382.84 339.07 402.03 322.28
  Q 421.44 305.29 443.37 293.22
  Q 455.56 286.16 468.64 280.52
  Q 499.78 267.69 533.16 263.00
  C 539.05 264.79 544.76 266.91 544.85 273.72
  Q 544.90 277.98 544.34 280.48
  Q 541.45 293.50 537.86 311.78
  C 536.72 317.60 534.60 323.21 533.71 328.96
  Q 533.08 333.07 532.29 334.43
  Q 529.03 340.05 522.59 343.36
  Q 509.37 350.17 496.03 356.77
  Z"
/>
<path fill="#b7e45e" d="
  M 468.64 280.52
  Q 455.56 286.16 443.37 293.22
  Q 440.34 293.56 436.96 295.54
  Q 416.64 307.41 398.88 322.78
  Q 396.46 324.87 393.31 325.11
  A 1.36 1.34 72.6 0 1 392.03 324.43
  L 390.02 320.96
  A 0.68 0.68 0.0 0 1 390.19 320.09
  C 393.88 317.25 396.58 314.34 400.24 311.52
  Q 413.61 301.24 420.64 296.41
  Q 427.95 291.38 438.46 285.48
  Q 444.43 282.96 450.53 283.25
  C 457.10 283.57 462.37 281.53 468.64 280.52
  Z"
/>
<path fill="#8ac934" d="
  M 433.63 431.06
  C 431.88 436.93 429.08 443.43 427.67 448.36
  Q 425.51 455.92 423.39 465.48
  C 421.69 473.10 421.82 481.49 420.60 489.01
  Q 419.36 496.65 419.42 506.54
  Q 419.51 522.67 419.69 524.38
  Q 421.31 540.03 422.52 555.71
  Q 423.61 564.31 424.87 572.89
  C 426.53 584.19 423.55 595.25 419.54 607.65
  Q 411.08 633.78 393.38 655.79
  C 386.90 663.85 379.37 671.76 373.59 679.56
  C 366.88 688.59 362.76 694.46 356.02 701.31
  C 347.50 709.96 339.63 719.30 327.94 723.46
  L 309.48 704.11
  C 315.81 699.18 321.96 693.37 324.73 687.01
  C 329.81 675.35 332.66 668.26 337.38 660.66
  Q 342.64 652.20 351.22 640.57
  Q 358.00 631.40 360.98 622.67
  C 363.05 616.63 363.19 610.05 364.32 603.34
  Q 365.24 597.85 367.13 593.38
  C 369.29 588.26 371.31 583.97 370.82 579.62
  Q 370.30 575.06 369.08 568.15
  A 24.32 23.78 -49.2 0 1 368.75 562.84
  C 369.03 556.84 369.25 552.36 369.00 545.60
  Q 368.35 527.79 368.67 520.20
  Q 368.92 514.30 371.21 489.86
  Q 371.54 486.25 374.10 474.59
  C 375.42 468.53 374.18 463.69 372.98 457.95
  C 370.84 447.63 373.04 436.53 372.56 428.38
  Q 372.20 422.17 369.34 402.00
  Q 368.42 395.50 365.82 389.64
  C 361.86 380.74 354.54 385.09 347.69 388.72
  A 2.08 2.03 -87.8 0 0 346.92 389.45
  C 320.05 433.98 307.76 483.53 300.83 536.01
  Q 300.63 547.41 297.69 557.40
  Q 297.96 552.11 299.02 542.25
  C 302.76 507.35 309.56 473.53 321.13 440.92
  Q 327.01 424.34 334.27 409.83
  Q 348.13 382.15 367.39 357.78
  Q 372.86 353.44 377.54 348.14
  Q 382.10 342.98 384.55 340.94
  Q 390.42 336.02 396.96 331.04
  C 405.57 324.48 415.52 319.57 425.69 326.02
  C 434.72 331.75 438.81 341.65 439.74 352.36
  Q 441.14 368.38 441.59 374.11
  C 442.17 381.71 439.79 386.90 436.29 396.03
  C 433.81 402.47 433.88 408.90 434.28 417.65
  Q 434.44 421.05 433.63 431.06
  Z"
/>
<path fill="#88c53b" d="
  M 630.64 340.04
  L 648.79 346.22
  L 648.19 354.19
  Q 624.97 344.08 599.90 341.84
  L 604.54 335.22
  A 0.87 0.84 20.6 0 1 605.34 334.87
  Q 618.31 336.49 630.64 340.04
  Z"
/>
<path fill="#6db624" d="
  M 599.40 341.36
  L 587.77 341.13
  Q 589.01 340.69 590.30 340.50
  Q 590.39 340.48 590.02 340.46
  Q 580.66 340.00 567.36 338.51
  C 555.87 337.22 542.81 340.17 531.95 343.18
  C 524.83 345.15 515.82 348.76 507.73 351.47
  C 527.08 342.14 547.61 337.64 568.94 335.95
  Q 586.12 334.59 599.40 341.36
  Z"
/>
<path fill="#5faa23" d="
  M 587.77 341.13
  Q 572.67 340.62 557.73 343.25
  Q 557.03 343.37 556.28 343.34
  Q 552.61 343.95 548.93 344.61
  C 542.19 345.81 535.53 348.02 528.98 350.01
  C 514.85 352.38 501.46 357.61 488.44 363.47
  L 507.73 351.47
  C 515.82 348.76 524.83 345.15 531.95 343.18
  C 542.81 340.17 555.87 337.22 567.36 338.51
  Q 580.66 340.00 590.02 340.46
  Q 590.39 340.48 590.30 340.50
  Q 589.01 340.69 587.77 341.13
  Z"
/>
<path fill="#f2fd88" fill-opacity="0.996" d="
  M 587.77 341.13
  L 599.40 341.36
  Q 599.65 341.60 599.90 341.84
  Q 624.97 344.08 648.19 354.19
  Q 660.74 359.53 669.40 364.84
  Q 670.94 365.78 684.71 375.00
  C 688.06 377.25 690.63 380.05 693.78 382.36
  Q 696.51 384.35 700.53 387.96
  Q 705.50 392.41 707.41 394.32
  Q 728.84 415.72 745.03 441.66
  Q 769.54 480.93 780.95 524.66
  C 781.87 528.16 783.13 534.05 784.20 538.82
  Q 785.33 543.89 786.26 549.51
  Q 788.05 560.26 790.30 571.48
  Q 790.39 573.87 788.89 576.97
  A 0.46 0.46 0.0 0 1 788.02 576.77
  Q 788.06 573.24 787.70 570.00
  Q 784.91 545.07 778.62 521.36
  Q 771.83 495.75 758.24 467.98
  Q 740.41 431.55 713.10 401.90
  Q 703.96 391.97 691.30 381.67
  Q 666.02 361.10 636.42 350.88
  C 610.88 342.06 584.23 340.35 557.59 344.30
  Q 555.74 343.97 556.28 343.34
  Q 557.03 343.37 557.73 343.25
  Q 572.67 340.62 587.77 341.13
  Z"
/>
<path fill="#6bd320" d="
  M 556.28 343.34
  Q 555.74 343.97 557.59 344.30
  C 526.32 349.70 497.54 361.95 474.85 384.18
  C 427.82 430.24 423.51 497.58 432.84 558.72
  C 433.79 564.96 435.90 571.18 442.26 573.74
  L 441.77 574.39
  Q 441.29 574.45 440.63 574.01
  Q 433.77 569.92 432.34 561.94
  Q 426.59 529.77 427.85 497.18
  Q 428.20 488.24 429.26 480.36
  Q 430.67 469.84 431.91 463.69
  C 436.40 441.41 445.20 419.66 458.54 401.48
  Q 471.81 383.40 490.27 369.74
  Q 503.60 360.47 518.63 353.99
  C 521.61 352.71 525.57 351.52 528.98 350.01
  C 535.53 348.02 542.19 345.81 548.93 344.61
  Q 552.61 343.95 556.28 343.34
  Z"
/>
<path fill="#003a00" d="
  M 622.84 348.39
  Q 616.89 349.04 614.73 349.07
  Q 594.77 349.34 587.61 349.51
  C 542.89 350.60 501.31 369.76 473.74 405.40
  C 455.05 429.55 446.66 457.04 443.55 487.40
  C 440.53 516.86 441.97 544.33 450.37 573.07
  C 440.64 573.99 436.54 569.50 434.57 560.51
  Q 433.66 556.38 432.67 546.74
  C 431.76 537.82 430.77 531.31 430.56 523.39
  Q 430.23 511.41 430.26 507.01
  C 430.59 467.63 439.91 427.24 465.39 396.39
  Q 470.61 390.08 479.98 381.30
  Q 487.41 374.35 496.58 368.49
  C 515.26 356.56 538.05 348.26 561.09 345.47
  Q 580.15 343.15 595.72 344.10
  Q 607.11 344.79 622.84 348.39
  Z"
/>
<path fill="#b0de5c" d="
  M 648.79 346.22
  C 673.30 355.48 697.03 371.68 716.20 390.80
  Q 725.92 400.49 735.96 413.26
  Q 767.97 453.93 783.98 504.24
  Q 790.41 524.43 792.28 542.69
  Q 793.24 552.06 790.89 562.26
  A 0.32 0.32 0.0 0 0 791.12 562.64
  L 791.36 562.71
  A 0.14 0.13 16.8 0 0 791.52 562.63
  L 795.22 552.23
  Q 795.57 551.61 795.34 551.64
  Q 796.07 552.23 796.31 552.79
  L 790.30 571.48
  Q 788.05 560.26 786.26 549.51
  Q 785.33 543.89 784.20 538.82
  C 783.13 534.05 781.87 528.16 780.95 524.66
  Q 769.54 480.93 745.03 441.66
  Q 728.84 415.72 707.41 394.32
  Q 705.50 392.41 700.53 387.96
  Q 696.51 384.35 693.78 382.36
  C 690.63 380.05 688.06 377.25 684.71 375.00
  Q 670.94 365.78 669.40 364.84
  Q 660.74 359.53 648.19 354.19
  L 648.79 346.22
  Z"
/>
<path fill="#024a00" d="
  M 622.84 348.39
  Q 658.77 357.59 688.03 380.72
  C 696.40 387.34 704.35 394.29 711.62 402.16
  Q 746.51 439.92 765.74 488.01
  C 755.96 474.29 748.01 461.02 739.56 447.19
  C 723.95 421.66 703.90 398.12 679.06 381.71
  Q 667.65 374.17 652.43 367.03
  C 597.06 341.08 530.08 350.84 487.59 395.39
  C 468.06 415.86 455.19 439.45 450.57 467.23
  Q 446.52 491.59 446.82 515.21
  C 446.95 525.42 447.72 536.14 451.37 545.74
  C 456.81 560.01 468.39 562.49 481.90 562.91
  C 498.81 563.44 526.73 563.97 533.90 582.92
  C 539.23 597.01 525.40 613.29 516.44 623.65
  C 490.59 653.54 469.60 677.43 449.08 707.05
  C 439.15 721.38 427.38 736.02 419.00 746.80
  C 413.26 754.19 408.75 761.15 402.32 770.71
  Q 397.89 777.31 387.47 789.07
  Q 373.69 798.15 356.37 793.72
  C 360.29 792.74 385.16 785.26 371.87 777.61
  Q 371.16 777.20 361.10 771.71
  C 349.58 765.43 340.87 755.93 332.55 744.17
  Q 339.78 750.93 346.89 757.83
  Q 349.66 760.51 352.54 763.07
  Q 356.23 766.37 358.88 767.16
  Q 362.61 768.29 366.39 766.97
  Q 381.91 761.10 394.14 750.23
  Q 399.34 745.60 407.52 736.93
  C 424.73 718.69 435.70 707.46 451.85 688.57
  C 477.18 658.95 490.98 643.35 511.46 617.49
  Q 516.09 611.65 519.87 606.01
  Q 528.74 592.78 528.97 576.61
  A 0.80 0.78 13.3 0 0 528.51 575.88
  Q 522.50 573.18 515.96 573.36
  L 450.37 573.07
  C 441.97 544.33 440.53 516.86 443.55 487.40
  C 446.66 457.04 455.05 429.55 473.74 405.40
  C 501.31 369.76 542.89 350.60 587.61 349.51
  Q 594.77 349.34 614.73 349.07
  Q 616.89 349.04 622.84 348.39
  Z"
/>
<path fill="#4f9d1b" d="
  M 528.98 350.01
  C 525.57 351.52 521.61 352.71 518.63 353.99
  Q 503.60 360.47 490.27 369.74
  Q 486.67 367.61 482.62 369.91
  C 476.12 373.61 470.40 379.45 464.94 385.12
  A 0.25 0.25 0.0 0 1 464.55 385.07
  L 464.39 384.79
  A 0.09 0.08 -42.1 0 1 464.40 384.69
  L 479.37 369.71
  L 484.46 365.85
  L 488.44 363.47
  C 501.46 357.61 514.85 352.38 528.98 350.01
  Z"
/>
<path fill="#6db624" d="
  M 507.73 351.47
  L 488.44 363.47
  L 484.46 365.85
  C 483.78 365.92 483.16 366.29 482.65 366.84
  Q 482.62 366.88 482.65 366.84
  Q 483.55 365.38 484.89 364.32
  Q 490.17 360.13 496.03 356.77
  L 507.73 351.47
  Z"
/>
<path fill="#eef897" fill-opacity="0.996" d="
  M 275.16 575.54
  Q 266.13 576.53 256.84 576.07
  C 252.17 575.83 247.61 576.13 243.44 576.03
  Q 226.17 575.62 208.70 576.32
  Q 203.46 575.51 201.14 579.83
  C 199.66 582.59 201.47 585.28 202.78 587.21
  Q 210.51 598.59 216.72 607.12
  C 217.02 607.52 217.50 607.80 217.77 608.19
  Q 220.05 611.54 225.69 619.30
  Q 227.91 622.37 229.94 624.60
  Q 230.52 625.25 233.88 630.16
  A 8.76 8.71 6.2 0 0 234.82 631.32
  Q 236.03 632.57 236.36 633.01
  Q 241.03 639.23 253.71 654.88
  Q 255.86 657.54 257.61 659.32
  A 5.18 5.15 6.9 0 1 258.28 660.17
  C 260.00 662.92 262.94 664.94 264.80 668.10
  A 6.35 6.26 5.9 0 0 266.07 669.64
  Q 269.66 672.81 271.21 675.49
  A 5.42 5.03 9.2 0 0 272.13 676.67
  Q 275.10 679.52 278.16 683.33
  C 280.48 686.23 283.44 688.77 285.44 691.41
  Q 287.98 694.78 290.74 697.44
  C 295.47 702.02 300.59 708.53 305.43 713.18
  Q 309.22 716.82 317.43 725.51
  Q 320.27 728.51 328.67 736.79
  Q 334.55 742.58 352.03 759.44
  C 354.25 761.58 356.80 763.99 359.98 764.55
  Q 361.69 765.18 363.81 764.84
  L 364.06 766.08
  Q 357.89 766.44 352.92 761.83
  Q 279.55 693.95 220.59 614.67
  Q 207.44 596.99 200.06 585.67
  C 196.64 580.42 201.40 575.23 206.93 574.75
  Q 238.35 575.24 270.12 574.86
  Q 271.22 574.85 272.34 574.58
  C 280.91 573.38 285.98 566.78 286.65 558.47
  C 290.39 511.77 298.84 465.26 316.65 421.89
  Q 330.88 387.24 356.14 354.60
  L 356.56 354.56
  A 0.45 0.45 0.0 0 1 357.04 355.13
  Q 356.84 355.83 356.51 356.25
  Q 341.73 375.26 329.23 398.77
  Q 320.04 416.07 314.95 429.89
  Q 306.27 453.51 302.44 469.10
  Q 300.78 475.90 300.30 477.47
  A 3.49 3.47 -36.1 0 0 300.15 478.41
  Q 300.10 480.58 299.22 482.54
  A 2.77 2.74 63.1 0 0 299.04 483.10
  Q 294.62 504.62 291.41 528.12
  Q 290.60 534.06 289.73 543.57
  Q 288.77 554.17 288.15 559.02
  Q 286.63 570.86 275.16 575.54
  Z"
/>
<path fill="#479618" d="
  M 490.27 369.74
  Q 471.81 383.40 458.54 401.48
  C 445.20 419.66 436.40 441.41 431.91 463.69
  Q 430.67 469.84 429.26 480.36
  Q 428.20 488.24 427.85 497.18
  Q 426.59 529.77 432.34 561.94
  Q 433.77 569.92 440.63 574.01
  C 428.32 575.18 425.83 563.09 423.90 553.25
  A 0.23 0.23 0.0 0 0 423.64 553.06
  L 423.63 553.06
  A 0.23 0.22 -8.4 0 0 423.43 553.32
  L 425.20 563.94
  L 424.51 562.96
  L 422.52 555.71
  Q 421.31 540.03 419.69 524.38
  Q 419.51 522.67 419.42 506.54
  Q 419.36 496.65 420.60 489.01
  C 421.82 481.49 421.69 473.10 423.39 465.48
  Q 425.51 455.92 427.67 448.36
  C 429.08 443.43 431.88 436.93 433.63 431.06
  L 435.69 425.98
  Q 436.28 425.77 436.63 424.76
  L 438.73 421.30
  L 446.43 409.28
  L 457.25 393.01
  Q 460.49 389.70 463.27 385.96
  Q 464.36 384.50 466.75 382.02
  Q 468.65 380.04 469.88 377.79
  L 475.59 371.85
  L 472.34 375.45
  A 0.19 0.18 42.8 0 0 472.36 375.71
  A 0.20 0.19 -46.1 0 0 472.62 375.70
  L 479.37 369.71
  L 464.40 384.69
  A 0.09 0.08 -42.1 0 0 464.39 384.79
  L 464.55 385.07
  A 0.25 0.25 0.0 0 0 464.94 385.12
  C 470.40 379.45 476.12 373.61 482.62 369.91
  Q 486.67 367.61 490.27 369.74
  Z"
/>
<path fill="#6db624" d="
  M 475.59 371.85
  Q 477.59 369.29 480.54 367.61
  Q 480.63 367.56 480.74 367.79
  A 0.17 0.17 0.0 0 1 480.69 367.99
  L 475.59 371.85
  Z"
/>
<path fill="#5faa23" d="
  M 457.25 393.01
  Q 461.32 386.04 467.50 380.11
  L 469.88 377.79
  Q 468.65 380.04 466.75 382.02
  Q 464.36 384.50 463.27 385.96
  Q 460.49 389.70 457.25 393.01
  Z"
/>
<path fill="#021903" fill-opacity="0.996" d="
  M 737.30 508.20
  Q 741.41 520.08 745.21 532.03
  Q 748.03 540.89 749.29 547.80
  Q 750.79 556.02 752.48 563.82
  Q 752.89 565.68 752.94 569.59
  A 9.64 9.27 -54.9 0 0 753.34 572.18
  Q 754.00 574.37 755.77 582.97
  Q 756.36 585.80 758.83 590.75
  C 760.91 594.92 764.31 597.87 767.59 601.29
  A 11.60 11.29 81.8 0 0 770.37 603.43
  Q 776.52 606.80 777.75 607.27
  Q 779.09 607.78 784.02 608.16
  C 788.09 608.47 790.98 607.23 795.47 606.46
  C 801.13 605.48 808.10 601.54 811.90 598.62
  C 816.69 594.95 819.19 589.43 821.91 583.17
  Q 827.85 569.52 832.37 554.31
  C 835.13 545.01 837.05 533.06 839.17 522.46
  Q 838.32 537.95 833.88 552.81
  Q 832.62 557.04 832.16 565.49
  Q 827.83 579.91 823.43 589.42
  Q 816.29 604.84 798.62 609.62
  Q 796.64 610.15 788.00 610.64
  Q 784.76 610.83 779.33 609.58
  Q 774.56 608.49 771.11 606.62
  Q 757.11 599.00 753.04 583.50
  Q 752.10 579.91 750.87 570.05
  Q 750.70 568.73 750.29 567.58
  C 749.93 566.54 750.05 565.41 749.80 564.18
  Q 746.26 546.85 743.52 536.96
  Q 741.03 527.97 736.46 515.04
  Q 722.74 476.25 697.40 444.12
  Q 693.54 439.22 684.31 429.19
  Q 677.32 421.60 666.45 412.55
  Q 653.23 401.54 638.76 393.99
  Q 626.85 387.78 614.93 384.62
  Q 590.52 378.15 564.49 382.01
  Q 549.38 384.25 536.81 389.54
  Q 514.73 398.83 501.10 413.62
  Q 487.18 428.72 479.50 446.71
  Q 472.73 462.58 470.07 477.51
  Q 468.45 486.61 467.12 500.25
  Q 466.79 503.63 467.02 523.27
  C 467.06 527.12 467.71 530.46 468.33 535.09
  Q 468.87 539.15 472.85 539.11
  Q 496.74 538.81 519.80 539.06
  A 7.92 7.61 -36.3 0 1 521.68 539.31
  C 523.83 539.85 526.06 539.90 527.67 540.36
  Q 544.33 545.12 552.97 557.00
  Q 559.68 566.23 561.76 576.74
  Q 562.30 579.47 562.08 586.05
  Q 561.92 590.69 560.48 595.19
  Q 557.32 605.06 551.90 612.18
  Q 533.55 636.27 517.37 655.63
  Q 510.52 663.83 486.09 692.34
  Q 480.70 698.63 431.23 753.25
  Q 420.62 764.96 419.39 766.35
  Q 413.98 772.44 407.36 779.31
  C 404.48 782.30 400.13 787.76 395.55 791.30
  Q 393.72 790.95 392.27 791.41
  Q 393.61 789.34 396.78 786.28
  Q 398.87 784.26 407.38 774.04
  Q 413.22 767.03 418.18 761.98
  C 422.84 757.22 429.53 749.25 435.91 742.69
  Q 439.21 739.30 443.17 734.16
  C 447.52 728.49 454.52 722.17 458.08 718.08
  C 462.06 713.50 465.91 710.06 469.83 705.17
  Q 478.71 694.10 492.38 679.38
  Q 498.00 673.33 505.71 663.20
  Q 507.92 660.30 514.91 652.42
  Q 520.03 646.64 524.04 641.58
  Q 541.29 619.77 548.48 610.48
  C 556.70 599.87 560.35 588.66 558.06 574.96
  C 557.15 569.51 553.64 563.28 550.90 558.92
  C 548.39 554.93 544.39 552.19 540.42 549.10
  A 12.07 11.56 -12.5 0 0 538.06 547.67
  L 531.51 544.68
  A 0.62 0.46 53.3 0 0 531.41 544.65
  L 525.38 542.97
  A 2.43 2.36 49.9 0 0 524.57 542.89
  Q 523.20 542.99 521.95 542.45
  A 3.72 3.59 57.3 0 0 520.77 542.17
  Q 514.94 541.82 513.75 541.82
  Q 476.51 541.90 474.26 541.89
  C 466.09 541.87 465.12 538.67 464.65 531.00
  Q 463.90 518.75 464.26 505.03
  Q 464.38 500.59 464.89 497.00
  Q 465.03 496.00 465.57 491.66
  Q 465.74 490.25 465.96 486.31
  Q 466.76 471.71 472.15 455.41
  Q 482.17 425.11 505.81 403.82
  C 515.52 395.07 527.33 389.73 539.96 384.99
  C 553.95 379.72 569.92 377.90 584.71 377.57
  Q 591.16 377.43 597.24 378.33
  Q 618.13 381.44 635.97 389.36
  C 651.25 396.15 665.02 406.88 678.13 418.50
  Q 680.47 420.58 694.74 435.89
  Q 697.29 438.63 706.20 450.55
  Q 711.43 457.55 716.25 465.83
  Q 725.75 482.16 733.94 500.30
  Q 735.71 504.23 737.30 508.20
  Z"
/>
<path fill="#8fcc36" d="
  M 309.48 704.11
  Q 285.26 678.84 262.98 651.75
  C 271.51 656.94 281.04 662.40 290.41 656.48
  C 295.50 653.26 300.13 648.08 302.74 642.38
  C 307.06 632.98 310.99 621.29 316.16 611.17
  C 319.75 604.14 323.11 597.86 323.53 591.13
  C 324.11 581.74 322.91 573.04 319.48 563.08
  Q 317.74 558.02 315.45 549.50
  C 313.14 540.93 309.85 536.67 300.83 536.01
  C 307.76 483.53 320.05 433.98 346.92 389.45
  A 2.08 2.03 -87.8 0 1 347.69 388.72
  C 354.54 385.09 361.86 380.74 365.82 389.64
  Q 368.42 395.50 369.34 402.00
  Q 372.20 422.17 372.56 428.38
  C 373.04 436.53 370.84 447.63 372.98 457.95
  C 374.18 463.69 375.42 468.53 374.10 474.59
  Q 371.54 486.25 371.21 489.86
  Q 368.92 514.30 368.67 520.20
  Q 368.35 527.79 369.00 545.60
  C 369.25 552.36 369.03 556.84 368.75 562.84
  A 24.32 23.78 -49.2 0 0 369.08 568.15
  Q 370.30 575.06 370.82 579.62
  C 371.31 583.97 369.29 588.26 367.13 593.38
  Q 365.24 597.85 364.32 603.34
  C 363.19 610.05 363.05 616.63 360.98 622.67
  Q 358.00 631.40 351.22 640.57
  Q 342.64 652.20 337.38 660.66
  C 332.66 668.26 329.81 675.35 324.73 687.01
  C 321.96 693.37 315.81 699.18 309.48 704.11
  Z"
/>
<path fill="#6db624" d="
  M 467.50 380.11
  Q 461.32 386.04 457.25 393.01
  L 452.75 398.21
  Q 450.86 400.39 448.85 402.42
  Q 448.71 402.56 448.81 402.33
  C 449.07 401.69 450.00 401.04 450.38 400.26
  Q 457.20 388.60 467.50 380.11
  Z"
/>
<path fill="#4f9d1b" d="
  M 457.25 393.01
  L 446.43 409.28
  L 452.75 398.21
  L 457.25 393.01
  Z"
/>
<path fill="#5faa23" d="
  M 452.75 398.21
  L 446.43 409.28
  L 438.73 421.30
  L 445.89 407.08
  Q 446.74 405.83 446.95 404.66
  L 450.38 400.26
  C 450.00 401.04 449.07 401.69 448.81 402.33
  Q 448.71 402.56 448.85 402.42
  Q 450.86 400.39 452.75 398.21
  Z"
/>
<path fill="#78be29" d="
  M 446.95 404.66
  Q 446.74 405.83 445.89 407.08
  Q 440.22 415.38 436.63 424.76
  Q 436.28 425.77 435.69 425.98
  Q 439.77 414.53 446.95 404.66
  Z"
/>
<path fill="#6db624" d="
  M 445.89 407.08
  L 438.73 421.30
  L 436.63 424.76
  Q 440.22 415.38 445.89 407.08
  Z"
/>
<path fill="#95d039" d="
  M 262.98 651.75
  Q 236.99 619.52 212.65 585.65
  Q 221.70 583.35 231.80 583.42
  Q 255.69 583.58 279.79 584.09
  Q 289.18 582.13 293.64 573.14
  Q 296.15 568.10 296.58 564.30
  Q 297.15 559.22 297.69 557.40
  Q 300.63 547.41 300.83 536.01
  C 309.85 536.67 313.14 540.93 315.45 549.50
  Q 317.74 558.02 319.48 563.08
  C 322.91 573.04 324.11 581.74 323.53 591.13
  C 323.11 597.86 319.75 604.14 316.16 611.17
  C 310.99 621.29 307.06 632.98 302.74 642.38
  C 300.13 648.08 295.50 653.26 290.41 656.48
  C 281.04 662.40 271.51 656.94 262.98 651.75
  Z"
/>
<path fill="#4f9d1b" d="
  M 440.63 574.01
  Q 441.29 574.45 441.77 574.39
  Q 442.52 574.64 442.97 574.98
  C 433.02 577.51 429.18 571.67 425.20 563.94
  L 423.43 553.32
  A 0.23 0.22 -8.4 0 1 423.63 553.06
  L 423.64 553.06
  A 0.23 0.23 0.0 0 1 423.90 553.25
  C 425.83 563.09 428.32 575.18 440.63 574.01
  Z"
/>
<path fill="#84c531" d="
  M 422.52 555.71
  L 424.51 562.96
  L 427.75 571.44
  Q 430.30 575.13 434.03 577.39
  A 2.08 2.01 -26.8 0 0 434.97 577.68
  Q 441.51 578.13 446.99 576.08
  Q 480.25 575.91 514.00 575.96
  Q 516.23 575.96 518.24 576.77
  Q 515.68 583.34 510.45 588.15
  Q 510.63 587.56 509.86 588.46
  Q 499.74 600.41 493.74 609.00
  Q 493.70 609.06 493.88 608.87
  Q 497.30 605.34 498.35 604.10
  Q 498.46 603.97 498.57 604.03
  A 0.09 0.09 0.0 0 1 498.60 604.16
  C 487.67 617.96 481.69 626.44 472.05 636.48
  Q 466.92 641.83 458.62 652.05
  C 453.56 658.28 449.14 662.75 443.07 669.84
  Q 438.95 674.66 431.27 683.04
  Q 414.28 701.56 408.96 707.35
  C 405.08 711.58 402.30 715.62 398.57 719.39
  C 392.63 725.37 386.91 732.16 381.04 738.52
  L 363.59 755.59
  Q 357.67 751.96 356.03 750.47
  Q 341.66 737.43 327.94 723.46
  C 339.63 719.30 347.50 709.96 356.02 701.31
  C 362.76 694.46 366.88 688.59 373.59 679.56
  C 379.37 671.76 386.90 663.85 393.38 655.79
  Q 411.08 633.78 419.54 607.65
  C 423.55 595.25 426.53 584.19 424.87 572.89
  Q 423.61 564.31 422.52 555.71
  Z"
/>
<path fill="#6db624" d="
  M 425.20 563.94
  L 427.75 571.44
  L 424.51 562.96
  L 425.20 563.94
  Z"
/>
<path fill="#5faa23" d="
  M 442.97 574.98
  Q 444.62 575.78 446.99 576.08
  Q 441.51 578.13 434.97 577.68
  A 2.08 2.01 -26.8 0 1 434.03 577.39
  Q 430.30 575.13 427.75 571.44
  L 425.20 563.94
  C 429.18 571.67 433.02 577.51 442.97 574.98
  Z"
/>
<path fill="#003a00" d="
  M 366.39 766.97
  Q 370.46 764.63 372.28 762.53
  Q 386.84 745.81 415.06 714.57
  Q 415.89 713.65 416.64 712.88
  C 427.56 701.59 439.63 687.62 449.56 676.57
  Q 459.17 665.87 464.76 659.28
  Q 487.91 631.99 491.69 627.19
  Q 508.58 605.68 524.12 586.36
  A 1.17 1.08 -16.1 0 0 524.32 586.03
  C 527.25 579.15 522.16 574.58 515.96 573.36
  Q 522.50 573.18 528.51 575.88
  A 0.80 0.78 13.3 0 1 528.97 576.61
  Q 528.74 592.78 519.87 606.01
  Q 516.09 611.65 511.46 617.49
  C 490.98 643.35 477.18 658.95 451.85 688.57
  C 435.70 707.46 424.73 718.69 407.52 736.93
  Q 399.34 745.60 394.14 750.23
  Q 381.91 761.10 366.39 766.97
  Z"
/>
<path fill="#c8fb4d" d="
  M 522.24 578.18
  L 522.21 578.65
  A 0.40 0.39 23.6 0 1 521.54 578.91
  L 520.33 577.76
  Q 519.78 577.27 519.31 577.24
  Q 518.78 576.89 518.24 576.77
  Q 516.23 575.96 514.00 575.96
  Q 480.25 575.91 446.99 576.08
  Q 444.62 575.78 442.97 574.98
  Q 442.52 574.64 441.77 574.39
  L 442.26 573.74
  Q 444.14 574.36 446.00 574.38
  Q 478.87 574.67 511.74 574.58
  C 515.78 574.56 519.61 575.08 522.24 578.18
  Z"
/>
<path fill="#9fd449" d="
  M 275.16 575.54
  Q 276.51 580.34 279.79 584.09
  Q 255.69 583.58 231.80 583.42
  Q 221.70 583.35 212.65 585.65
  L 208.70 576.32
  Q 226.17 575.62 243.44 576.03
  C 247.61 576.13 252.17 575.83 256.84 576.07
  Q 266.13 576.53 275.16 575.54
  Z"
/>
<path fill="#c6ea71" d="
  M 208.70 576.32
  L 212.65 585.65
  Q 236.99 619.52 262.98 651.75
  Q 285.26 678.84 309.48 704.11
  L 327.94 723.46
  Q 341.66 737.43 356.03 750.47
  Q 357.67 751.96 363.59 755.59
  L 359.98 764.55
  C 356.80 763.99 354.25 761.58 352.03 759.44
  Q 334.55 742.58 328.67 736.79
  Q 320.27 728.51 317.43 725.51
  Q 309.22 716.82 305.43 713.18
  C 300.59 708.53 295.47 702.02 290.74 697.44
  Q 287.98 694.78 285.44 691.41
  C 283.44 688.77 280.48 686.23 278.16 683.33
  Q 275.10 679.52 272.13 676.67
  A 5.42 5.03 9.2 0 1 271.21 675.49
  Q 269.66 672.81 266.07 669.64
  A 6.35 6.26 5.9 0 1 264.80 668.10
  C 262.94 664.94 260.00 662.92 258.28 660.17
  A 5.18 5.15 6.9 0 0 257.61 659.32
  Q 255.86 657.54 253.71 654.88
  Q 241.03 639.23 236.36 633.01
  Q 236.03 632.57 234.82 631.32
  A 8.76 8.71 6.2 0 1 233.88 630.16
  Q 230.52 625.25 229.94 624.60
  Q 227.91 622.37 225.69 619.30
  Q 220.05 611.54 217.77 608.19
  C 217.50 607.80 217.02 607.52 216.72 607.12
  Q 210.51 598.59 202.78 587.21
  C 201.47 585.28 199.66 582.59 201.14 579.83
  Q 203.46 575.51 208.70 576.32
  Z"
/>
<path fill="#6db624" d="
  M 519.31 577.24
  Q 516.55 582.65 512.49 587.25
  L 507.53 592.61
  L 502.63 598.59
  A 0.07 0.06 -47.9 0 1 502.53 598.60
  L 502.32 598.46
  A 0.28 0.28 0.0 0 1 502.27 598.05
  L 510.45 588.15
  Q 515.68 583.34 518.24 576.77
  Q 518.78 576.89 519.31 577.24
  Z"
/>
<path fill="#5faa23" d="
  M 520.33 577.76
  Q 517.89 583.41 512.49 587.25
  Q 516.55 582.65 519.31 577.24
  Q 519.78 577.27 520.33 577.76
  Z"
/>
<path fill="#6bd320" d="
  M 522.24 578.18
  C 526.68 582.86 521.44 587.93 517.93 592.06
  Q 514.51 596.08 512.42 598.77
  Q 492.26 624.70 481.46 637.48
  C 471.44 649.33 460.76 662.19 450.67 673.37
  C 439.74 685.49 430.82 695.76 418.55 709.01
  Q 394.96 734.45 371.59 761.34
  Q 368.43 764.98 364.06 766.08
  L 363.81 764.84
  Q 366.57 764.18 369.24 762.18
  Q 380.73 749.41 392.13 736.60
  Q 404.49 722.71 415.15 711.15
  Q 432.81 692.00 452.47 669.72
  Q 483.41 634.65 509.61 600.62
  Q 515.28 593.26 520.22 587.74
  Q 522.65 585.03 522.20 581.40
  A 0.32 0.32 0.0 0 0 521.70 581.18
  Q 513.89 586.86 511.29 589.79
  Q 509.49 591.83 506.44 594.88
  A 0.19 0.18 42.6 0 1 506.19 594.89
  L 506.18 594.89
  A 0.20 0.20 0.0 0 1 506.15 594.62
  L 507.53 592.61
  L 512.49 587.25
  Q 517.89 583.41 520.33 577.76
  L 521.54 578.91
  A 0.40 0.39 23.6 0 0 522.21 578.65
  L 522.24 578.18
  Z"
/>
<path fill="#4f9d1b" d="
  M 369.24 762.18
  Q 366.06 754.94 371.62 749.12
  Q 373.70 746.94 381.04 738.52
  C 386.91 732.16 392.63 725.37 398.57 719.39
  C 402.30 715.62 405.08 711.58 408.96 707.35
  Q 414.28 701.56 431.27 683.04
  Q 438.95 674.66 443.07 669.84
  C 449.14 662.75 453.56 658.28 458.62 652.05
  Q 466.92 641.83 472.05 636.48
  C 481.69 626.44 487.67 617.96 498.60 604.16
  A 0.09 0.09 0.0 0 0 498.57 604.03
  Q 498.46 603.97 498.35 604.10
  Q 497.30 605.34 493.88 608.87
  Q 493.70 609.06 493.74 609.00
  Q 499.74 600.41 509.86 588.46
  Q 510.63 587.56 510.45 588.15
  L 502.27 598.05
  A 0.28 0.28 0.0 0 0 502.32 598.46
  L 502.53 598.60
  A 0.07 0.06 -47.9 0 0 502.63 598.59
  L 507.53 592.61
  L 506.15 594.62
  A 0.20 0.20 0.0 0 0 506.18 594.89
  L 506.19 594.89
  A 0.19 0.18 42.6 0 0 506.44 594.88
  Q 509.49 591.83 511.29 589.79
  Q 513.89 586.86 521.70 581.18
  A 0.32 0.32 0.0 0 1 522.20 581.40
  Q 522.65 585.03 520.22 587.74
  Q 515.28 593.26 509.61 600.62
  Q 483.41 634.65 452.47 669.72
  Q 432.81 692.00 415.15 711.15
  Q 404.49 722.71 392.13 736.60
  Q 380.73 749.41 369.24 762.18
  Z"
/>
<path fill="#88c53b" d="
  M 381.04 738.52
  Q 373.70 746.94 371.62 749.12
  Q 366.06 754.94 369.24 762.18
  Q 366.57 764.18 363.81 764.84
  Q 361.69 765.18 359.98 764.55
  L 363.59 755.59
  L 381.04 738.52
  Z"
/>
</svg>
