<?xml version="1.0" encoding="UTF-8" standalone="no"?>
<!DOCTYPE svg PUBLIC "-//W3C//DTD SVG 1.0//EN" "http://www.w3.org/TR/2001/REC-SVG-20010904/DTD/svg10.dtd">
<svg xmlns="http://www.w3.org/2000/svg" version="1.0" viewBox="0.00 0.00 1024.00 1024.00">
<g stroke-width="2.00" fill="none" stroke-linecap="butt">
<path stroke="#16420b" vector-effect="non-scaling-stroke" d="
  M 290.26 499.11
  Q 293.36 490.45 298.05 482.55
  C 299.06 480.84 300.03 478.54 300.97 476.53
  A 2.01 1.95 83.2 0 1 301.51 475.82
  Q 302.62 474.87 302.65 473.89
  A 0.96 0.92 -28.2 0 1 302.83 473.34
  Q 303.81 472.01 306.35 467.02
  Q 307.95 463.88 309.98 461.10
  Q 311.87 458.53 313.88 455.35
  Q 315.59 452.66 319.12 447.99
  A 2.39 2.14 78.6 0 0 319.36 447.58
  Q 319.97 446.19 321.29 445.13
  C 322.06 444.52 322.22 443.45 323.03 442.52
  Q 333.88 430.03 343.50 420.26"
/>
<path stroke="#0f3507" vector-effect="non-scaling-stroke" d="
  M 343.50 420.26
  Q 353.51 411.94 363.65 403.69
  Q 365.02 402.58 365.63 402.17
  Q 366.96 401.30 367.82 400.94
  Q 372.22 399.14 375.91 396.58
  C 381.60 392.62 386.50 390.10 392.06 387.89
  Q 408.10 381.52 425.21 379.30"
/>
<path stroke="#011e01" vector-effect="non-scaling-stroke" d="
  M 425.21 379.30
  C 437.95 378.89 451.71 378.17 463.84 380.91
  C 473.14 383.01 482.78 385.31 491.97 389.72
  Q 505.02 395.99 518.01 406.27
  C 523.38 410.52 528.01 416.84 531.49 420.77
  C 539.85 430.20 545.83 442.08 549.78 453.94
  Q 553.84 466.14 555.37 473.64
  Q 557.49 484.11 559.10 498.59
  Q 560.75 513.39 558.27 531.96
  Q 557.48 537.83 553.51 541.08
  A 1.65 1.63 22.8 0 1 552.59 541.45
  Q 547.11 541.86 544.25 541.79
  C 528.11 541.40 515.61 540.94 504.19 541.97"
/>
<path stroke="#0f3507" vector-effect="non-scaling-stroke" d="
  M 504.19 541.97
  L 493.65 543.70
  A 5.70 5.54 -62.3 0 0 491.97 544.25
  Q 482.82 548.95 480.31 551.11
  Q 473.36 557.11 468.30 567.33
  C 464.07 575.87 463.11 584.71 466.00 593.81
  C 467.97 600.01 468.89 603.33 471.70 607.14
  Q 476.33 613.44 480.83 619.93
  C 485.28 626.35 490.85 631.40 495.47 637.62
  Q 500.42 644.29 502.51 646.48
  C 508.11 652.33 515.48 660.33 520.81 667.61
  C 526.30 675.11 532.78 680.82 538.40 688.63
  C 542.06 693.73 544.42 695.74 549.09 701.65
  Q 551.39 704.56 555.55 708.44
  Q 559.02 711.69 568.33 722.17
  C 577.89 732.93 586.03 740.96 593.66 750.06
  C 596.69 753.68 599.31 756.17 603.50 760.47
  C 607.65 764.73 613.09 771.74 617.76 776.59
  Q 618.50 777.36 624.34 784.08
  Q 628.54 788.91 634.79 793.71
  C 638.02 796.19 643.33 798.51 646.47 798.98
  Q 650.02 799.52 656.09 799.90
  C 659.47 800.10 663.82 799.28 667.49 799.13
  A 1.92 1.90 27.6 0 0 668.43 798.84
  Q 670.79 797.32 671.47 797.14
  Q 676.64 795.78 677.41 795.10
  C 680.03 792.78 682.76 791.39 685.40 789.11
  Q 693.43 782.15 697.54 778.36
  C 699.48 776.57 701.14 774.43 703.36 772.89
  A 3.47 3.26 1.8 0 0 704.05 772.28
  C 706.57 769.42 707.87 767.60 710.26 765.62
  Q 713.12 763.25 717.95 758.96
  Q 720.39 756.80 721.74 753.94"
/>
<path stroke="#16420b" vector-effect="non-scaling-stroke" d="
  M 721.74 753.94
  Q 726.39 749.72 730.60 745.07
  Q 733.19 742.21 737.02 738.53
  Q 741.07 734.64 743.48 732.00
  Q 755.45 718.87 756.13 718.00
  Q 761.65 710.98 767.84 704.42
  Q 772.17 699.83 779.78 691.01
  Q 789.63 679.59 799.54 667.96
  C 803.29 663.56 805.81 659.24 809.36 655.18
  Q 811.85 652.35 815.91 647.18
  Q 826.81 633.31 826.86 633.26
  C 834.30 623.93 842.64 611.22 849.72 601.88
  Q 852.77 597.87 854.31 594.37
  Q 857.39 587.42 857.59 586.18
  C 858.51 580.52 858.97 573.42 856.99 568.23
  Q 849.54 548.71 830.93 543.69
  Q 823.42 541.66 811.14 542.13
  Q 811.12 542.13 773.25 542.04
  Q 770.11 542.03 767.68 540.65
  A 2.25 2.25 0.0 0 1 766.54 538.86
  L 765.70 527.64
  A 0.11 0.10 -75.0 0 0 765.65 527.55
  Q 765.20 527.29 765.18 526.67
  Q 765.15 525.73 764.92 523.77
  Q 762.82 506.44 762.81 506.40
  Q 760.43 490.18 754.55 463.10
  C 748.43 434.92 736.91 405.48 723.03 378.69
  Q 708.62 350.88 689.42 327.18
  Q 681.91 317.91 673.00 308.86
  Q 666.35 302.11 655.25 291.74
  Q 651.73 288.46 634.54 275.40
  Q 620.90 265.03 606.29 257.01
  Q 597.21 252.03 596.84 251.82
  Q 591.80 249.04 586.67 246.57"
/>
<path stroke="#0f3507" vector-effect="non-scaling-stroke" d="
  M 586.67 246.57
  Q 575.86 241.30 569.65 238.88
  Q 534.87 225.29 497.99 219.10
  C 491.11 217.94 484.74 217.61 477.55 217.28
  Q 473.23 217.08 469.41 216.19
  A 5.05 5.00 52.4 0 0 468.52 216.07
  Q 443.16 215.32 416.37 216.98
  A 4.61 4.30 -52.7 0 0 415.44 217.14
  Q 412.82 217.90 410.68 217.99
  C 407.05 218.14 404.00 218.98 399.75 219.67
  A 1.24 0.07 -23.8 0 0 398.82 220.02
  Q 398.01 220.36 396.76 220.45
  Q 393.01 220.75 380.70 223.71
  Q 379.66 223.96 379.26 223.88
  Q 378.44 223.70 377.87 224.17
  Q 377.31 224.63 375.88 225.01
  Q 322.88 239.07 279.66 272.15
  Q 276.64 274.46 274.65 276.71
  A 4.53 4.33 1.3 0 1 273.96 277.34
  Q 269.95 280.33 265.23 284.72
  Q 259.88 289.70 253.51 296.04
  Q 247.41 302.11 242.54 308.06
  Q 226.94 327.11 214.99 347.70
  Q 212.08 352.71 202.11 373.35
  Q 200.43 376.84 199.50 380.04
  C 197.77 385.99 195.45 391.44 193.96 397.10
  Q 190.11 411.76 187.80 421.65
  C 185.49 431.54 184.53 441.60 183.22 452.36
  C 179.69 481.53 182.79 511.20 188.48 540.30
  Q 190.25 549.36 192.73 556.83
  C 195.53 565.22 197.20 572.24 199.93 579.04
  C 201.92 583.99 203.17 589.24 205.99 592.89
  C 210.08 598.20 215.78 602.66 221.90 605.76
  C 229.32 609.52 243.67 608.60 251.08 604.74
  C 258.05 601.10 263.89 594.21 267.05 586.98
  Q 268.60 583.44 270.45 571.68
  Q 274.69 544.65 284.26 516.26
  C 286.18 510.56 288.91 505.89 290.26 499.11"
/>
<path stroke="#246b10" vector-effect="non-scaling-stroke" d="
  M 586.67 246.57
  Q 584.41 247.73 584.48 249.78"
/>
<path stroke="#105806" vector-effect="non-scaling-stroke" d="
  M 584.48 249.78
  Q 557.99 238.39 547.66 235.35
  C 527.44 229.40 511.40 225.25 494.02 223.04
  Q 469.15 219.87 443.14 220.24
  C 423.48 220.53 403.70 223.23 386.95 226.96
  Q 366.60 231.48 342.85 240.93
  Q 322.66 248.97 307.03 259.30
  C 302.81 262.09 295.58 266.34 291.04 269.67
  Q 262.77 290.40 240.25 318.36
  Q 235.59 324.15 231.96 330.22
  C 228.96 335.23 222.55 343.83 218.84 350.93
  C 214.79 358.69 211.10 364.67 207.69 373.25
  Q 202.81 385.51 201.97 388.22
  C 198.37 399.86 196.11 406.04 194.33 413.19
  Q 193.40 416.93 193.02 419.64
  C 191.37 431.18 188.46 444.03 187.53 456.14
  Q 185.45 483.16 188.42 510.74
  C 189.23 518.26 190.99 526.04 191.78 533.07
  Q 192.67 541.06 194.95 549.67
  Q 198.84 564.33 201.85 573.68
  Q 202.61 576.03 206.72 584.99
  Q 214.30 601.51 232.18 603.62
  C 242.78 604.88 251.02 601.15 258.20 593.43"
/>
<path stroke="#246b10" vector-effect="non-scaling-stroke" d="
  M 258.20 593.43
  Q 254.70 598.20 249.74 601.22
  A 0.58 0.57 -31.2 0 0 249.54 602.01
  L 249.59 602.09
  A 0.60 0.60 0.0 0 0 250.36 602.32
  Q 261.46 597.08 265.57 585.87
  C 268.81 577.05 269.56 567.49 272.05 558.14
  Q 274.38 549.43 277.25 535.87
  Q 278.67 529.21 281.04 522.46
  C 284.53 512.53 286.35 506.88 290.26 499.11"
/>
<path stroke="#246b10" vector-effect="non-scaling-stroke" d="
  M 721.74 753.94
  Q 718.39 756.36 715.58 759.42
  C 712.95 762.29 709.67 764.84 707.01 767.51
  Q 699.55 775.00 683.86 788.36
  Q 675.15 795.79 663.48 796.02
  A 0.09 0.09 0.0 0 1 663.46 795.85
  Q 670.40 794.18 676.48 790.19"
/>
<path stroke="#17650a" vector-effect="non-scaling-stroke" d="
  M 584.48 249.78
  Q 607.85 262.13 614.04 265.93
  Q 641.07 282.53 670.34 311.80
  Q 678.76 320.22 687.23 330.90
  C 711.77 361.84 729.92 397.08 742.41 434.29
  C 744.39 440.20 745.82 446.13 747.33 451.23
  Q 749.21 457.55 750.65 464.02
  Q 756.99 492.47 760.18 517.75
  Q 760.59 521.03 762.10 534.48
  C 762.81 540.82 765.92 544.55 772.53 544.72
  Q 782.97 545.00 811.24 545.15
  C 824.34 545.21 835.46 547.38 844.73 556.46
  Q 852.29 563.86 853.95 574.02
  Q 855.73 584.95 848.22 596.72
  C 845.90 600.36 843.33 604.41 841.30 607.18
  Q 830.92 621.27 820.01 636.06
  C 814.52 643.51 808.47 650.22 802.78 657.79
  Q 802.74 657.84 801.04 660.00
  Q 790.48 673.43 779.86 685.58
  Q 774.01 692.27 762.92 704.78
  Q 758.20 710.11 751.00 717.68
  Q 747.78 721.07 739.15 730.65
  Q 730.84 739.87 714.54 756.20
  Q 710.06 760.69 703.71 766.53
  C 694.79 774.72 686.31 783.06 676.48 790.19"
/>
<path stroke="#105806" vector-effect="non-scaling-stroke" d="
  M 676.48 790.19
  C 665.08 795.56 653.83 797.43 642.07 792.29
  Q 635.85 789.56 626.13 779.40
  Q 615.97 768.78 610.73 762.69
  C 604.44 755.37 599.16 750.42 593.22 743.20
  Q 588.96 738.03 580.32 728.79
  Q 569.38 717.08 558.65 704.30
  Q 556.12 701.27 537.07 679.99
  Q 525.84 667.45 514.82 653.73
  C 509.63 647.26 502.61 639.92 498.76 634.93
  Q 483.26 614.77 479.50 609.76
  Q 475.94 605.01 472.68 599.31
  C 465.38 586.50 468.74 570.38 478.09 559.66
  Q 489.14 546.98 506.85 545.62
  C 521.31 544.52 534.50 544.87 549.98 545.09
  C 555.78 545.17 560.65 544.16 562.19 537.92
  Q 563.36 533.14 563.64 529.09
  C 564.88 510.65 564.70 492.85 561.12 475.86
  Q 558.43 463.11 553.61 449.29
  Q 550.89 441.52 545.95 433.41
  Q 537.02 418.77 536.44 418.07
  Q 521.39 400.05 505.01 390.76
  Q 491.19 382.92 479.57 379.43
  Q 469.10 376.28 454.99 374.20
  Q 443.23 372.47 430.82 373.64
  Q 411.97 375.43 394.46 382.11"
/>
<path stroke="#17650a" vector-effect="non-scaling-stroke" d="
  M 394.46 382.11
  Q 379.75 388.49 376.34 390.84
  Q 370.58 394.81 364.32 398.80
  Q 362.42 400.02 358.80 402.87
  Q 358.20 403.35 353.40 407.16
  Q 342.19 416.06 326.91 433.15
  Q 324.72 435.59 318.22 443.80
  Q 313.33 449.98 310.13 454.91
  Q 284.12 495.00 272.74 539.02
  Q 270.89 546.17 269.96 550.32
  C 267.62 560.88 266.87 567.67 264.88 579.43
  Q 264.01 584.53 260.73 589.52
  Q 259.43 591.49 258.20 593.43"
/>
<path stroke="#104707" vector-effect="non-scaling-stroke" d="
  M 504.19 541.97
  Q 538.83 541.80 549.62 541.90
  Q 553.46 541.93 555.97 540.24
  C 559.67 537.75 560.10 529.56 560.20 525.43
  C 560.86 498.28 558.94 469.51 547.33 444.73
  Q 542.08 433.52 539.73 429.78
  Q 532.44 418.15 518.18 404.24
  C 514.92 401.06 509.69 397.58 506.48 395.69
  Q 498.63 391.08 486.81 385.96
  Q 476.92 381.68 463.96 379.69
  Q 447.27 377.12 429.81 378.61
  Q 427.49 378.81 425.21 379.30"
/>
<path stroke="#246b10" vector-effect="non-scaling-stroke" d="
  M 343.50 420.26
  Q 353.52 409.49 364.33 401.85
  Q 376.05 393.57 390.86 386.81
  Q 394.64 385.08 394.46 382.11"
/>
<path stroke="#022e00" vector-effect="non-scaling-stroke" d="
  M 682.08 753.19
  Q 691.44 743.91 700.97 734.77
  Q 706.67 729.32 709.99 725.69
  C 717.33 717.67 724.78 710.71 732.13 702.56
  Q 759.33 672.42 772.05 656.81
  Q 790.65 633.99 803.49 616.74
  Q 811.29 606.25 823.10 589.19
  Q 826.21 584.70 826.36 582.72
  Q 826.63 579.07 823.58 576.10
  Q 823.21 575.74 822.77 576.07
  Q 822.49 576.27 822.39 576.67"
/>
<path stroke="#76a649" vector-effect="non-scaling-stroke" d="
  M 822.39 576.67
  Q 819.50 574.72 815.50 574.78
  Q 783.55 575.27 751.77 574.77"
/>
<path stroke="#022e00" vector-effect="non-scaling-stroke" d="
  M 751.77 574.77
  Q 752.28 574.09 751.89 573.49
  A 0.55 0.53 77.1 0 0 751.54 573.26
  Q 740.04 570.89 739.01 559.67
  Q 735.76 524.62 730.61 496.47
  Q 722.34 451.29 704.13 411.13
  Q 697.95 397.51 685.94 378.06"
/>
<path stroke="#024c00" vector-effect="non-scaling-stroke" d="
  M 685.94 378.06
  Q 677.94 363.19 671.37 353.67
  C 660.67 338.15 646.78 323.71 631.87 310.35
  Q 605.20 286.46 571.71 269.36
  Q 550.72 258.65 529.35 253.39
  C 497.69 245.62 462.72 241.03 431.03 242.38
  C 397.89 243.79 366.84 251.71 335.51 264.27
  C 292.32 281.56 256.87 315.64 234.10 355.80
  Q 196.36 422.37 202.38 499.04
  Q 204.32 523.77 211.19 547.00
  Q 217.24 567.45 233.45 580.43
  A 2.35 2.34 35.9 0 0 236.88 579.89
  C 239.76 575.49 241.37 571.82 242.17 566.04
  C 247.00 531.26 255.41 498.28 271.42 467.75
  C 286.41 439.19 305.35 413.67 330.13 392.82
  C 342.38 382.52 355.73 374.46 369.54 367.98
  C 413.64 347.27 468.68 349.14 510.12 374.11
  C 534.22 388.64 553.81 411.27 564.48 437.43
  Q 570.23 451.53 573.24 468.24
  Q 577.95 494.36 577.15 520.15
  Q 576.73 533.68 573.13 545.00
  C 568.95 558.11 558.78 564.34 545.44 565.54
  Q 535.62 566.43 520.32 566.57
  Q 515.93 566.61 496.91 568.22
  A 1.99 1.97 -67.6 0 0 495.75 568.71
  L 487.62 575.84
  A 1.66 1.65 -24.3 0 0 487.07 577.29
  Q 488.59 589.91 491.88 597.84
  C 496.17 608.19 505.79 620.22 513.78 629.64
  Q 527.96 646.36 558.81 682.36
  C 566.68 691.54 578.88 706.98 588.54 717.91
  Q 593.33 723.32 620.82 750.52
  C 634.08 763.65 654.44 777.58 672.42 763.01
  Q 677.47 758.92 682.08 753.19"
/>
<path stroke="#012800" vector-effect="non-scaling-stroke" d="
  M 685.94 378.06
  Q 674.07 359.42 659.76 342.77
  Q 646.56 327.40 631.13 314.37
  Q 615.01 300.75 598.70 290.37
  Q 555.00 262.56 502.44 253.32
  Q 496.42 252.26 479.42 250.16
  C 476.50 249.80 474.33 250.01 471.83 249.63
  Q 469.05 249.20 466.15 249.15
  Q 443.83 248.75 438.25 249.17
  Q 431.01 249.71 423.81 250.04"
/>
<path stroke="#014000" vector-effect="non-scaling-stroke" d="
  M 423.81 250.04
  Q 415.43 249.30 408.81 249.94
  Q 387.19 252.02 364.29 259.12
  C 333.25 268.74 305.50 282.18 283.09 302.69
  C 223.43 357.27 197.01 442.65 210.85 521.68
  C 214.27 541.19 219.77 557.23 232.18 571.82"
/>
<path stroke="#012800" vector-effect="non-scaling-stroke" d="
  M 232.18 571.82
  Q 232.40 574.27 233.55 576.76
  Q 234.44 578.69 235.94 578.19
  Q 237.06 577.82 237.17 576.61
  Q 238.78 559.78 241.17 546.89
  Q 242.54 539.47 246.08 524.40
  Q 248.52 513.97 252.68 502.36
  Q 258.45 486.24 265.64 471.16
  Q 285.36 429.85 316.76 397.55
  C 321.08 393.11 324.55 390.30 330.44 385.21
  Q 354.53 364.38 385.58 353.13
  C 400.06 347.87 414.10 345.46 428.74 344.13
  Q 440.70 343.05 461.15 345.23"
/>
<path stroke="#014000" vector-effect="non-scaling-stroke" d="
  M 461.15 345.23
  Q 470.29 348.62 486.06 355.17
  C 520.84 369.62 549.71 393.13 566.25 426.73
  C 574.55 443.58 579.15 463.57 581.63 482.80
  Q 584.78 507.16 583.09 530.99
  Q 581.54 552.79 572.82 573.40"
/>
<path stroke="#012800" vector-effect="non-scaling-stroke" d="
  M 572.82 573.40
  L 506.36 573.34"
/>
<path stroke="#014000" vector-effect="non-scaling-stroke" d="
  M 506.36 573.34
  L 501.56 572.19
  A 0.86 0.83 -50.8 0 0 500.96 572.26
  L 494.83 575.45
  A 1.00 0.97 86.4 0 0 494.35 576.01
  Q 493.99 577.06 492.91 578.06
  A 0.95 0.93 60.0 0 0 492.66 579.03
  Q 496.60 591.45 499.89 597.65
  Q 506.21 609.56 516.62 621.96
  Q 561.07 674.89 572.86 688.45
  Q 592.26 710.77 600.73 719.61
  C 618.16 737.82 632.11 753.54 651.92 767.70
  A 1.39 1.39 0.0 0 0 652.79 767.96
  L 660.18 767.69"
/>
<path stroke="#012800" vector-effect="non-scaling-stroke" d="
  M 660.18 767.69
  Q 665.71 767.80 669.39 764.90
  Q 673.82 761.41 682.08 753.19"
/>
<path stroke="#002100" vector-effect="non-scaling-stroke" d="
  M 423.81 250.04
  C 420.37 251.00 415.97 251.11 413.40 251.48
  Q 384.99 255.60 360.16 265.26
  Q 345.93 270.79 338.23 274.75
  Q 312.20 288.14 291.20 306.94
  Q 280.42 316.60 272.31 325.77
  Q 269.05 329.46 259.66 341.16
  C 256.84 344.69 255.38 347.47 252.84 351.08
  Q 250.88 353.86 248.09 358.79
  C 241.74 370.03 235.29 382.10 230.87 394.60
  Q 226.64 406.54 225.70 409.67
  Q 220.73 426.19 217.38 447.89
  C 216.96 450.55 217.30 452.93 216.73 455.12
  Q 216.23 457.01 216.13 460.45
  Q 215.40 486.92 216.28 499.96
  Q 217.56 519.02 223.12 542.24
  Q 224.34 547.37 227.55 557.03
  Q 229.98 564.35 232.18 571.82"
/>
<path stroke="#748249" vector-effect="non-scaling-stroke" d="
  M 751.77 574.77
  Q 741.25 572.53 738.31 562.74
  Q 737.44 559.84 737.30 557.99
  Q 735.18 530.40 729.78 500.00
  Q 723.78 466.26 713.21 437.07
  C 696.12 389.84 667.32 346.11 628.68 313.95
  C 606.20 295.24 582.46 280.30 555.24 269.64"
/>
<path stroke="#5f8225" vector-effect="non-scaling-stroke" d="
  M 555.24 269.64
  Q 522.65 256.77 485.31 252.46
  Q 441.27 247.38 399.74 255.28
  Q 389.18 257.29 376.06 261.21"
/>
<path stroke="#30680c" vector-effect="non-scaling-stroke" d="
  M 376.06 261.21
  C 316.32 278.87 266.23 320.99 239.60 377.35
  Q 220.90 416.91 217.75 460.62
  Q 214.64 503.68 225.38 545.30"
/>
<path stroke="#778344" vector-effect="non-scaling-stroke" d="
  M 225.38 545.30
  L 234.85 576.81
  A 0.51 0.51 0.0 0 0 235.85 576.69
  C 236.63 563.62 238.85 550.11 242.04 535.43
  Q 244.38 524.68 246.26 518.16
  Q 263.04 460.04 300.52 413.83
  C 320.92 388.69 346.84 367.60 376.91 354.93
  Q 412.99 339.73 452.20 342.80"
/>
<path stroke="#3b6e12" vector-effect="non-scaling-stroke" d="
  M 452.20 342.80
  C 485.51 345.09 519.27 357.43 543.89 379.36
  Q 562.44 395.88 573.72 416.29
  C 597.75 459.77 598.35 510.81 591.23 558.49
  C 590.40 564.01 588.66 569.59 583.70 573.00"
/>
<path stroke="#5f8225" vector-effect="non-scaling-stroke" d="
  M 583.70 573.00
  Q 580.91 574.42 578.00 574.45
  Q 551.84 574.65 509.50 574.59
  Q 507.28 574.59 504.08 576.20"
/>
<path stroke="#43681d" vector-effect="non-scaling-stroke" d="
  M 504.08 576.20
  Q 499.73 578.68 500.05 583.31
  A 2.35 2.30 -61.1 0 0 500.31 584.25
  Q 501.62 586.75 503.73 589.24
  Q 505.63 591.48 510.11 597.13
  Q 542.89 638.50 547.75 643.80
  C 555.22 651.96 563.31 662.39 571.77 671.70
  C 583.58 684.70 592.92 695.52 606.14 709.81
  Q 629.60 735.16 652.52 761.48
  Q 654.47 763.71 656.02 764.22"
/>
<path stroke="#748249" vector-effect="non-scaling-stroke" d="
  M 656.02 764.22
  C 661.79 768.45 667.72 765.05 672.16 760.91
  C 727.54 709.24 777.65 652.63 820.34 591.09
  C 823.52 586.52 827.74 581.82 822.39 576.67"
/>
<path stroke="#002100" vector-effect="non-scaling-stroke" d="
  M 660.18 767.69
  Q 655.24 766.51 651.74 762.50
  Q 632.30 740.15 615.03 721.33
  C 592.95 697.26 575.09 677.75 558.05 657.71
  Q 547.45 645.25 546.94 644.66
  C 538.95 635.62 534.72 629.92 525.53 618.55
  C 518.14 609.42 509.14 597.45 502.05 589.07
  C 499.00 585.46 497.59 581.67 500.07 577.86
  Q 500.59 577.07 503.14 575.55
  Q 504.73 574.60 506.36 573.34"
/>
<path stroke="#002100" vector-effect="non-scaling-stroke" d="
  M 572.82 573.40
  Q 578.96 573.59 581.89 572.42
  Q 586.45 570.60 588.46 564.21
  Q 590.52 557.71 590.99 549.99
  Q 591.18 546.93 592.52 535.78
  Q 593.13 530.72 593.11 527.68
  Q 593.09 523.24 593.57 519.55
  C 594.01 516.17 593.85 513.31 594.03 509.34
  C 594.23 504.61 593.40 498.30 593.28 493.77
  C 593.12 487.83 592.27 481.87 591.64 476.56
  Q 588.26 448.34 575.11 421.88
  Q 566.89 405.33 556.21 393.59
  Q 543.55 379.66 532.28 371.75
  Q 515.92 360.27 495.65 353.09
  Q 478.93 347.17 461.15 345.23"
/>
<path stroke="#b7e065" vector-effect="non-scaling-stroke" d="
  M 656.02 764.22
  L 661.21 764.99
  A 4.20 4.19 40.9 0 0 663.04 764.86
  Q 666.76 763.76 670.08 761.22"
/>
<path stroke="#d7f281" vector-effect="non-scaling-stroke" d="
  M 670.08 761.22
  Q 686.41 745.72 702.50 729.90
  Q 704.35 728.09 706.81 725.41
  C 710.75 721.14 712.63 718.84 717.55 714.19
  Q 722.38 709.61 726.38 704.63
  Q 728.14 702.44 736.03 694.70
  A 3.12 2.80 -10.9 0 0 736.53 694.04
  Q 737.36 692.51 738.06 691.81
  Q 741.59 688.29 745.21 683.96
  C 748.52 679.99 751.88 677.13 754.62 673.31
  A 6.19 6.08 86.1 0 1 755.41 672.39
  Q 758.69 669.26 760.52 666.36
  A 5.27 5.15 86.0 0 1 761.54 665.16
  C 764.08 662.96 765.53 660.51 767.34 658.43
  Q 771.36 653.82 778.23 644.98
  Q 779.08 643.88 781.62 640.85
  Q 783.18 639.00 784.89 636.58
  Q 786.47 634.35 789.32 631.10
  Q 791.50 628.62 793.49 625.40
  A 5.75 4.82 -13.4 0 1 794.07 624.62
  Q 795.86 622.66 796.61 621.63
  Q 799.45 617.74 809.47 603.98
  Q 817.21 593.35 821.86 586.16
  Q 825.92 579.88 819.33 576.62
  Q 817.76 575.85 812.69 576.24"
/>
<path stroke="#c3e76d" vector-effect="non-scaling-stroke" d="
  M 812.69 576.24
  Q 810.50 576.02 808.25 576.01
  Q 780.87 575.85 753.50 576.14
  Q 752.14 576.16 749.54 575.50"
/>
<path stroke="#d9f481" vector-effect="non-scaling-stroke" d="
  M 749.54 575.50
  C 739.43 572.22 735.91 564.24 735.18 554.31
  Q 734.25 541.44 733.67 536.25
  Q 730.21 505.06 722.78 473.67
  Q 717.01 449.32 708.03 427.18
  Q 697.47 401.15 682.00 376.77
  Q 674.40 364.80 660.05 346.89
  Q 658.42 344.86 656.03 342.46
  Q 653.34 339.76 651.66 337.63
  C 645.62 329.96 638.86 324.65 632.15 318.45
  C 630.10 316.56 628.22 315.55 626.58 313.79
  Q 625.37 312.48 622.23 310.14
  Q 621.52 309.61 615.26 304.74
  Q 605.21 296.90 591.19 288.62"
/>
<path stroke="#53ad17" vector-effect="non-scaling-stroke" d="
  M 375.06 262.58
  Q 358.27 268.04 342.25 275.49
  Q 336.29 278.26 329.99 281.95
  Q 320.78 287.34 318.07 289.08
  Q 309.99 294.28 296.88 304.97
  Q 291.51 309.36 283.74 317.17
  Q 274.13 326.83 271.39 330.15
  Q 260.20 343.70 255.70 350.70
  Q 217.91 409.60 218.27 479.99
  Q 218.29 484.39 218.81 498.19
  C 219.01 503.45 219.86 508.30 220.31 513.48
  Q 220.58 516.51 222.18 524.85
  Q 223.69 532.74 224.80 538.81
  A 4.73 4.24 32.4 0 0 225.00 539.52
  Q 225.93 541.99 226.22 544.55"
/>
<path stroke="#a7e250" vector-effect="non-scaling-stroke" d="
  M 226.22 544.55
  Q 225.80 544.46 225.38 545.30"
/>
<path stroke="#90d437" vector-effect="non-scaling-stroke" d="
  M 580.41 575.43
  Q 577.15 575.96 573.75 575.98
  Q 541.75 576.12 509.75 576.03
  Q 507.24 576.02 504.27 577.25"
/>
<path stroke="#a2e142" vector-effect="non-scaling-stroke" d="
  M 504.27 577.25
  Q 503.76 576.99 504.08 576.20"
/>
<path stroke="#d3fb6e" vector-effect="non-scaling-stroke" d="
  M 555.24 269.64
  Q 554.32 269.74 553.93 270.34"
/>
<path stroke="#a9e545" vector-effect="non-scaling-stroke" d="
  M 553.93 270.34
  Q 551.49 269.79 549.04 268.86
  Q 532.58 262.64 515.48 258.82"
/>
<path stroke="#9bdc3a" vector-effect="non-scaling-stroke" d="
  M 515.48 258.82
  Q 476.17 250.29 436.00 252.00
  Q 432.50 252.15 429.31 252.64"
/>
<path stroke="#90d437" vector-effect="non-scaling-stroke" d="
  M 429.31 252.64
  Q 402.53 254.37 377.24 261.87"
/>
<path stroke="#82c730" vector-effect="non-scaling-stroke" d="
  M 377.24 261.87
  L 375.06 262.58"
/>
<path stroke="#8fe131" vector-effect="non-scaling-stroke" d="
  M 375.06 262.58
  L 376.06 261.21"
/>
<path stroke="#b2e856" vector-effect="non-scaling-stroke" d="
  M 453.49 341.52
  L 452.20 342.80"
/>
<path stroke="#ceed72" vector-effect="non-scaling-stroke" d="
  M 232.66 562.89
  L 234.19 568.17
  A 0.28 0.28 0.0 0 0 234.73 568.13
  Q 236.79 552.42 240.33 536.16
  Q 244.11 518.83 248.93 504.88
  Q 260.96 470.08 279.14 441.37
  Q 289.21 425.46 297.00 416.24
  Q 301.34 411.11 303.04 408.80
  A 9.34 8.90 88.6 0 1 304.22 407.50
  Q 307.35 404.67 309.36 401.54
  A 4.17 4.08 -6.5 0 1 309.97 400.79
  C 314.51 396.33 317.83 392.35 322.59 388.68
  Q 322.70 388.60 328.39 383.65
  Q 348.82 365.92 374.50 354.63"
/>
<path stroke="#62b81f" vector-effect="non-scaling-stroke" d="
  M 514.49 358.31
  Q 535.02 368.60 551.22 385.01"
/>
<path stroke="#5eb51e" vector-effect="non-scaling-stroke" d="
  M 551.22 385.01
  C 571.73 405.48 585.13 431.73 591.26 460.17
  Q 596.63 485.10 596.47 509.01
  Q 596.36 525.57 594.92 539.00
  Q 594.14 546.33 591.90 560.43
  C 591.52 562.83 590.85 564.82 590.07 567.02"
/>
<path stroke="#62b81f" vector-effect="non-scaling-stroke" d="
  M 590.07 567.02
  Q 587.74 570.94 584.38 573.60"
/>
<path stroke="#9ae737" vector-effect="non-scaling-stroke" d="
  M 584.38 573.60
  L 583.70 573.00"
/>
<path stroke="#6bb22a" vector-effect="non-scaling-stroke" d="
  M 506.67 591.30
  Q 518.74 606.46 530.74 621.75
  Q 545.51 640.57 574.58 673.43
  Q 601.60 703.96 625.91 729.97
  C 628.58 732.83 630.52 735.61 633.15 738.24
  Q 635.30 740.38 638.68 744.39
  Q 645.64 752.62 654.53 761.99
  A 0.70 0.70 0.0 0 0 655.66 761.81
  Q 658.33 756.32 655.20 750.94"
/>
<path stroke="#a6d855" vector-effect="non-scaling-stroke" d="
  M 663.71 753.48
  L 670.08 761.22"
/>
<path stroke="#b4e05d" vector-effect="non-scaling-stroke" d="
  M 749.54 575.50
  L 746.20 584.48"
/>
<path stroke="#afdf55" vector-effect="non-scaling-stroke" d="
  M 746.20 584.48
  C 738.85 583.93 733.43 579.29 730.10 572.94"
/>
<path stroke="#acdd54" vector-effect="non-scaling-stroke" d="
  M 730.10 572.94
  L 727.58 565.53"
/>
<path stroke="#a9db53" vector-effect="non-scaling-stroke" d="
  M 727.58 565.53
  Q 726.63 560.13 726.37 556.87
  Q 723.89 526.14 717.75 495.24
  Q 711.77 465.14 701.19 436.33
  Q 693.73 416.03 681.45 394.54
  Q 662.65 361.68 637.27 336.46"
/>
<path stroke="#a1d54d" vector-effect="non-scaling-stroke" d="
  M 612.44 314.52
  L 593.37 300.86"
/>
<path stroke="#c8ea70" vector-effect="non-scaling-stroke" d="
  M 559.15 272.62
  Q 575.74 279.25 591.19 288.62"
/>
<path stroke="#b8e460" vector-effect="non-scaling-stroke" d="
  M 591.19 288.62
  Q 582.02 290.27 572.44 288.69"
/>
<path stroke="#95cf3f" vector-effect="non-scaling-stroke" d="
  M 572.44 288.69
  Q 548.87 276.62 525.23 270.02
  Q 506.68 264.84 484.84 261.90"
/>
<path stroke="#bee468" vector-effect="non-scaling-stroke" d="
  M 553.93 270.34
  L 559.15 272.62"
/>
<path stroke="#9dd447" vector-effect="non-scaling-stroke" d="
  M 559.15 272.62
  Q 540.48 272.61 524.52 268.72
  Q 496.74 261.94 471.41 259.59"
/>
<path stroke="#b2df5d" vector-effect="non-scaling-stroke" d="
  M 812.69 576.24
  L 810.31 587.07"
/>
<path stroke="#59a41d" vector-effect="non-scaling-stroke" d="
  M 364.84 272.36
  Q 336.20 283.01 311.60 301.38
  Q 304.85 306.41 302.27 308.40
  Q 300.25 309.96 296.48 313.39
  Q 295.54 314.24 290.79 318.51
  Q 282.75 325.74 272.22 338.46
  Q 269.53 341.71 260.69 355.16
  Q 254.94 363.90 250.47 372.68
  Q 238.83 395.55 232.70 419.14
  Q 230.88 426.15 229.98 431.95
  C 228.29 442.84 225.81 454.32 225.25 464.32
  Q 223.76 490.85 226.36 510.88
  Q 228.91 530.56 230.40 539.27
  Q 231.73 547.04 229.07 553.37"
/>
<path stroke="#9ac84f" vector-effect="non-scaling-stroke" d="
  M 229.07 553.37
  L 226.22 544.55"
/>
<path stroke="#73b92b" vector-effect="non-scaling-stroke" d="
  M 588.79 576.03
  L 579.08 576.20
  A 0.16 0.15 1.9 0 0 578.92 576.34
  L 578.94 576.38
  A 0.50 0.49 76.1 0 0 579.40 576.66
  L 590.49 576.43
  A 0.05 0.05 0.0 0 1 590.54 576.48
  A 0.13 0.12 83.6 0 1 590.43 576.63
  Q 583.20 577.54 578.51 577.38
  Q 563.99 576.89 534.30 576.77
  Q 521.24 576.72 510.73 578.30
  A 1.30 1.29 -14.8 0 0 509.71 580.04
  Q 512.14 586.40 516.32 591.70"
/>
<path stroke="#68b124" vector-effect="non-scaling-stroke" d="
  M 516.32 591.70
  L 515.14 590.72
  A 0.07 0.07 0.0 0 0 515.04 590.82
  L 517.79 594.26"
/>
<path stroke="#59a520" vector-effect="non-scaling-stroke" d="
  M 517.79 594.26
  L 524.56 604.19
  A 0.07 0.06 4.7 0 1 524.46 604.27
  Q 516.12 596.85 506.67 591.30"
/>
<path stroke="#74b92f" vector-effect="non-scaling-stroke" d="
  M 506.67 591.30
  C 503.32 587.05 497.89 582.06 504.27 577.25"
/>
<path stroke="#59a520" vector-effect="non-scaling-stroke" d="
  M 595.04 449.20
  Q 601.52 470.33 602.69 491.35
  Q 604.03 515.31 601.92 540.91
  Q 601.06 551.30 599.49 558.06"
/>
<path stroke="#5eaa20" vector-effect="non-scaling-stroke" d="
  M 599.49 558.06
  L 593.41 574.51"
/>
<path stroke="#69b126" vector-effect="non-scaling-stroke" d="
  M 591.97 575.94
  L 588.79 576.03"
/>
<path stroke="#59a520" vector-effect="non-scaling-stroke" d="
  M 588.79 576.03
  L 580.41 575.43"
/>
<path stroke="#87cc33" vector-effect="non-scaling-stroke" d="
  M 580.41 575.43
  L 584.38 573.60"
/>
<path stroke="#86c634" vector-effect="non-scaling-stroke" d="
  M 515.48 258.82
  Q 506.15 258.44 499.84 257.85
  Q 485.22 256.47 471.41 259.59"
/>
<path stroke="#90cc3c" vector-effect="non-scaling-stroke" d="
  M 471.41 259.59
  Q 448.93 257.96 426.39 260.13
  Q 435.50 259.98 444.59 259.49
  Q 460.75 258.62 484.84 261.90"
/>
<path stroke="#7dc12c" vector-effect="non-scaling-stroke" d="
  M 484.84 261.90
  C 479.44 266.12 476.54 270.97 478.44 277.75
  Q 479.91 282.98 482.23 290.86
  Q 484.52 298.64 486.68 314.22
  C 488.35 326.31 489.62 333.13 498.49 339.93
  Q 505.37 345.22 509.05 346.95
  C 521.20 352.67 530.52 356.81 540.32 364.43
  Q 552.34 373.76 561.91 384.33
  Q 566.87 389.80 573.50 399.74"
/>
<path stroke="#6db527" vector-effect="non-scaling-stroke" d="
  M 573.50 399.74
  L 571.25 397.41"
/>
<path stroke="#64ad22" vector-effect="non-scaling-stroke" d="
  M 571.25 397.41
  L 560.27 383.98"
/>
<path stroke="#6db527" vector-effect="non-scaling-stroke" d="
  M 560.27 383.98
  C 545.23 366.84 525.69 354.49 504.34 347.33
  Q 499.34 345.65 480.29 340.35
  C 474.21 338.66 466.26 338.03 458.30 338.97
  Q 453.69 339.52 446.89 339.98
  Q 444.83 340.12 441.47 340.83
  A 0.03 0.02 37.1 0 0 441.48 340.88
  L 447.71 341.05"
/>
<path stroke="#b3dd59" vector-effect="non-scaling-stroke" d="
  M 447.71 341.05
  L 428.06 341.10
  A 1.02 0.95 -47.0 0 0 427.92 341.11
  L 401.56 345.26"
/>
<path stroke="#7fc231" vector-effect="non-scaling-stroke" d="
  M 401.56 345.26
  Q 409.80 341.10 418.09 337.91
  Q 418.85 337.62 423.21 336.93
  A 0.94 0.94 0.0 0 0 423.95 335.68
  L 423.94 335.65
  A 1.55 1.54 78.5 0 0 422.41 334.63
  Q 408.76 335.28 395.60 339.39
  Q 389.06 341.43 382.05 343.47"
/>
<path stroke="#73ba27" vector-effect="non-scaling-stroke" d="
  M 382.05 343.47
  Q 384.25 341.08 384.27 338.58
  C 384.28 336.44 382.11 334.34 381.33 332.91
  A 11.89 11.69 -68.5 0 1 380.49 330.93
  C 379.73 328.52 379.30 324.76 378.39 321.73
  Q 374.94 310.14 374.56 307.74
  Q 372.98 297.84 371.71 290.34
  Q 370.53 283.46 364.84 272.36"
/>
<path stroke="#5fa820" vector-effect="non-scaling-stroke" d="
  M 364.84 272.36
  L 371.92 269.97"
/>
<path stroke="#6db527" vector-effect="non-scaling-stroke" d="
  M 371.92 269.97
  Q 390.85 264.49 398.04 262.97
  Q 412.42 259.94 421.61 257.45
  Q 426.04 256.25 429.31 252.64"
/>
<path stroke="#549f1d" vector-effect="non-scaling-stroke" d="
  M 371.92 269.97
  L 377.24 261.87"
/>
<path stroke="#59a520" vector-effect="non-scaling-stroke" d="
  M 560.27 383.98
  Q 554.65 378.80 549.22 373.41
  A 0.06 0.04 34.1 0 0 549.12 373.41
  Q 549.12 373.46 549.11 373.50
  A 0.34 0.21 35.0 0 0 549.22 373.75
  Q 552.94 377.61 561.28 386.03
  Q 562.62 387.38 569.76 396.77
  A 0.04 0.03 52.0 0 1 569.76 396.82
  L 569.53 397.02
  A 0.20 0.20 0.0 0 1 569.24 396.99
  Q 560.79 385.81 549.96 375.55
  Q 542.92 368.89 537.05 365.15
  C 531.01 361.30 521.50 358.12 514.49 358.31"
/>
<path stroke="#6cc024" vector-effect="non-scaling-stroke" d="
  M 514.49 358.31
  Q 496.46 349.46 476.87 344.93
  Q 473.76 344.21 468.94 343.59
  Q 464.94 343.07 460.97 342.41
  Q 457.21 341.78 453.49 341.52"
/>
<path stroke="#a8d556" vector-effect="non-scaling-stroke" d="
  M 453.49 341.52
  L 447.71 341.05"
/>
<path stroke="#7abe2f" vector-effect="non-scaling-stroke" d="
  M 382.05 343.47
  L 375.26 346.30"
/>
<path stroke="#8eca40" vector-effect="non-scaling-stroke" d="
  M 375.26 346.30
  Q 365.64 349.67 356.72 354.51
  C 337.62 364.88 320.41 377.57 305.16 393.61
  C 273.55 426.83 251.13 466.77 238.12 510.62
  Q 233.39 526.55 231.75 542.50
  C 231.49 545.03 231.36 548.60 231.68 551.00
  Q 231.95 553.01 231.65 554.79
  A 2.22 2.22 0.0 0 0 231.76 555.94
  Q 232.98 559.26 232.66 562.89"
/>
<path stroke="#aeda56" vector-effect="non-scaling-stroke" d="
  M 232.66 562.89
  L 229.07 553.37"
/>
<path stroke="#bae261" vector-effect="non-scaling-stroke" d="
  M 401.56 345.26
  Q 387.93 349.06 374.50 354.63"
/>
<path stroke="#9ad24a" vector-effect="non-scaling-stroke" d="
  M 374.50 354.63
  L 375.26 346.30"
/>
<path stroke="#59a520" vector-effect="non-scaling-stroke" d="
  M 571.25 397.41
  Q 572.95 399.83 574.57 402.33
  Q 574.75 402.62 574.75 402.72
  A 0.11 0.11 0.0 0 1 574.55 402.79
  L 570.63 397.61
  A 0.22 0.21 -36.9 0 0 570.32 397.57
  L 570.31 397.57
  A 0.21 0.21 0.0 0 0 570.25 397.85
  Q 573.04 402.37 577.03 405.88"
/>
<path stroke="#4b9a1a" vector-effect="non-scaling-stroke" d="
  M 580.01 412.27
  Q 574.85 406.65 565.11 395.30
  Q 559.50 388.76 551.22 385.01"
/>
<path stroke="#55a11e" vector-effect="non-scaling-stroke" d="
  M 595.26 446.44
  L 595.04 449.20"
/>
<path stroke="#4b9a1a" vector-effect="non-scaling-stroke" d="
  M 595.04 449.20
  Q 596.24 456.29 597.84 463.32
  Q 600.73 476.01 601.44 486.66
  Q 602.89 508.10 602.19 527.77
  C 601.77 539.31 600.34 549.11 596.93 559.62
  Q 595.16 565.06 590.07 567.02"
/>
<path stroke="#a5d851" vector-effect="non-scaling-stroke" d="
  M 692.60 726.97
  Q 680.61 739.15 667.93 750.42
  Q 665.96 752.17 663.71 753.48"
/>
<path stroke="#85c635" vector-effect="non-scaling-stroke" d="
  M 663.71 753.48
  L 660.54 755.10
  A 0.66 0.65 -37.8 0 1 659.79 755.01
  L 655.20 750.94"
/>
<path stroke="#69b126" vector-effect="non-scaling-stroke" d="
  M 655.20 750.94
  Q 639.98 734.83 636.08 730.41
  C 616.71 708.48 604.18 694.22 590.44 679.67
  C 580.95 669.64 571.76 657.82 562.74 648.02
  C 555.89 640.58 550.63 633.41 542.78 624.26
  C 538.25 618.98 532.99 612.03 528.00 606.00"
/>
<path stroke="#78be2b" vector-effect="non-scaling-stroke" d="
  M 528.00 606.00
  Q 527.83 605.47 527.49 605.06"
/>
<path stroke="#7ec12d" vector-effect="non-scaling-stroke" d="
  M 527.49 605.06
  Q 523.84 598.73 518.48 593.81"
/>
<path stroke="#78be2b" vector-effect="non-scaling-stroke" d="
  M 518.48 593.81
  L 516.32 591.70"
/>
<path stroke="#a6d950" vector-effect="non-scaling-stroke" d="
  M 572.44 288.69
  L 593.37 300.86"
/>
<path stroke="#7dc12c" vector-effect="non-scaling-stroke" d="
  M 593.37 300.86
  Q 593.17 301.16 593.19 301.45
  Q 593.20 301.70 593.51 301.95
  Q 602.29 309.08 612.44 314.52"
/>
<path stroke="#a6d950" vector-effect="non-scaling-stroke" d="
  M 612.44 314.52
  Q 625.29 324.44 637.27 336.46"
/>
<path stroke="#86c731" vector-effect="non-scaling-stroke" d="
  M 637.27 336.46
  C 631.71 333.42 627.13 328.76 622.49 324.47
  A 1.82 1.80 72.9 0 0 621.65 324.02
  C 614.64 322.38 607.79 321.51 601.19 325.40
  Q 593.24 330.08 588.73 337.80
  C 585.42 343.45 585.02 350.42 585.62 356.46
  C 586.34 363.76 586.76 368.48 585.96 374.84
  C 585.28 380.26 585.31 384.63 586.98 390.47
  C 589.27 398.42 590.17 405.01 589.17 414.00
  Q 588.60 419.09 589.94 431.87"
/>
<path stroke="#65ad23" vector-effect="non-scaling-stroke" d="
  M 589.94 431.87
  Q 586.44 424.15 582.76 416.70
  Q 581.58 414.31 580.01 412.27"
/>
<path stroke="#69b125" vector-effect="non-scaling-stroke" d="
  M 580.01 412.27
  L 577.03 405.88"
/>
<path stroke="#72b829" vector-effect="non-scaling-stroke" d="
  M 577.03 405.88
  L 573.50 399.74"
/>
<path stroke="#8ccb35" vector-effect="non-scaling-stroke" d="
  M 727.58 565.53
  Q 725.78 562.07 725.57 559.85
  Q 724.08 544.17 722.72 533.47
  C 715.73 478.58 701.37 424.63 670.63 379.14
  Q 669.72 377.80 668.05 375.65
  A 1.88 1.87 -7.8 0 0 667.27 375.06
  C 658.42 371.51 649.44 369.23 643.21 378.33
  C 639.36 383.97 638.92 391.35 639.12 398.51
  C 639.34 406.46 640.24 419.35 640.37 429.97
  Q 640.63 452.52 641.62 469.29
  C 642.21 479.19 642.04 491.78 643.12 500.78
  Q 644.73 514.20 649.07 536.34
  C 649.87 540.46 650.65 544.96 650.56 548.35
  Q 650.31 557.85 650.32 565.62
  Q 650.32 589.55 656.76 611.09
  Q 658.29 616.22 662.98 630.66
  C 666.87 642.64 675.01 654.16 679.46 661.07
  C 685.01 669.67 689.82 679.47 694.44 687.84
  Q 700.52 698.85 710.50 706.89
  A 0.55 0.55 0.0 0 1 710.61 707.63
  L 708.77 710.24"
/>
<path stroke="#a8da52" vector-effect="non-scaling-stroke" d="
  M 708.77 710.24
  L 692.60 726.97"
/>
<path stroke="#86c733" vector-effect="non-scaling-stroke" d="
  M 692.60 726.97
  Q 681.16 721.49 673.56 710.63
  Q 664.49 697.67 648.31 676.51
  C 643.29 669.94 635.55 662.13 630.72 655.66
  C 618.41 639.15 609.45 620.10 603.02 600.15
  C 601.24 594.64 598.66 590.92 594.29 583.60
  Q 592.98 581.42 591.97 575.94"
/>
<path stroke="#6cb328" vector-effect="non-scaling-stroke" d="
  M 591.97 575.94
  Q 592.44 575.14 593.41 574.51"
/>
<path stroke="#7bc02c" vector-effect="non-scaling-stroke" d="
  M 593.41 574.51
  C 596.15 571.50 597.49 567.73 599.08 564.04"
/>
<path stroke="#76bb2c" vector-effect="non-scaling-stroke" d="
  M 599.08 564.04
  L 599.99 561.53"
/>
<path stroke="#86c731" vector-effect="non-scaling-stroke" d="
  M 599.99 561.53
  Q 602.31 555.67 602.19 549.21"
/>
<path stroke="#76bb2c" vector-effect="non-scaling-stroke" d="
  M 602.19 549.21
  Q 603.22 539.28 604.61 529.38
  Q 605.45 523.35 604.98 506.88
  Q 604.75 498.90 604.08 488.78
  Q 603.20 475.54 600.25 462.50
  Q 600.23 462.43 599.73 460.64
  Q 597.72 453.49 595.26 446.44"
/>
<path stroke="#68b026" vector-effect="non-scaling-stroke" d="
  M 595.26 446.44
  L 589.94 431.87"
/>
<path stroke="#92cf38" vector-effect="non-scaling-stroke" d="
  M 730.10 572.94
  C 724.25 573.57 719.69 575.19 717.91 581.24
  C 715.24 590.32 716.72 601.12 719.89 609.93
  Q 722.24 616.46 729.96 633.95
  Q 730.69 635.59 734.63 642.03
  Q 742.23 654.43 756.44 657.45"
/>
<path stroke="#abdb53" vector-effect="non-scaling-stroke" d="
  M 756.44 657.45
  Q 733.45 684.77 708.77 710.24"
/>
<path stroke="#9ad241" vector-effect="non-scaling-stroke" d="
  M 746.20 584.48
  Q 769.81 583.13 793.46 583.48
  Q 798.73 583.56 803.94 584.39
  Q 807.42 584.95 810.31 587.07"
/>
<path stroke="#aede55" vector-effect="non-scaling-stroke" d="
  M 810.31 587.07
  Q 807.18 591.72 801.75 599.02
  Q 782.87 624.42 766.10 645.60
  Q 761.27 651.69 756.44 657.45"
/>
<path stroke="#73ba27" vector-effect="non-scaling-stroke" d="
  M 518.48 593.81
  L 527.49 605.06"
/>
<path stroke="#5eaa20" vector-effect="non-scaling-stroke" d="
  M 528.00 606.00
  L 517.79 594.26"
/>
<path stroke="#72b829" vector-effect="non-scaling-stroke" d="
  M 602.19 549.21
  L 599.99 561.53"
/>
<path stroke="#68b124" vector-effect="non-scaling-stroke" d="
  M 599.08 564.04
  L 599.49 558.06"
/>
<path stroke="#7dc12c" vector-effect="non-scaling-stroke" d="
  M 576.8563 404.2273
  A 1.40 0.25 -118.3 0 0 577.2999 405.5785
  A 1.40 0.25 -118.3 0 0 578.1837 406.6927
  A 1.40 0.25 -118.3 0 0 577.7401 405.3415
  A 1.40 0.25 -118.3 0 0 576.8563 404.2273"
/>
<path stroke="#7dc12c" vector-effect="non-scaling-stroke" d="
  M 582.28 414.02
  Q 582.88 415.23 583.62 416.53
  A 0.03 0.02 39.7 0 0 583.67 416.53
  Q 583.67 416.51 583.65 416.47
  Q 583.00 415.13 582.28 414.02"
/>
<path stroke="#7dc12c" vector-effect="non-scaling-stroke" d="
  M 582.28 414.02
  Q 581.91 412.44 581.01 411.75
  A 0.18 0.18 0.0 0 0 580.73 411.96
  Q 581.22 413.27 582.28 414.02"
/>
<path stroke="#5eaa20" vector-effect="non-scaling-stroke" d="
  M 600.4153 551.7551
  A 0.72 0.08 -83.2 0 0 600.2506 552.4605
  A 0.72 0.08 -83.2 0 0 600.2447 553.1849
  A 0.72 0.08 -83.2 0 0 600.4094 552.4795
  A 0.72 0.08 -83.2 0 0 600.4153 551.7551"
/>
<path stroke="#6db527" vector-effect="non-scaling-stroke" d="
  M 602.2940 473.3088
  A 0.26 0.26 0.0 0 0 602.0095 473.0759
  L 601.8901 473.0878
  A 0.26 0.26 0.0 0 0 601.6572 473.3723
  L 603.2860 489.6912
  A 0.26 0.26 0.0 0 0 603.5705 489.9241
  L 603.6899 489.9122
  A 0.26 0.26 0.0 0 0 603.9228 489.6277
  L 602.2940 473.3088"
/>
<path stroke="#68b124" vector-effect="non-scaling-stroke" d="
  M 509.6183 584.0177
  A 1.24 0.25 -122.8 0 0 510.0799 585.1954
  A 1.24 0.25 -122.8 0 0 510.9617 586.1023
  A 1.24 0.25 -122.8 0 0 510.5001 584.9246
  A 1.24 0.25 -122.8 0 0 509.6183 584.0177"
/>
<path stroke="#8bca38" vector-effect="non-scaling-stroke" d="
  M 534.50 582.75
  L 566.37 582.75
  A 0.20 0.19 66.4 0 0 566.50 582.41
  C 564.60 580.58 559.90 580.36 557.38 580.28
  C 549.30 580.00 541.30 579.80 534.38 582.03
  A 0.37 0.37 0.0 0 0 534.50 582.75"
/>
</g>
<path fill="#010c01" d="
  M 348.60 230.82
  Q 348.78 230.77 348.91 230.64
  Q 349.11 230.45 349.18 230.42
  Q 362.45 225.67 370.11 223.59
  Q 385.71 219.35 401.00 216.51
  Q 405.44 215.69 418.93 214.22
  Q 428.87 213.13 436.95 213.01
  Q 459.57 212.68 469.25 213.35
  Q 481.10 214.18 491.91 215.47
  Q 496.85 216.06 502.07 216.96
  Q 534.38 222.51 565.13 234.18
  Q 601.76 248.09 638.61 274.67
  Q 642.10 277.18 654.39 287.51
  C 678.32 307.59 699.00 332.10 715.14 358.81
  Q 741.98 403.19 755.34 454.88
  Q 763.83 487.72 767.09 519.50
  Q 767.24 520.92 768.84 534.03
  Q 768.85 534.05 768.94 535.47
  Q 769.13 538.21 771.95 539.11
  A 0.40 0.34 49.7 0 0 772.07 539.13
  Q 804.35 538.91 819.52 539.04
  Q 825.50 539.09 833.41 541.57
  Q 850.20 546.83 857.91 562.75
  Q 860.22 567.53 860.86 573.55
  Q 861.50 579.63 860.67 584.74
  Q 859.98 588.94 857.15 594.90
  Q 855.16 599.09 851.70 604.19
  C 835.42 628.19 818.37 649.60 799.24 672.99
  Q 781.66 694.49 764.16 713.91
  Q 756.92 721.95 735.24 744.99
  C 722.70 758.31 706.49 773.93 690.58 787.88
  Q 682.32 795.13 676.11 797.96
  Q 661.47 804.63 644.66 800.58
  A 1.48 1.27 60.8 0 1 644.31 800.45
  Q 642.80 799.72 640.05 798.90
  Q 636.94 797.96 633.39 795.35
  C 628.28 791.59 623.81 787.55 619.32 782.21
  C 615.89 778.13 611.33 774.07 607.77 769.83
  Q 605.47 767.11 582.86 742.32
  Q 571.70 730.09 551.11 707.13
  Q 537.44 691.89 524.89 677.16
  Q 505.23 654.10 499.30 646.78
  Q 488.00 632.85 473.17 613.63
  Q 466.45 604.93 463.36 594.61
  C 461.08 586.97 461.23 577.56 464.06 570.06
  Q 472.93 546.51 496.23 540.48
  Q 502.20 538.94 511.93 538.94
  Q 543.86 538.96 550.53 539.13
  Q 555.17 539.24 555.65 535.38
  C 556.21 530.85 556.86 527.48 556.95 523.20
  Q 557.32 506.90 556.91 501.50
  Q 555.85 487.40 553.59 475.60
  Q 551.58 465.11 546.83 452.39
  Q 540.49 435.42 529.02 420.71
  Q 517.71 406.20 501.81 396.80
  Q 483.48 385.97 462.50 382.49
  Q 437.83 378.40 415.74 383.02
  Q 401.24 386.06 388.07 392.58
  C 371.83 400.62 357.69 411.51 345.10 423.61
  Q 341.30 427.25 334.45 434.95
  Q 318.06 453.36 306.50 473.76
  Q 296.04 492.20 288.99 511.00
  Q 279.06 537.46 274.10 565.33
  C 273.68 567.69 273.09 569.68 272.84 572.49
  Q 272.60 575.30 271.66 579.97
  Q 270.61 585.22 269.82 587.33
  Q 265.06 599.90 252.95 606.58
  C 247.67 609.49 242.56 610.11 235.75 610.73
  Q 234.97 610.80 228.82 610.10
  Q 224.77 609.64 222.03 608.66
  Q 212.12 605.10 205.40 597.27
  Q 201.25 592.42 196.43 579.13
  Q 190.94 563.99 187.65 550.86
  Q 184.13 536.87 181.39 517.40
  Q 180.94 514.18 180.93 512.08
  C 180.92 509.50 180.05 507.39 180.06 504.99
  C 180.09 499.98 179.07 493.72 179.02 487.33
  Q 178.93 476.72 179.02 465.60
  C 179.06 461.23 179.76 456.51 180.01 453.26
  Q 182.89 416.30 196.23 381.19
  C 215.22 331.17 249.12 288.56 293.80 258.80
  Q 318.70 242.21 345.00 232.04
  Q 347.36 231.12 348.60 230.82
  Z
  M 290.26 499.11
  Q 293.36 490.45 298.05 482.55
  C 299.06 480.84 300.03 478.54 300.97 476.53
  A 2.01 1.95 83.2 0 1 301.51 475.82
  Q 302.62 474.87 302.65 473.89
  A 0.96 0.92 -28.2 0 1 302.83 473.34
  Q 303.81 472.01 306.35 467.02
  Q 307.95 463.88 309.98 461.10
  Q 311.87 458.53 313.88 455.35
  Q 315.59 452.66 319.12 447.99
  A 2.39 2.14 78.6 0 0 319.36 447.58
  Q 319.97 446.19 321.29 445.13
  C 322.06 444.52 322.22 443.45 323.03 442.52
  Q 333.88 430.03 343.50 420.26
  Q 353.51 411.94 363.65 403.69
  Q 365.02 402.58 365.63 402.17
  Q 366.96 401.30 367.82 400.94
  Q 372.22 399.14 375.91 396.58
  C 381.60 392.62 386.50 390.10 392.06 387.89
  Q 408.10 381.52 425.21 379.30
  C 437.95 378.89 451.71 378.17 463.84 380.91
  C 473.14 383.01 482.78 385.31 491.97 389.72
  Q 505.02 395.99 518.01 406.27
  C 523.38 410.52 528.01 416.84 531.49 420.77
  C 539.85 430.20 545.83 442.08 549.78 453.94
  Q 553.84 466.14 555.37 473.64
  Q 557.49 484.11 559.10 498.59
  Q 560.75 513.39 558.27 531.96
  Q 557.48 537.83 553.51 541.08
  A 1.65 1.63 22.8 0 1 552.59 541.45
  Q 547.11 541.86 544.25 541.79
  C 528.11 541.40 515.61 540.94 504.19 541.97
  L 493.65 543.70
  A 5.70 5.54 -62.3 0 0 491.97 544.25
  Q 482.82 548.95 480.31 551.11
  Q 473.36 557.11 468.30 567.33
  C 464.07 575.87 463.11 584.71 466.00 593.81
  C 467.97 600.01 468.89 603.33 471.70 607.14
  Q 476.33 613.44 480.83 619.93
  C 485.28 626.35 490.85 631.40 495.47 637.62
  Q 500.42 644.29 502.51 646.48
  C 508.11 652.33 515.48 660.33 520.81 667.61
  C 526.30 675.11 532.78 680.82 538.40 688.63
  C 542.06 693.73 544.42 695.74 549.09 701.65
  Q 551.39 704.56 555.55 708.44
  Q 559.02 711.69 568.33 722.17
  C 577.89 732.93 586.03 740.96 593.66 750.06
  C 596.69 753.68 599.31 756.17 603.50 760.47
  C 607.65 764.73 613.09 771.74 617.76 776.59
  Q 618.50 777.36 624.34 784.08
  Q 628.54 788.91 634.79 793.71
  C 638.02 796.19 643.33 798.51 646.47 798.98
  Q 650.02 799.52 656.09 799.90
  C 659.47 800.10 663.82 799.28 667.49 799.13
  A 1.92 1.90 27.6 0 0 668.43 798.84
  Q 670.79 797.32 671.47 797.14
  Q 676.64 795.78 677.41 795.10
  C 680.03 792.78 682.76 791.39 685.40 789.11
  Q 693.43 782.15 697.54 778.36
  C 699.48 776.57 701.14 774.43 703.36 772.89
  A 3.47 3.26 1.8 0 0 704.05 772.28
  C 706.57 769.42 707.87 767.60 710.26 765.62
  Q 713.12 763.25 717.95 758.96
  Q 720.39 756.80 721.74 753.94
  Q 726.39 749.72 730.60 745.07
  Q 733.19 742.21 737.02 738.53
  Q 741.07 734.64 743.48 732.00
  Q 755.45 718.87 756.13 718.00
  Q 761.65 710.98 767.84 704.42
  Q 772.17 699.83 779.78 691.01
  Q 789.63 679.59 799.54 667.96
  C 803.29 663.56 805.81 659.24 809.36 655.18
  Q 811.85 652.35 815.91 647.18
  Q 826.81 633.31 826.86 633.26
  C 834.30 623.93 842.64 611.22 849.72 601.88
  Q 852.77 597.87 854.31 594.37
  Q 857.39 587.42 857.59 586.18
  C 858.51 580.52 858.97 573.42 856.99 568.23
  Q 849.54 548.71 830.93 543.69
  Q 823.42 541.66 811.14 542.13
  Q 811.12 542.13 773.25 542.04
  Q 770.11 542.03 767.68 540.65
  A 2.25 2.25 0.0 0 1 766.54 538.86
  L 765.70 527.64
  A 0.11 0.10 -75.0 0 0 765.65 527.55
  Q 765.20 527.29 765.18 526.67
  Q 765.15 525.73 764.92 523.77
  Q 762.82 506.44 762.81 506.40
  Q 760.43 490.18 754.55 463.10
  C 748.43 434.92 736.91 405.48 723.03 378.69
  Q 708.62 350.88 689.42 327.18
  Q 681.91 317.91 673.00 308.86
  Q 666.35 302.11 655.25 291.74
  Q 651.73 288.46 634.54 275.40
  Q 620.90 265.03 606.29 257.01
  Q 597.21 252.03 596.84 251.82
  Q 591.80 249.04 586.67 246.57
  Q 575.86 241.30 569.65 238.88
  Q 534.87 225.29 497.99 219.10
  C 491.11 217.94 484.74 217.61 477.55 217.28
  Q 473.23 217.08 469.41 216.19
  A 5.05 5.00 52.4 0 0 468.52 216.07
  Q 443.16 215.32 416.37 216.98
  A 4.61 4.30 -52.7 0 0 415.44 217.14
  Q 412.82 217.90 410.68 217.99
  C 407.05 218.14 404.00 218.98 399.75 219.67
  A 1.24 0.07 -23.8 0 0 398.82 220.02
  Q 398.01 220.36 396.76 220.45
  Q 393.01 220.75 380.70 223.71
  Q 379.66 223.96 379.26 223.88
  Q 378.44 223.70 377.87 224.17
  Q 377.31 224.63 375.88 225.01
  Q 322.88 239.07 279.66 272.15
  Q 276.64 274.46 274.65 276.71
  A 4.53 4.33 1.3 0 1 273.96 277.34
  Q 269.95 280.33 265.23 284.72
  Q 259.88 289.70 253.51 296.04
  Q 247.41 302.11 242.54 308.06
  Q 226.94 327.11 214.99 347.70
  Q 212.08 352.71 202.11 373.35
  Q 200.43 376.84 199.50 380.04
  C 197.77 385.99 195.45 391.44 193.96 397.10
  Q 190.11 411.76 187.80 421.65
  C 185.49 431.54 184.53 441.60 183.22 452.36
  C 179.69 481.53 182.79 511.20 188.48 540.30
  Q 190.25 549.36 192.73 556.83
  C 195.53 565.22 197.20 572.24 199.93 579.04
  C 201.92 583.99 203.17 589.24 205.99 592.89
  C 210.08 598.20 215.78 602.66 221.90 605.76
  C 229.32 609.52 243.67 608.60 251.08 604.74
  C 258.05 601.10 263.89 594.21 267.05 586.98
  Q 268.60 583.44 270.45 571.68
  Q 274.69 544.65 284.26 516.26
  C 286.18 510.56 288.91 505.89 290.26 499.11
  Z"
/>
<path fill="#1d5d0c" d="
  M 586.67 246.57
  Q 584.41 247.73 584.48 249.78
  Q 557.99 238.39 547.66 235.35
  C 527.44 229.40 511.40 225.25 494.02 223.04
  Q 469.15 219.87 443.14 220.24
  C 423.48 220.53 403.70 223.23 386.95 226.96
  Q 366.60 231.48 342.85 240.93
  Q 322.66 248.97 307.03 259.30
  C 302.81 262.09 295.58 266.34 291.04 269.67
  Q 262.77 290.40 240.25 318.36
  Q 235.59 324.15 231.96 330.22
  C 228.96 335.23 222.55 343.83 218.84 350.93
  C 214.79 358.69 211.10 364.67 207.69 373.25
  Q 202.81 385.51 201.97 388.22
  C 198.37 399.86 196.11 406.04 194.33 413.19
  Q 193.40 416.93 193.02 419.64
  C 191.37 431.18 188.46 444.03 187.53 456.14
  Q 185.45 483.16 188.42 510.74
  C 189.23 518.26 190.99 526.04 191.78 533.07
  Q 192.67 541.06 194.95 549.67
  Q 198.84 564.33 201.85 573.68
  Q 202.61 576.03 206.72 584.99
  Q 214.30 601.51 232.18 603.62
  C 242.78 604.88 251.02 601.15 258.20 593.43
  Q 254.70 598.20 249.74 601.22
  A 0.58 0.57 -31.2 0 0 249.54 602.01
  L 249.59 602.09
  A 0.60 0.60 0.0 0 0 250.36 602.32
  Q 261.46 597.08 265.57 585.87
  C 268.81 577.05 269.56 567.49 272.05 558.14
  Q 274.38 549.43 277.25 535.87
  Q 278.67 529.21 281.04 522.46
  C 284.53 512.53 286.35 506.88 290.26 499.11
  C 288.91 505.89 286.18 510.56 284.26 516.26
  Q 274.69 544.65 270.45 571.68
  Q 268.60 583.44 267.05 586.98
  C 263.89 594.21 258.05 601.10 251.08 604.74
  C 243.67 608.60 229.32 609.52 221.90 605.76
  C 215.78 602.66 210.08 598.20 205.99 592.89
  C 203.17 589.24 201.92 583.99 199.93 579.04
  C 197.20 572.24 195.53 565.22 192.73 556.83
  Q 190.25 549.36 188.48 540.30
  C 182.79 511.20 179.69 481.53 183.22 452.36
  C 184.53 441.60 185.49 431.54 187.80 421.65
  Q 190.11 411.76 193.96 397.10
  C 195.45 391.44 197.77 385.99 199.50 380.04
  Q 200.43 376.84 202.11 373.35
  Q 212.08 352.71 214.99 347.70
  Q 226.94 327.11 242.54 308.06
  Q 247.41 302.11 253.51 296.04
  Q 259.88 289.70 265.23 284.72
  Q 269.95 280.33 273.96 277.34
  A 4.53 4.33 1.3 0 0 274.65 276.71
  Q 276.64 274.46 279.66 272.15
  Q 322.88 239.07 375.88 225.01
  Q 377.31 224.63 377.87 224.17
  Q 378.44 223.70 379.26 223.88
  Q 379.66 223.96 380.70 223.71
  Q 393.01 220.75 396.76 220.45
  Q 398.01 220.36 398.82 220.02
  A 1.24 0.07 -23.8 0 1 399.75 219.67
  C 404.00 218.98 407.05 218.14 410.68 217.99
  Q 412.82 217.90 415.44 217.14
  A 4.61 4.30 -52.7 0 1 416.37 216.98
  Q 443.16 215.32 468.52 216.07
  A 5.05 5.00 52.4 0 1 469.41 216.19
  Q 473.23 217.08 477.55 217.28
  C 484.74 217.61 491.11 217.94 497.99 219.10
  Q 534.87 225.29 569.65 238.88
  Q 575.86 241.30 586.67 246.57
  Z"
/>
<path fill="#035200" d="
  M 584.48 249.78
  Q 607.85 262.13 614.04 265.93
  Q 641.07 282.53 670.34 311.80
  Q 678.76 320.22 687.23 330.90
  C 711.77 361.84 729.92 397.08 742.41 434.29
  C 744.39 440.20 745.82 446.13 747.33 451.23
  Q 749.21 457.55 750.65 464.02
  Q 756.99 492.47 760.18 517.75
  Q 760.59 521.03 762.10 534.48
  C 762.81 540.82 765.92 544.55 772.53 544.72
  Q 782.97 545.00 811.24 545.15
  C 824.34 545.21 835.46 547.38 844.73 556.46
  Q 852.29 563.86 853.95 574.02
  Q 855.73 584.95 848.22 596.72
  C 845.90 600.36 843.33 604.41 841.30 607.18
  Q 830.92 621.27 820.01 636.06
  C 814.52 643.51 808.47 650.22 802.78 657.79
  Q 802.74 657.84 801.04 660.00
  Q 790.48 673.43 779.86 685.58
  Q 774.01 692.27 762.92 704.78
  Q 758.20 710.11 751.00 717.68
  Q 747.78 721.07 739.15 730.65
  Q 730.84 739.87 714.54 756.20
  Q 710.06 760.69 703.71 766.53
  C 694.79 774.72 686.31 783.06 676.48 790.19
  C 665.08 795.56 653.83 797.43 642.07 792.29
  Q 635.85 789.56 626.13 779.40
  Q 615.97 768.78 610.73 762.69
  C 604.44 755.37 599.16 750.42 593.22 743.20
  Q 588.96 738.03 580.32 728.79
  Q 569.38 717.08 558.65 704.30
  Q 556.12 701.27 537.07 679.99
  Q 525.84 667.45 514.82 653.73
  C 509.63 647.26 502.61 639.92 498.76 634.93
  Q 483.26 614.77 479.50 609.76
  Q 475.94 605.01 472.68 599.31
  C 465.38 586.50 468.74 570.38 478.09 559.66
  Q 489.14 546.98 506.85 545.62
  C 521.31 544.52 534.50 544.87 549.98 545.09
  C 555.78 545.17 560.65 544.16 562.19 537.92
  Q 563.36 533.14 563.64 529.09
  C 564.88 510.65 564.70 492.85 561.12 475.86
  Q 558.43 463.11 553.61 449.29
  Q 550.89 441.52 545.95 433.41
  Q 537.02 418.77 536.44 418.07
  Q 521.39 400.05 505.01 390.76
  Q 491.19 382.92 479.57 379.43
  Q 469.10 376.28 454.99 374.20
  Q 443.23 372.47 430.82 373.64
  Q 411.97 375.43 394.46 382.11
  Q 379.75 388.49 376.34 390.84
  Q 370.58 394.81 364.32 398.80
  Q 362.42 400.02 358.80 402.87
  Q 358.20 403.35 353.40 407.16
  Q 342.19 416.06 326.91 433.15
  Q 324.72 435.59 318.22 443.80
  Q 313.33 449.98 310.13 454.91
  Q 284.12 495.00 272.74 539.02
  Q 270.89 546.17 269.96 550.32
  C 267.62 560.88 266.87 567.67 264.88 579.43
  Q 264.01 584.53 260.73 589.52
  Q 259.43 591.49 258.20 593.43
  C 251.02 601.15 242.78 604.88 232.18 603.62
  Q 214.30 601.51 206.72 584.99
  Q 202.61 576.03 201.85 573.68
  Q 198.84 564.33 194.95 549.67
  Q 192.67 541.06 191.78 533.07
  C 190.99 526.04 189.23 518.26 188.42 510.74
  Q 185.45 483.16 187.53 456.14
  C 188.46 444.03 191.37 431.18 193.02 419.64
  Q 193.40 416.93 194.33 413.19
  C 196.11 406.04 198.37 399.86 201.97 388.22
  Q 202.81 385.51 207.69 373.25
  C 211.10 364.67 214.79 358.69 218.84 350.93
  C 222.55 343.83 228.96 335.23 231.96 330.22
  Q 235.59 324.15 240.25 318.36
  Q 262.77 290.40 291.04 269.67
  C 295.58 266.34 302.81 262.09 307.03 259.30
  Q 322.66 248.97 342.85 240.93
  Q 366.60 231.48 386.95 226.96
  C 403.70 223.23 423.48 220.53 443.14 220.24
  Q 469.15 219.87 494.02 223.04
  C 511.40 225.25 527.44 229.40 547.66 235.35
  Q 557.99 238.39 584.48 249.78
  Z
  M 682.08 753.19
  Q 691.44 743.91 700.97 734.77
  Q 706.67 729.32 709.99 725.69
  C 717.33 717.67 724.78 710.71 732.13 702.56
  Q 759.33 672.42 772.05 656.81
  Q 790.65 633.99 803.49 616.74
  Q 811.29 606.25 823.10 589.19
  Q 826.21 584.70 826.36 582.72
  Q 826.63 579.07 823.58 576.10
  Q 823.21 575.74 822.77 576.07
  Q 822.49 576.27 822.39 576.67
  Q 819.50 574.72 815.50 574.78
  Q 783.55 575.27 751.77 574.77
  Q 752.28 574.09 751.89 573.49
  A 0.55 0.53 77.1 0 0 751.54 573.26
  Q 740.04 570.89 739.01 559.67
  Q 735.76 524.62 730.61 496.47
  Q 722.34 451.29 704.13 411.13
  Q 697.95 397.51 685.94 378.06
  Q 677.94 363.19 671.37 353.67
  C 660.67 338.15 646.78 323.71 631.87 310.35
  Q 605.20 286.46 571.71 269.36
  Q 550.72 258.65 529.35 253.39
  C 497.69 245.62 462.72 241.03 431.03 242.38
  C 397.89 243.79 366.84 251.71 335.51 264.27
  C 292.32 281.56 256.87 315.64 234.10 355.80
  Q 196.36 422.37 202.38 499.04
  Q 204.32 523.77 211.19 547.00
  Q 217.24 567.45 233.45 580.43
  A 2.35 2.34 35.9 0 0 236.88 579.89
  C 239.76 575.49 241.37 571.82 242.17 566.04
  C 247.00 531.26 255.41 498.28 271.42 467.75
  C 286.41 439.19 305.35 413.67 330.13 392.82
  C 342.38 382.52 355.73 374.46 369.54 367.98
  C 413.64 347.27 468.68 349.14 510.12 374.11
  C 534.22 388.64 553.81 411.27 564.48 437.43
  Q 570.23 451.53 573.24 468.24
  Q 577.95 494.36 577.15 520.15
  Q 576.73 533.68 573.13 545.00
  C 568.95 558.11 558.78 564.34 545.44 565.54
  Q 535.62 566.43 520.32 566.57
  Q 515.93 566.61 496.91 568.22
  A 1.99 1.97 -67.6 0 0 495.75 568.71
  L 487.62 575.84
  A 1.66 1.65 -24.3 0 0 487.07 577.29
  Q 488.59 589.91 491.88 597.84
  C 496.17 608.19 505.79 620.22 513.78 629.64
  Q 527.96 646.36 558.81 682.36
  C 566.68 691.54 578.88 706.98 588.54 717.91
  Q 593.33 723.32 620.82 750.52
  C 634.08 763.65 654.44 777.58 672.42 763.01
  Q 677.47 758.92 682.08 753.19
  Z"
/>
<path fill="#014600" d="
  M 685.94 378.06
  Q 674.07 359.42 659.76 342.77
  Q 646.56 327.40 631.13 314.37
  Q 615.01 300.75 598.70 290.37
  Q 555.00 262.56 502.44 253.32
  Q 496.42 252.26 479.42 250.16
  C 476.50 249.80 474.33 250.01 471.83 249.63
  Q 469.05 249.20 466.15 249.15
  Q 443.83 248.75 438.25 249.17
  Q 431.01 249.71 423.81 250.04
  Q 415.43 249.30 408.81 249.94
  Q 387.19 252.02 364.29 259.12
  C 333.25 268.74 305.50 282.18 283.09 302.69
  C 223.43 357.27 197.01 442.65 210.85 521.68
  C 214.27 541.19 219.77 557.23 232.18 571.82
  Q 232.40 574.27 233.55 576.76
  Q 234.44 578.69 235.94 578.19
  Q 237.06 577.82 237.17 576.61
  Q 238.78 559.78 241.17 546.89
  Q 242.54 539.47 246.08 524.40
  Q 248.52 513.97 252.68 502.36
  Q 258.45 486.24 265.64 471.16
  Q 285.36 429.85 316.76 397.55
  C 321.08 393.11 324.55 390.30 330.44 385.21
  Q 354.53 364.38 385.58 353.13
  C 400.06 347.87 414.10 345.46 428.74 344.13
  Q 440.70 343.05 461.15 345.23
  Q 470.29 348.62 486.06 355.17
  C 520.84 369.62 549.71 393.13 566.25 426.73
  C 574.55 443.58 579.15 463.57 581.63 482.80
  Q 584.78 507.16 583.09 530.99
  Q 581.54 552.79 572.82 573.40
  L 506.36 573.34
  L 501.56 572.19
  A 0.86 0.83 -50.8 0 0 500.96 572.26
  L 494.83 575.45
  A 1.00 0.97 86.4 0 0 494.35 576.01
  Q 493.99 577.06 492.91 578.06
  A 0.95 0.93 60.0 0 0 492.66 579.03
  Q 496.60 591.45 499.89 597.65
  Q 506.21 609.56 516.62 621.96
  Q 561.07 674.89 572.86 688.45
  Q 592.26 710.77 600.73 719.61
  C 618.16 737.82 632.11 753.54 651.92 767.70
  A 1.39 1.39 0.0 0 0 652.79 767.96
  L 660.18 767.69
  Q 665.71 767.80 669.39 764.90
  Q 673.82 761.41 682.08 753.19
  Q 677.47 758.92 672.42 763.01
  C 654.44 777.58 634.08 763.65 620.82 750.52
  Q 593.33 723.32 588.54 717.91
  C 578.88 706.98 566.68 691.54 558.81 682.36
  Q 527.96 646.36 513.78 629.64
  C 505.79 620.22 496.17 608.19 491.88 597.84
  Q 488.59 589.91 487.07 577.29
  A 1.66 1.65 -24.3 0 1 487.62 575.84
  L 495.75 568.71
  A 1.99 1.97 -67.6 0 1 496.91 568.22
  Q 515.93 566.61 520.32 566.57
  Q 535.62 566.43 545.44 565.54
  C 558.78 564.34 568.95 558.11 573.13 545.00
  Q 576.73 533.68 577.15 520.15
  Q 577.95 494.36 573.24 468.24
  Q 570.23 451.53 564.48 437.43
  C 553.81 411.27 534.22 388.64 510.12 374.11
  C 468.68 349.14 413.64 347.27 369.54 367.98
  C 355.73 374.46 342.38 382.52 330.13 392.82
  C 305.35 413.67 286.41 439.19 271.42 467.75
  C 255.41 498.28 247.00 531.26 242.17 566.04
  C 241.37 571.82 239.76 575.49 236.88 579.89
  A 2.35 2.34 35.9 0 1 233.45 580.43
  Q 217.24 567.45 211.19 547.00
  Q 204.32 523.77 202.38 499.04
  Q 196.36 422.37 234.10 355.80
  C 256.87 315.64 292.32 281.56 335.51 264.27
  C 366.84 251.71 397.89 243.79 431.03 242.38
  C 462.72 241.03 497.69 245.62 529.35 253.39
  Q 550.72 258.65 571.71 269.36
  Q 605.20 286.46 631.87 310.35
  C 646.78 323.71 660.67 338.15 671.37 353.67
  Q 677.94 363.19 685.94 378.06
  Z"
/>
<path fill="#2b7814" d="
  M 586.67 246.57
  Q 591.80 249.04 596.84 251.82
  Q 597.21 252.03 606.29 257.01
  Q 620.90 265.03 634.54 275.40
  Q 651.73 288.46 655.25 291.74
  Q 666.35 302.11 673.00 308.86
  Q 681.91 317.91 689.42 327.18
  Q 708.62 350.88 723.03 378.69
  C 736.91 405.48 748.43 434.92 754.55 463.10
  Q 760.43 490.18 762.81 506.40
  Q 762.82 506.44 764.92 523.77
  Q 765.15 525.73 765.18 526.67
  Q 765.20 527.29 765.65 527.55
  A 0.11 0.10 -75.0 0 1 765.70 527.64
  L 766.54 538.86
  A 2.25 2.25 0.0 0 0 767.68 540.65
  Q 770.11 542.03 773.25 542.04
  Q 811.12 542.13 811.14 542.13
  Q 823.42 541.66 830.93 543.69
  Q 849.54 548.71 856.99 568.23
  C 858.97 573.42 858.51 580.52 857.59 586.18
  Q 857.39 587.42 854.31 594.37
  Q 852.77 597.87 849.72 601.88
  C 842.64 611.22 834.30 623.93 826.86 633.26
  Q 826.81 633.31 815.91 647.18
  Q 811.85 652.35 809.36 655.18
  C 805.81 659.24 803.29 663.56 799.54 667.96
  Q 789.63 679.59 779.78 691.01
  Q 772.17 699.83 767.84 704.42
  Q 761.65 710.98 756.13 718.00
  Q 755.45 718.87 743.48 732.00
  Q 741.07 734.64 737.02 738.53
  Q 733.19 742.21 730.60 745.07
  Q 726.39 749.72 721.74 753.94
  Q 718.39 756.36 715.58 759.42
  C 712.95 762.29 709.67 764.84 707.01 767.51
  Q 699.55 775.00 683.86 788.36
  Q 675.15 795.79 663.48 796.02
  A 0.09 0.09 0.0 0 1 663.46 795.85
  Q 670.40 794.18 676.48 790.19
  C 686.31 783.06 694.79 774.72 703.71 766.53
  Q 710.06 760.69 714.54 756.20
  Q 730.84 739.87 739.15 730.65
  Q 747.78 721.07 751.00 717.68
  Q 758.20 710.11 762.92 704.78
  Q 774.01 692.27 779.86 685.58
  Q 790.48 673.43 801.04 660.00
  Q 802.74 657.84 802.78 657.79
  C 808.47 650.22 814.52 643.51 820.01 636.06
  Q 830.92 621.27 841.30 607.18
  C 843.33 604.41 845.90 600.36 848.22 596.72
  Q 855.73 584.95 853.95 574.02
  Q 852.29 563.86 844.73 556.46
  C 835.46 547.38 824.34 545.21 811.24 545.15
  Q 782.97 545.00 772.53 544.72
  C 765.92 544.55 762.81 540.82 762.10 534.48
  Q 760.59 521.03 760.18 517.75
  Q 756.99 492.47 750.65 464.02
  Q 749.21 457.55 747.33 451.23
  C 745.82 446.13 744.39 440.20 742.41 434.29
  C 729.92 397.08 711.77 361.84 687.23 330.90
  Q 678.76 320.22 670.34 311.80
  Q 641.07 282.53 614.04 265.93
  Q 607.85 262.13 584.48 249.78
  Q 584.41 247.73 586.67 246.57
  Z"
/>
<path fill="#003900" d="
  M 423.81 250.04
  C 420.37 251.00 415.97 251.11 413.40 251.48
  Q 384.99 255.60 360.16 265.26
  Q 345.93 270.79 338.23 274.75
  Q 312.20 288.14 291.20 306.94
  Q 280.42 316.60 272.31 325.77
  Q 269.05 329.46 259.66 341.16
  C 256.84 344.69 255.38 347.47 252.84 351.08
  Q 250.88 353.86 248.09 358.79
  C 241.74 370.03 235.29 382.10 230.87 394.60
  Q 226.64 406.54 225.70 409.67
  Q 220.73 426.19 217.38 447.89
  C 216.96 450.55 217.30 452.93 216.73 455.12
  Q 216.23 457.01 216.13 460.45
  Q 215.40 486.92 216.28 499.96
  Q 217.56 519.02 223.12 542.24
  Q 224.34 547.37 227.55 557.03
  Q 229.98 564.35 232.18 571.82
  C 219.77 557.23 214.27 541.19 210.85 521.68
  C 197.01 442.65 223.43 357.27 283.09 302.69
  C 305.50 282.18 333.25 268.74 364.29 259.12
  Q 387.19 252.02 408.81 249.94
  Q 415.43 249.30 423.81 250.04
  Z"
/>
<path fill="#000900" d="
  M 685.94 378.06
  Q 697.95 397.51 704.13 411.13
  Q 722.34 451.29 730.61 496.47
  Q 735.76 524.62 739.01 559.67
  Q 740.04 570.89 751.54 573.26
  A 0.55 0.53 77.1 0 1 751.89 573.49
  Q 752.28 574.09 751.77 574.77
  Q 741.25 572.53 738.31 562.74
  Q 737.44 559.84 737.30 557.99
  Q 735.18 530.40 729.78 500.00
  Q 723.78 466.26 713.21 437.07
  C 696.12 389.84 667.32 346.11 628.68 313.95
  C 606.20 295.24 582.46 280.30 555.24 269.64
  Q 522.65 256.77 485.31 252.46
  Q 441.27 247.38 399.74 255.28
  Q 389.18 257.29 376.06 261.21
  C 316.32 278.87 266.23 320.99 239.60 377.35
  Q 220.90 416.91 217.75 460.62
  Q 214.64 503.68 225.38 545.30
  L 234.85 576.81
  A 0.51 0.51 0.0 0 0 235.85 576.69
  C 236.63 563.62 238.85 550.11 242.04 535.43
  Q 244.38 524.68 246.26 518.16
  Q 263.04 460.04 300.52 413.83
  C 320.92 388.69 346.84 367.60 376.91 354.93
  Q 412.99 339.73 452.20 342.80
  C 485.51 345.09 519.27 357.43 543.89 379.36
  Q 562.44 395.88 573.72 416.29
  C 597.75 459.77 598.35 510.81 591.23 558.49
  C 590.40 564.01 588.66 569.59 583.70 573.00
  Q 580.91 574.42 578.00 574.45
  Q 551.84 574.65 509.50 574.59
  Q 507.28 574.59 504.08 576.20
  Q 499.73 578.68 500.05 583.31
  A 2.35 2.30 -61.1 0 0 500.31 584.25
  Q 501.62 586.75 503.73 589.24
  Q 505.63 591.48 510.11 597.13
  Q 542.89 638.50 547.75 643.80
  C 555.22 651.96 563.31 662.39 571.77 671.70
  C 583.58 684.70 592.92 695.52 606.14 709.81
  Q 629.60 735.16 652.52 761.48
  Q 654.47 763.71 656.02 764.22
  C 661.79 768.45 667.72 765.05 672.16 760.91
  C 727.54 709.24 777.65 652.63 820.34 591.09
  C 823.52 586.52 827.74 581.82 822.39 576.67
  Q 822.49 576.27 822.77 576.07
  Q 823.21 575.74 823.58 576.10
  Q 826.63 579.07 826.36 582.72
  Q 826.21 584.70 823.10 589.19
  Q 811.29 606.25 803.49 616.74
  Q 790.65 633.99 772.05 656.81
  Q 759.33 672.42 732.13 702.56
  C 724.78 710.71 717.33 717.67 709.99 725.69
  Q 706.67 729.32 700.97 734.77
  Q 691.44 743.91 682.08 753.19
  Q 673.82 761.41 669.39 764.90
  Q 665.71 767.80 660.18 767.69
  Q 655.24 766.51 651.74 762.50
  Q 632.30 740.15 615.03 721.33
  C 592.95 697.26 575.09 677.75 558.05 657.71
  Q 547.45 645.25 546.94 644.66
  C 538.95 635.62 534.72 629.92 525.53 618.55
  C 518.14 609.42 509.14 597.45 502.05 589.07
  C 499.00 585.46 497.59 581.67 500.07 577.86
  Q 500.59 577.07 503.14 575.55
  Q 504.73 574.60 506.36 573.34
  L 572.82 573.40
  Q 578.96 573.59 581.89 572.42
  Q 586.45 570.60 588.46 564.21
  Q 590.52 557.71 590.99 549.99
  Q 591.18 546.93 592.52 535.78
  Q 593.13 530.72 593.11 527.68
  Q 593.09 523.24 593.57 519.55
  C 594.01 516.17 593.85 513.31 594.03 509.34
  C 594.23 504.61 593.40 498.30 593.28 493.77
  C 593.12 487.83 592.27 481.87 591.64 476.56
  Q 588.26 448.34 575.11 421.88
  Q 566.89 405.33 556.21 393.59
  Q 543.55 379.66 532.28 371.75
  Q 515.92 360.27 495.65 353.09
  Q 478.93 347.17 461.15 345.23
  Q 440.70 343.05 428.74 344.13
  C 414.10 345.46 400.06 347.87 385.58 353.13
  Q 354.53 364.38 330.44 385.21
  C 324.55 390.30 321.08 393.11 316.76 397.55
  Q 285.36 429.85 265.64 471.16
  Q 258.45 486.24 252.68 502.36
  Q 248.52 513.97 246.08 524.40
  Q 242.54 539.47 241.17 546.89
  Q 238.78 559.78 237.17 576.61
  Q 237.06 577.82 235.94 578.19
  Q 234.44 578.69 233.55 576.76
  Q 232.40 574.27 232.18 571.82
  Q 229.98 564.35 227.55 557.03
  Q 224.34 547.37 223.12 542.24
  Q 217.56 519.02 216.28 499.96
  Q 215.40 486.92 216.13 460.45
  Q 216.23 457.01 216.73 455.12
  C 217.30 452.93 216.96 450.55 217.38 447.89
  Q 220.73 426.19 225.70 409.67
  Q 226.64 406.54 230.87 394.60
  C 235.29 382.10 241.74 370.03 248.09 358.79
  Q 250.88 353.86 252.84 351.08
  C 255.38 347.47 256.84 344.69 259.66 341.16
  Q 269.05 329.46 272.31 325.77
  Q 280.42 316.60 291.20 306.94
  Q 312.20 288.14 338.23 274.75
  Q 345.93 270.79 360.16 265.26
  Q 384.99 255.60 413.40 251.48
  C 415.97 251.11 420.37 251.00 423.81 250.04
  Q 431.01 249.71 438.25 249.17
  Q 443.83 248.75 466.15 249.15
  Q 469.05 249.20 471.83 249.63
  C 474.33 250.01 476.50 249.80 479.42 250.16
  Q 496.42 252.26 502.44 253.32
  Q 555.00 262.56 598.70 290.37
  Q 615.01 300.75 631.13 314.37
  Q 646.56 327.40 659.76 342.77
  Q 674.07 359.42 685.94 378.06
  Z"
/>
<path fill="#befb4a" d="
  M 555.24 269.64
  Q 554.32 269.74 553.93 270.34
  Q 551.49 269.79 549.04 268.86
  Q 532.58 262.64 515.48 258.82
  Q 476.17 250.29 436.00 252.00
  Q 432.50 252.15 429.31 252.64
  Q 402.53 254.37 377.24 261.87
  L 375.06 262.58
  L 376.06 261.21
  Q 389.18 257.29 399.74 255.28
  Q 441.27 247.38 485.31 252.46
  Q 522.65 256.77 555.24 269.64
  Z"
/>
<path fill="#78bd29" d="
  M 515.48 258.82
  Q 506.15 258.44 499.84 257.85
  Q 485.22 256.47 471.41 259.59
  Q 448.93 257.96 426.39 260.13
  Q 435.50 259.98 444.59 259.49
  Q 460.75 258.62 484.84 261.90
  C 479.44 266.12 476.54 270.97 478.44 277.75
  Q 479.91 282.98 482.23 290.86
  Q 484.52 298.64 486.68 314.22
  C 488.35 326.31 489.62 333.13 498.49 339.93
  Q 505.37 345.22 509.05 346.95
  C 521.20 352.67 530.52 356.81 540.32 364.43
  Q 552.34 373.76 561.91 384.33
  Q 566.87 389.80 573.50 399.74
  L 571.25 397.41
  L 560.27 383.98
  C 545.23 366.84 525.69 354.49 504.34 347.33
  Q 499.34 345.65 480.29 340.35
  C 474.21 338.66 466.26 338.03 458.30 338.97
  Q 453.69 339.52 446.89 339.98
  Q 444.83 340.12 441.47 340.83
  A 0.03 0.02 37.1 0 0 441.48 340.88
  L 447.71 341.05
  L 428.06 341.10
  A 1.02 0.95 -47.0 0 0 427.92 341.11
  L 401.56 345.26
  Q 409.80 341.10 418.09 337.91
  Q 418.85 337.62 423.21 336.93
  A 0.94 0.94 0.0 0 0 423.95 335.68
  L 423.94 335.65
  A 1.55 1.54 78.5 0 0 422.41 334.63
  Q 408.76 335.28 395.60 339.39
  Q 389.06 341.43 382.05 343.47
  Q 384.25 341.08 384.27 338.58
  C 384.28 336.44 382.11 334.34 381.33 332.91
  A 11.89 11.69 -68.5 0 1 380.49 330.93
  C 379.73 328.52 379.30 324.76 378.39 321.73
  Q 374.94 310.14 374.56 307.74
  Q 372.98 297.84 371.71 290.34
  Q 370.53 283.46 364.84 272.36
  L 371.92 269.97
  Q 390.85 264.49 398.04 262.97
  Q 412.42 259.94 421.61 257.45
  Q 426.04 256.25 429.31 252.64
  Q 432.50 252.15 436.00 252.00
  Q 476.17 250.29 515.48 258.82
  Z"
/>
<path fill="#62ac24" d="
  M 429.31 252.64
  Q 426.04 256.25 421.61 257.45
  Q 412.42 259.94 398.04 262.97
  Q 390.85 264.49 371.92 269.97
  L 377.24 261.87
  Q 402.53 254.37 429.31 252.64
  Z"
/>
<path fill="#93ce3f" d="
  M 515.48 258.82
  Q 532.58 262.64 549.04 268.86
  Q 551.49 269.79 553.93 270.34
  L 559.15 272.62
  Q 540.48 272.61 524.52 268.72
  Q 496.74 261.94 471.41 259.59
  Q 485.22 256.47 499.84 257.85
  Q 506.15 258.44 515.48 258.82
  Z"
/>
<path fill="#a7da4f" d="
  M 471.41 259.59
  Q 496.74 261.94 524.52 268.72
  Q 540.48 272.61 559.15 272.62
  Q 575.74 279.25 591.19 288.62
  Q 582.02 290.27 572.44 288.69
  Q 548.87 276.62 525.23 270.02
  Q 506.68 264.84 484.84 261.90
  Q 460.75 258.62 444.59 259.49
  Q 435.50 259.98 426.39 260.13
  Q 448.93 257.96 471.41 259.59
  Z"
/>
<path fill="#60c717" d="
  M 376.06 261.21
  L 375.06 262.58
  Q 358.27 268.04 342.25 275.49
  Q 336.29 278.26 329.99 281.95
  Q 320.78 287.34 318.07 289.08
  Q 309.99 294.28 296.88 304.97
  Q 291.51 309.36 283.74 317.17
  Q 274.13 326.83 271.39 330.15
  Q 260.20 343.70 255.70 350.70
  Q 217.91 409.60 218.27 479.99
  Q 218.29 484.39 218.81 498.19
  C 219.01 503.45 219.86 508.30 220.31 513.48
  Q 220.58 516.51 222.18 524.85
  Q 223.69 532.74 224.80 538.81
  A 4.73 4.24 32.4 0 0 225.00 539.52
  Q 225.93 541.99 226.22 544.55
  Q 225.80 544.46 225.38 545.30
  Q 214.64 503.68 217.75 460.62
  Q 220.90 416.91 239.60 377.35
  C 266.23 320.99 316.32 278.87 376.06 261.21
  Z"
/>
<path fill="#459216" d="
  M 377.24 261.87
  L 371.92 269.97
  L 364.84 272.36
  Q 336.20 283.01 311.60 301.38
  Q 304.85 306.41 302.27 308.40
  Q 300.25 309.96 296.48 313.39
  Q 295.54 314.24 290.79 318.51
  Q 282.75 325.74 272.22 338.46
  Q 269.53 341.71 260.69 355.16
  Q 254.94 363.90 250.47 372.68
  Q 238.83 395.55 232.70 419.14
  Q 230.88 426.15 229.98 431.95
  C 228.29 442.84 225.81 454.32 225.25 464.32
  Q 223.76 490.85 226.36 510.88
  Q 228.91 530.56 230.40 539.27
  Q 231.73 547.04 229.07 553.37
  L 226.22 544.55
  Q 225.93 541.99 225.00 539.52
  A 4.73 4.24 32.4 0 1 224.80 538.81
  Q 223.69 532.74 222.18 524.85
  Q 220.58 516.51 220.31 513.48
  C 219.86 508.30 219.01 503.45 218.81 498.19
  Q 218.29 484.39 218.27 479.99
  Q 217.91 409.60 255.70 350.70
  Q 260.20 343.70 271.39 330.15
  Q 274.13 326.83 283.74 317.17
  Q 291.51 309.36 296.88 304.97
  Q 309.99 294.28 318.07 289.08
  Q 320.78 287.34 329.99 281.95
  Q 336.29 278.26 342.25 275.49
  Q 358.27 268.04 375.06 262.58
  L 377.24 261.87
  Z"
/>
<path fill="#82c42e" d="
  M 572.44 288.69
  L 593.37 300.86
  Q 593.17 301.16 593.19 301.45
  Q 593.20 301.70 593.51 301.95
  Q 602.29 309.08 612.44 314.52
  Q 625.29 324.44 637.27 336.46
  C 631.71 333.42 627.13 328.76 622.49 324.47
  A 1.82 1.80 72.9 0 0 621.65 324.02
  C 614.64 322.38 607.79 321.51 601.19 325.40
  Q 593.24 330.08 588.73 337.80
  C 585.42 343.45 585.02 350.42 585.62 356.46
  C 586.34 363.76 586.76 368.48 585.96 374.84
  C 585.28 380.26 585.31 384.63 586.98 390.47
  C 589.27 398.42 590.17 405.01 589.17 414.00
  Q 588.60 419.09 589.94 431.87
  Q 586.44 424.15 582.76 416.70
  Q 581.58 414.31 580.01 412.27
  L 577.03 405.88
  L 573.50 399.74
  Q 566.87 389.80 561.91 384.33
  Q 552.34 373.76 540.32 364.43
  C 530.52 356.81 521.20 352.67 509.05 346.95
  Q 505.37 345.22 498.49 339.93
  C 489.62 333.13 488.35 326.31 486.68 314.22
  Q 484.52 298.64 482.23 290.86
  Q 479.91 282.98 478.44 277.75
  C 476.54 270.97 479.44 266.12 484.84 261.90
  Q 506.68 264.84 525.23 270.02
  Q 548.87 276.62 572.44 288.69
  Z
  M 576.8563 404.2273
  A 1.40 0.25 -118.3 0 0 577.2999 405.5785
  A 1.40 0.25 -118.3 0 0 578.1837 406.6927
  A 1.40 0.25 -118.3 0 0 577.7401 405.3415
  A 1.40 0.25 -118.3 0 0 576.8563 404.2273
  Z
  M 582.28 414.02
  Q 582.88 415.23 583.62 416.53
  A 0.03 0.02 39.7 0 0 583.67 416.53
  Q 583.67 416.51 583.65 416.47
  Q 583.00 415.13 582.28 414.02
  Q 581.91 412.44 581.01 411.75
  A 0.18 0.18 0.0 0 0 580.73 411.96
  Q 581.22 413.27 582.28 414.02
  Z"
/>
<path fill="#e9fb92" fill-opacity="0.996" d="
  M 555.24 269.64
  C 582.46 280.30 606.20 295.24 628.68 313.95
  C 667.32 346.11 696.12 389.84 713.21 437.07
  Q 723.78 466.26 729.78 500.00
  Q 735.18 530.40 737.30 557.99
  Q 737.44 559.84 738.31 562.74
  Q 741.25 572.53 751.77 574.77
  Q 783.55 575.27 815.50 574.78
  Q 819.50 574.72 822.39 576.67
  C 827.74 581.82 823.52 586.52 820.34 591.09
  C 777.65 652.63 727.54 709.24 672.16 760.91
  C 667.72 765.05 661.79 768.45 656.02 764.22
  L 661.21 764.99
  A 4.20 4.19 40.9 0 0 663.04 764.86
  Q 666.76 763.76 670.08 761.22
  Q 686.41 745.72 702.50 729.90
  Q 704.35 728.09 706.81 725.41
  C 710.75 721.14 712.63 718.84 717.55 714.19
  Q 722.38 709.61 726.38 704.63
  Q 728.14 702.44 736.03 694.70
  A 3.12 2.80 -10.9 0 0 736.53 694.04
  Q 737.36 692.51 738.06 691.81
  Q 741.59 688.29 745.21 683.96
  C 748.52 679.99 751.88 677.13 754.62 673.31
  A 6.19 6.08 86.1 0 1 755.41 672.39
  Q 758.69 669.26 760.52 666.36
  A 5.27 5.15 86.0 0 1 761.54 665.16
  C 764.08 662.96 765.53 660.51 767.34 658.43
  Q 771.36 653.82 778.23 644.98
  Q 779.08 643.88 781.62 640.85
  Q 783.18 639.00 784.89 636.58
  Q 786.47 634.35 789.32 631.10
  Q 791.50 628.62 793.49 625.40
  A 5.75 4.82 -13.4 0 1 794.07 624.62
  Q 795.86 622.66 796.61 621.63
  Q 799.45 617.74 809.47 603.98
  Q 817.21 593.35 821.86 586.16
  Q 825.92 579.88 819.33 576.62
  Q 817.76 575.85 812.69 576.24
  Q 810.50 576.02 808.25 576.01
  Q 780.87 575.85 753.50 576.14
  Q 752.14 576.16 749.54 575.50
  C 739.43 572.22 735.91 564.24 735.18 554.31
  Q 734.25 541.44 733.67 536.25
  Q 730.21 505.06 722.78 473.67
  Q 717.01 449.32 708.03 427.18
  Q 697.47 401.15 682.00 376.77
  Q 674.40 364.80 660.05 346.89
  Q 658.42 344.86 656.03 342.46
  Q 653.34 339.76 651.66 337.63
  C 645.62 329.96 638.86 324.65 632.15 318.45
  C 630.10 316.56 628.22 315.55 626.58 313.79
  Q 625.37 312.48 622.23 310.14
  Q 621.52 309.61 615.26 304.74
  Q 605.21 296.90 591.19 288.62
  Q 575.74 279.25 559.15 272.62
  L 553.93 270.34
  Q 554.32 269.74 555.24 269.64
  Z"
/>
<path fill="#6db624" d="
  M 364.84 272.36
  Q 370.53 283.46 371.71 290.34
  Q 372.98 297.84 374.56 307.74
  Q 374.94 310.14 378.39 321.73
  C 379.30 324.76 379.73 328.52 380.49 330.93
  A 11.89 11.69 -68.5 0 0 381.33 332.91
  C 382.11 334.34 384.28 336.44 384.27 338.58
  Q 384.25 341.08 382.05 343.47
  L 375.26 346.30
  Q 365.64 349.67 356.72 354.51
  C 337.62 364.88 320.41 377.57 305.16 393.61
  C 273.55 426.83 251.13 466.77 238.12 510.62
  Q 233.39 526.55 231.75 542.50
  C 231.49 545.03 231.36 548.60 231.68 551.00
  Q 231.95 553.01 231.65 554.79
  A 2.22 2.22 0.0 0 0 231.76 555.94
  Q 232.98 559.26 232.66 562.89
  L 229.07 553.37
  Q 231.73 547.04 230.40 539.27
  Q 228.91 530.56 226.36 510.88
  Q 223.76 490.85 225.25 464.32
  C 225.81 454.32 228.29 442.84 229.98 431.95
  Q 230.88 426.15 232.70 419.14
  Q 238.83 395.55 250.47 372.68
  Q 254.94 363.90 260.69 355.16
  Q 269.53 341.71 272.22 338.46
  Q 282.75 325.74 290.79 318.51
  Q 295.54 314.24 296.48 313.39
  Q 300.25 309.96 302.27 308.40
  Q 304.85 306.41 311.60 301.38
  Q 336.20 283.01 364.84 272.36
  Z"
/>
<path fill="#c9ed71" d="
  M 591.19 288.62
  Q 605.21 296.90 615.26 304.74
  Q 621.52 309.61 622.23 310.14
  Q 625.37 312.48 626.58 313.79
  C 628.22 315.55 630.10 316.56 632.15 318.45
  C 638.86 324.65 645.62 329.96 651.66 337.63
  Q 653.34 339.76 656.03 342.46
  Q 658.42 344.86 660.05 346.89
  Q 674.40 364.80 682.00 376.77
  Q 697.47 401.15 708.03 427.18
  Q 717.01 449.32 722.78 473.67
  Q 730.21 505.06 733.67 536.25
  Q 734.25 541.44 735.18 554.31
  C 735.91 564.24 739.43 572.22 749.54 575.50
  L 746.20 584.48
  C 738.85 583.93 733.43 579.29 730.10 572.94
  L 727.58 565.53
  Q 726.63 560.13 726.37 556.87
  Q 723.89 526.14 717.75 495.24
  Q 711.77 465.14 701.19 436.33
  Q 693.73 416.03 681.45 394.54
  Q 662.65 361.68 637.27 336.46
  Q 625.29 324.44 612.44 314.52
  L 593.37 300.86
  L 572.44 288.69
  Q 582.02 290.27 591.19 288.62
  Z"
/>
<path fill="#78bd29" d="
  M 612.44 314.52
  Q 602.29 309.08 593.51 301.95
  Q 593.20 301.70 593.19 301.45
  Q 593.17 301.16 593.37 300.86
  L 612.44 314.52
  Z"
/>
<path fill="#89c934" d="
  M 637.27 336.46
  Q 662.65 361.68 681.45 394.54
  Q 693.73 416.03 701.19 436.33
  Q 711.77 465.14 717.75 495.24
  Q 723.89 526.14 726.37 556.87
  Q 726.63 560.13 727.58 565.53
  Q 725.78 562.07 725.57 559.85
  Q 724.08 544.17 722.72 533.47
  C 715.73 478.58 701.37 424.63 670.63 379.14
  Q 669.72 377.80 668.05 375.65
  A 1.88 1.87 -7.8 0 0 667.27 375.06
  C 658.42 371.51 649.44 369.23 643.21 378.33
  C 639.36 383.97 638.92 391.35 639.12 398.51
  C 639.34 406.46 640.24 419.35 640.37 429.97
  Q 640.63 452.52 641.62 469.29
  C 642.21 479.19 642.04 491.78 643.12 500.78
  Q 644.73 514.20 649.07 536.34
  C 649.87 540.46 650.65 544.96 650.56 548.35
  Q 650.31 557.85 650.32 565.62
  Q 650.32 589.55 656.76 611.09
  Q 658.29 616.22 662.98 630.66
  C 666.87 642.64 675.01 654.16 679.46 661.07
  C 685.01 669.67 689.82 679.47 694.44 687.84
  Q 700.52 698.85 710.50 706.89
  A 0.55 0.55 0.0 0 1 710.61 707.63
  L 708.77 710.24
  L 692.60 726.97
  Q 681.16 721.49 673.56 710.63
  Q 664.49 697.67 648.31 676.51
  C 643.29 669.94 635.55 662.13 630.72 655.66
  C 618.41 639.15 609.45 620.10 603.02 600.15
  C 601.24 594.64 598.66 590.92 594.29 583.60
  Q 592.98 581.42 591.97 575.94
  Q 592.44 575.14 593.41 574.51
  C 596.15 571.50 597.49 567.73 599.08 564.04
  L 599.99 561.53
  Q 602.31 555.67 602.19 549.21
  Q 603.22 539.28 604.61 529.38
  Q 605.45 523.35 604.98 506.88
  Q 604.75 498.90 604.08 488.78
  Q 603.20 475.54 600.25 462.50
  Q 600.23 462.43 599.73 460.64
  Q 597.72 453.49 595.26 446.44
  L 589.94 431.87
  Q 588.60 419.09 589.17 414.00
  C 590.17 405.01 589.27 398.42 586.98 390.47
  C 585.31 384.63 585.28 380.26 585.96 374.84
  C 586.76 368.48 586.34 363.76 585.62 356.46
  C 585.02 350.42 585.42 343.45 588.73 337.80
  Q 593.24 330.08 601.19 325.40
  C 607.79 321.51 614.64 322.38 621.65 324.02
  A 1.82 1.80 72.9 0 1 622.49 324.47
  C 627.13 328.76 631.71 333.42 637.27 336.46
  Z"
/>
<path fill="#86c639" d="
  M 401.56 345.26
  Q 387.93 349.06 374.50 354.63
  L 375.26 346.30
  L 382.05 343.47
  Q 389.06 341.43 395.60 339.39
  Q 408.76 335.28 422.41 334.63
  A 1.55 1.54 78.5 0 1 423.94 335.65
  L 423.95 335.68
  A 0.94 0.94 0.0 0 1 423.21 336.93
  Q 418.85 337.62 418.09 337.91
  Q 409.80 341.10 401.56 345.26
  Z"
/>
<path fill="#62ac24" d="
  M 560.27 383.98
  Q 554.65 378.80 549.22 373.41
  A 0.06 0.04 34.1 0 0 549.12 373.41
  Q 549.12 373.46 549.11 373.50
  A 0.34 0.21 35.0 0 0 549.22 373.75
  Q 552.94 377.61 561.28 386.03
  Q 562.62 387.38 569.76 396.77
  A 0.04 0.03 52.0 0 1 569.76 396.82
  L 569.53 397.02
  A 0.20 0.20 0.0 0 1 569.24 396.99
  Q 560.79 385.81 549.96 375.55
  Q 542.92 368.89 537.05 365.15
  C 531.01 361.30 521.50 358.12 514.49 358.31
  Q 496.46 349.46 476.87 344.93
  Q 473.76 344.21 468.94 343.59
  Q 464.94 343.07 460.97 342.41
  Q 457.21 341.78 453.49 341.52
  L 447.71 341.05
  L 441.48 340.88
  A 0.03 0.02 37.1 0 1 441.47 340.83
  Q 444.83 340.12 446.89 339.98
  Q 453.69 339.52 458.30 338.97
  C 466.26 338.03 474.21 338.66 480.29 340.35
  Q 499.34 345.65 504.34 347.33
  C 525.69 354.49 545.23 366.84 560.27 383.98
  Z"
/>
<path fill="#effe89" fill-opacity="0.996" d="
  M 447.71 341.05
  L 453.49 341.52
  L 452.20 342.80
  Q 412.99 339.73 376.91 354.93
  C 346.84 367.60 320.92 388.69 300.52 413.83
  Q 263.04 460.04 246.26 518.16
  Q 244.38 524.68 242.04 535.43
  C 238.85 550.11 236.63 563.62 235.85 576.69
  A 0.51 0.51 0.0 0 1 234.85 576.81
  L 225.38 545.30
  Q 225.80 544.46 226.22 544.55
  L 229.07 553.37
  L 232.66 562.89
  L 234.19 568.17
  A 0.28 0.28 0.0 0 0 234.73 568.13
  Q 236.79 552.42 240.33 536.16
  Q 244.11 518.83 248.93 504.88
  Q 260.96 470.08 279.14 441.37
  Q 289.21 425.46 297.00 416.24
  Q 301.34 411.11 303.04 408.80
  A 9.34 8.90 88.6 0 1 304.22 407.50
  Q 307.35 404.67 309.36 401.54
  A 4.17 4.08 -6.5 0 1 309.97 400.79
  C 314.51 396.33 317.83 392.35 322.59 388.68
  Q 322.70 388.60 328.39 383.65
  Q 348.82 365.92 374.50 354.63
  Q 387.93 349.06 401.56 345.26
  L 427.92 341.11
  A 1.02 0.95 -47.0 0 1 428.06 341.10
  L 447.71 341.05
  Z"
/>
<path fill="#75d323" d="
  M 514.49 358.31
  Q 535.02 368.60 551.22 385.01
  C 571.73 405.48 585.13 431.73 591.26 460.17
  Q 596.63 485.10 596.47 509.01
  Q 596.36 525.57 594.92 539.00
  Q 594.14 546.33 591.90 560.43
  C 591.52 562.83 590.85 564.82 590.07 567.02
  Q 587.74 570.94 584.38 573.60
  L 583.70 573.00
  C 588.66 569.59 590.40 564.01 591.23 558.49
  C 598.35 510.81 597.75 459.77 573.72 416.29
  Q 562.44 395.88 543.89 379.36
  C 519.27 357.43 485.51 345.09 452.20 342.80
  L 453.49 341.52
  Q 457.21 341.78 460.97 342.41
  Q 464.94 343.07 468.94 343.59
  Q 473.76 344.21 476.87 344.93
  Q 496.46 349.46 514.49 358.31
  Z"
/>
<path fill="#003900" d="
  M 572.82 573.40
  Q 581.54 552.79 583.09 530.99
  Q 584.78 507.16 581.63 482.80
  C 579.15 463.57 574.55 443.58 566.25 426.73
  C 549.71 393.13 520.84 369.62 486.06 355.17
  Q 470.29 348.62 461.15 345.23
  Q 478.93 347.17 495.65 353.09
  Q 515.92 360.27 532.28 371.75
  Q 543.55 379.66 556.21 393.59
  Q 566.89 405.33 575.11 421.88
  Q 588.26 448.34 591.64 476.56
  C 592.27 481.87 593.12 487.83 593.28 493.77
  C 593.40 498.30 594.23 504.61 594.03 509.34
  C 593.85 513.31 594.01 516.17 593.57 519.55
  Q 593.09 523.24 593.11 527.68
  Q 593.13 530.72 592.52 535.78
  Q 591.18 546.93 590.99 549.99
  Q 590.52 557.71 588.46 564.21
  Q 586.45 570.60 581.89 572.42
  Q 578.96 573.59 572.82 573.40
  Z"
/>
<path fill="#aedd5b" d="
  M 375.26 346.30
  L 374.50 354.63
  Q 348.82 365.92 328.39 383.65
  Q 322.70 388.60 322.59 388.68
  C 317.83 392.35 314.51 396.33 309.97 400.79
  A 4.17 4.08 -6.5 0 0 309.36 401.54
  Q 307.35 404.67 304.22 407.50
  A 9.34 8.90 88.6 0 0 303.04 408.80
  Q 301.34 411.11 297.00 416.24
  Q 289.21 425.46 279.14 441.37
  Q 260.96 470.08 248.93 504.88
  Q 244.11 518.83 240.33 536.16
  Q 236.79 552.42 234.73 568.13
  A 0.28 0.28 0.0 0 1 234.19 568.17
  L 232.66 562.89
  Q 232.98 559.26 231.76 555.94
  A 2.22 2.22 0.0 0 1 231.65 554.79
  Q 231.95 553.01 231.68 551.00
  C 231.36 548.60 231.49 545.03 231.75 542.50
  Q 233.39 526.55 238.12 510.62
  C 251.13 466.77 273.55 426.83 305.16 393.61
  C 320.41 377.57 337.62 364.88 356.72 354.51
  Q 365.64 349.67 375.26 346.30
  Z"
/>
<path fill="#4f9d1b" d="
  M 560.27 383.98
  L 571.25 397.41
  Q 572.95 399.83 574.57 402.33
  Q 574.75 402.62 574.75 402.72
  A 0.11 0.11 0.0 0 1 574.55 402.79
  L 570.63 397.61
  A 0.22 0.21 -36.9 0 0 570.32 397.57
  L 570.31 397.57
  A 0.21 0.21 0.0 0 0 570.25 397.85
  Q 573.04 402.37 577.03 405.88
  L 580.01 412.27
  Q 574.85 406.65 565.11 395.30
  Q 559.50 388.76 551.22 385.01
  Q 535.02 368.60 514.49 358.31
  C 521.50 358.12 531.01 361.30 537.05 365.15
  Q 542.92 368.89 549.96 375.55
  Q 560.79 385.81 569.24 396.99
  A 0.20 0.20 0.0 0 0 569.53 397.02
  L 569.76 396.82
  A 0.04 0.03 52.0 0 0 569.76 396.77
  Q 562.62 387.38 561.28 386.03
  Q 552.94 377.61 549.22 373.75
  A 0.34 0.21 35.0 0 1 549.11 373.50
  Q 549.12 373.46 549.12 373.41
  A 0.06 0.04 34.1 0 1 549.22 373.41
  Q 554.65 378.80 560.27 383.98
  Z"
/>
<path fill="#8fcc36" d="
  M 727.58 565.53
  L 730.10 572.94
  C 724.25 573.57 719.69 575.19 717.91 581.24
  C 715.24 590.32 716.72 601.12 719.89 609.93
  Q 722.24 616.46 729.96 633.95
  Q 730.69 635.59 734.63 642.03
  Q 742.23 654.43 756.44 657.45
  Q 733.45 684.77 708.77 710.24
  L 710.61 707.63
  A 0.55 0.55 0.0 0 0 710.50 706.89
  Q 700.52 698.85 694.44 687.84
  C 689.82 679.47 685.01 669.67 679.46 661.07
  C 675.01 654.16 666.87 642.64 662.98 630.66
  Q 658.29 616.22 656.76 611.09
  Q 650.32 589.55 650.32 565.62
  Q 650.31 557.85 650.56 548.35
  C 650.65 544.96 649.87 540.46 649.07 536.34
  Q 644.73 514.20 643.12 500.78
  C 642.04 491.78 642.21 479.19 641.62 469.29
  Q 640.63 452.52 640.37 429.97
  C 640.24 419.35 639.34 406.46 639.12 398.51
  C 638.92 391.35 639.36 383.97 643.21 378.33
  C 649.44 369.23 658.42 371.51 667.27 375.06
  A 1.88 1.87 -7.8 0 1 668.05 375.65
  Q 669.72 377.80 670.63 379.14
  C 701.37 424.63 715.73 478.58 722.72 533.47
  Q 724.08 544.17 725.57 559.85
  Q 725.78 562.07 727.58 565.53
  Z"
/>
<path fill="#1d5d0c" d="
  M 676.48 790.19
  Q 670.40 794.18 663.46 795.85
  A 0.09 0.09 0.0 0 0 663.48 796.02
  Q 675.15 795.79 683.86 788.36
  Q 699.55 775.00 707.01 767.51
  C 709.67 764.84 712.95 762.29 715.58 759.42
  Q 718.39 756.36 721.74 753.94
  Q 720.39 756.80 717.95 758.96
  Q 713.12 763.25 710.26 765.62
  C 707.87 767.60 706.57 769.42 704.05 772.28
  A 3.47 3.26 1.8 0 1 703.36 772.89
  C 701.14 774.43 699.48 776.57 697.54 778.36
  Q 693.43 782.15 685.40 789.11
  C 682.76 791.39 680.03 792.78 677.41 795.10
  Q 676.64 795.78 671.47 797.14
  Q 670.79 797.32 668.43 798.84
  A 1.92 1.90 27.6 0 1 667.49 799.13
  C 663.82 799.28 659.47 800.10 656.09 799.90
  Q 650.02 799.52 646.47 798.98
  C 643.33 798.51 638.02 796.19 634.79 793.71
  Q 628.54 788.91 624.34 784.08
  Q 618.50 777.36 617.76 776.59
  C 613.09 771.74 607.65 764.73 603.50 760.47
  C 599.31 756.17 596.69 753.68 593.66 750.06
  C 586.03 740.96 577.89 732.93 568.33 722.17
  Q 559.02 711.69 555.55 708.44
  Q 551.39 704.56 549.09 701.65
  C 544.42 695.74 542.06 693.73 538.40 688.63
  C 532.78 680.82 526.30 675.11 520.81 667.61
  C 515.48 660.33 508.11 652.33 502.51 646.48
  Q 500.42 644.29 495.47 637.62
  C 490.85 631.40 485.28 626.35 480.83 619.93
  Q 476.33 613.44 471.70 607.14
  C 468.89 603.33 467.97 600.01 466.00 593.81
  C 463.11 584.71 464.07 575.87 468.30 567.33
  Q 473.36 557.11 480.31 551.11
  Q 482.82 548.95 491.97 544.25
  A 5.70 5.54 -62.3 0 1 493.65 543.70
  L 504.19 541.97
  Q 538.83 541.80 549.62 541.90
  Q 553.46 541.93 555.97 540.24
  C 559.67 537.75 560.10 529.56 560.20 525.43
  C 560.86 498.28 558.94 469.51 547.33 444.73
  Q 542.08 433.52 539.73 429.78
  Q 532.44 418.15 518.18 404.24
  C 514.92 401.06 509.69 397.58 506.48 395.69
  Q 498.63 391.08 486.81 385.96
  Q 476.92 381.68 463.96 379.69
  Q 447.27 377.12 429.81 378.61
  Q 427.49 378.81 425.21 379.30
  Q 408.10 381.52 392.06 387.89
  C 386.50 390.10 381.60 392.62 375.91 396.58
  Q 372.22 399.14 367.82 400.94
  Q 366.96 401.30 365.63 402.17
  Q 365.02 402.58 363.65 403.69
  Q 353.51 411.94 343.50 420.26
  Q 353.52 409.49 364.33 401.85
  Q 376.05 393.57 390.86 386.81
  Q 394.64 385.08 394.46 382.11
  Q 411.97 375.43 430.82 373.64
  Q 443.23 372.47 454.99 374.20
  Q 469.10 376.28 479.57 379.43
  Q 491.19 382.92 505.01 390.76
  Q 521.39 400.05 536.44 418.07
  Q 537.02 418.77 545.95 433.41
  Q 550.89 441.52 553.61 449.29
  Q 558.43 463.11 561.12 475.86
  C 564.70 492.85 564.88 510.65 563.64 529.09
  Q 563.36 533.14 562.19 537.92
  C 560.65 544.16 555.78 545.17 549.98 545.09
  C 534.50 544.87 521.31 544.52 506.85 545.62
  Q 489.14 546.98 478.09 559.66
  C 468.74 570.38 465.38 586.50 472.68 599.31
  Q 475.94 605.01 479.50 609.76
  Q 483.26 614.77 498.76 634.93
  C 502.61 639.92 509.63 647.26 514.82 653.73
  Q 525.84 667.45 537.07 679.99
  Q 556.12 701.27 558.65 704.30
  Q 569.38 717.08 580.32 728.79
  Q 588.96 738.03 593.22 743.20
  C 599.16 750.42 604.44 755.37 610.73 762.69
  Q 615.97 768.78 626.13 779.40
  Q 635.85 789.56 642.07 792.29
  C 653.83 797.43 665.08 795.56 676.48 790.19
  Z"
/>
<path fill="#023101" fill-opacity="0.996" d="
  M 504.19 541.97
  C 515.61 540.94 528.11 541.40 544.25 541.79
  Q 547.11 541.86 552.59 541.45
  A 1.65 1.63 22.8 0 0 553.51 541.08
  Q 557.48 537.83 558.27 531.96
  Q 560.75 513.39 559.10 498.59
  Q 557.49 484.11 555.37 473.64
  Q 553.84 466.14 549.78 453.94
  C 545.83 442.08 539.85 430.20 531.49 420.77
  C 528.01 416.84 523.38 410.52 518.01 406.27
  Q 505.02 395.99 491.97 389.72
  C 482.78 385.31 473.14 383.01 463.84 380.91
  C 451.71 378.17 437.95 378.89 425.21 379.30
  Q 427.49 378.81 429.81 378.61
  Q 447.27 377.12 463.96 379.69
  Q 476.92 381.68 486.81 385.96
  Q 498.63 391.08 506.48 395.69
  C 509.69 397.58 514.92 401.06 518.18 404.24
  Q 532.44 418.15 539.73 429.78
  Q 542.08 433.52 547.33 444.73
  C 558.94 469.51 560.86 498.28 560.20 525.43
  C 560.10 529.56 559.67 537.75 555.97 540.24
  Q 553.46 541.93 549.62 541.90
  Q 538.83 541.80 504.19 541.97
  Z"
/>
<path fill="#2b7814" d="
  M 343.50 420.26
  Q 333.88 430.03 323.03 442.52
  C 322.22 443.45 322.06 444.52 321.29 445.13
  Q 319.97 446.19 319.36 447.58
  A 2.39 2.14 78.6 0 1 319.12 447.99
  Q 315.59 452.66 313.88 455.35
  Q 311.87 458.53 309.98 461.10
  Q 307.95 463.88 306.35 467.02
  Q 303.81 472.01 302.83 473.34
  A 0.96 0.92 -28.2 0 0 302.65 473.89
  Q 302.62 474.87 301.51 475.82
  A 2.01 1.95 83.2 0 0 300.97 476.53
  C 300.03 478.54 299.06 480.84 298.05 482.55
  Q 293.36 490.45 290.26 499.11
  C 286.35 506.88 284.53 512.53 281.04 522.46
  Q 278.67 529.21 277.25 535.87
  Q 274.38 549.43 272.05 558.14
  C 269.56 567.49 268.81 577.05 265.57 585.87
  Q 261.46 597.08 250.36 602.32
  A 0.60 0.60 0.0 0 1 249.59 602.09
  L 249.54 602.01
  A 0.58 0.57 -31.2 0 1 249.74 601.22
  Q 254.70 598.20 258.20 593.43
  Q 259.43 591.49 260.73 589.52
  Q 264.01 584.53 264.88 579.43
  C 266.87 567.67 267.62 560.88 269.96 550.32
  Q 270.89 546.17 272.74 539.02
  Q 284.12 495.00 310.13 454.91
  Q 313.33 449.98 318.22 443.80
  Q 324.72 435.59 326.91 433.15
  Q 342.19 416.06 353.40 407.16
  Q 358.20 403.35 358.80 402.87
  Q 362.42 400.02 364.32 398.80
  Q 370.58 394.81 376.34 390.84
  Q 379.75 388.49 394.46 382.11
  Q 394.64 385.08 390.86 386.81
  Q 376.05 393.57 364.33 401.85
  Q 353.52 409.49 343.50 420.26
  Z"
/>
<path fill="#479618" d="
  M 580.01 412.27
  Q 581.58 414.31 582.76 416.70
  Q 586.44 424.15 589.94 431.87
  L 595.26 446.44
  L 595.04 449.20
  Q 596.24 456.29 597.84 463.32
  Q 600.73 476.01 601.44 486.66
  Q 602.89 508.10 602.19 527.77
  C 601.77 539.31 600.34 549.11 596.93 559.62
  Q 595.16 565.06 590.07 567.02
  C 590.85 564.82 591.52 562.83 591.90 560.43
  Q 594.14 546.33 594.92 539.00
  Q 596.36 525.57 596.47 509.01
  Q 596.63 485.10 591.26 460.17
  C 585.13 431.73 571.73 405.48 551.22 385.01
  Q 559.50 388.76 565.11 395.30
  Q 574.85 406.65 580.01 412.27
  Z"
/>
<path fill="#62ac24" d="
  M 573.50 399.74
  L 577.03 405.88
  Q 573.04 402.37 570.25 397.85
  A 0.21 0.21 0.0 0 1 570.31 397.57
  L 570.32 397.57
  A 0.22 0.21 -36.9 0 1 570.63 397.61
  L 574.55 402.79
  A 0.11 0.11 0.0 0 0 574.75 402.72
  Q 574.75 402.62 574.57 402.33
  Q 572.95 399.83 571.25 397.41
  L 573.50 399.74
  Z"
/>
<ellipse fill="#78bd29" cx="0.00" cy="0.00" transform="translate(577.52,405.46) rotate(-118.3)" rx="1.40" ry="0.25"/>
<path fill="#78bd29" d="
  M 582.28 414.02
  Q 581.22 413.27 580.73 411.96
  A 0.18 0.18 0.0 0 1 581.01 411.75
  Q 581.91 412.44 582.28 414.02
  Z"
/>
<path fill="#78bd29" d="
  M 582.28 414.02
  Q 583.00 415.13 583.65 416.47
  Q 583.67 416.51 583.67 416.53
  A 0.03 0.02 39.7 0 1 583.62 416.53
  Q 582.88 415.23 582.28 414.02
  Z"
/>
<path fill="#4f9d1b" d="
  M 595.04 449.20
  Q 601.52 470.33 602.69 491.35
  Q 604.03 515.31 601.92 540.91
  Q 601.06 551.30 599.49 558.06
  L 593.41 574.51
  Q 592.44 575.14 591.97 575.94
  L 588.79 576.03
  L 580.41 575.43
  L 584.38 573.60
  Q 587.74 570.94 590.07 567.02
  Q 595.16 565.06 596.93 559.62
  C 600.34 549.11 601.77 539.31 602.19 527.77
  Q 602.89 508.10 601.44 486.66
  Q 600.73 476.01 597.84 463.32
  Q 596.24 456.29 595.04 449.20
  Z
  M 600.4153 551.7551
  A 0.72 0.08 -83.2 0 0 600.2506 552.4605
  A 0.72 0.08 -83.2 0 0 600.2447 553.1849
  A 0.72 0.08 -83.2 0 0 600.4094 552.4795
  A 0.72 0.08 -83.2 0 0 600.4153 551.7551
  Z"
/>
<path fill="#62ac24" d="
  M 602.19 549.21
  L 599.99 561.53
  L 599.08 564.04
  L 599.49 558.06
  Q 601.06 551.30 601.92 540.91
  Q 604.03 515.31 602.69 491.35
  Q 601.52 470.33 595.04 449.20
  L 595.26 446.44
  Q 597.72 453.49 599.73 460.64
  Q 600.23 462.43 600.25 462.50
  Q 603.20 475.54 604.08 488.78
  Q 604.75 498.90 604.98 506.88
  Q 605.45 523.35 604.61 529.38
  Q 603.22 539.28 602.19 549.21
  Z
  M 602.2940 473.3088
  A 0.26 0.26 0.0 0 0 602.0095 473.0759
  L 601.8901 473.0878
  A 0.26 0.26 0.0 0 0 601.6572 473.3723
  L 603.2860 489.6912
  A 0.26 0.26 0.0 0 0 603.5705 489.9241
  L 603.6899 489.9122
  A 0.26 0.26 0.0 0 0 603.9228 489.6277
  L 602.2940 473.3088
  Z"
/>
<rect fill="#78bd29" x="-0.32" y="-8.46" transform="translate(602.79,481.50) rotate(-5.7)" width="0.64" height="16.92" rx="0.26"/>
<ellipse fill="#6db624" cx="0.00" cy="0.00" transform="translate(600.33,552.47) rotate(-83.2)" rx="0.72" ry="0.08"/>
<path fill="#82c42e" d="
  M 602.19 549.21
  Q 602.31 555.67 599.99 561.53
  L 602.19 549.21
  Z"
/>
<path fill="#6db624" d="
  M 599.49 558.06
  L 599.08 564.04
  C 597.49 567.73 596.15 571.50 593.41 574.51
  L 599.49 558.06
  Z"
/>
<path fill="#95d139" d="
  M 730.10 572.94
  C 733.43 579.29 738.85 583.93 746.20 584.48
  Q 769.81 583.13 793.46 583.48
  Q 798.73 583.56 803.94 584.39
  Q 807.42 584.95 810.31 587.07
  Q 807.18 591.72 801.75 599.02
  Q 782.87 624.42 766.10 645.60
  Q 761.27 651.69 756.44 657.45
  Q 742.23 654.43 734.63 642.03
  Q 730.69 635.59 729.96 633.95
  Q 722.24 616.46 719.89 609.93
  C 716.72 601.12 715.24 590.32 717.91 581.24
  C 719.69 575.19 724.25 573.57 730.10 572.94
  Z"
/>
<path fill="#003900" d="
  M 506.36 573.34
  Q 504.73 574.60 503.14 575.55
  Q 500.59 577.07 500.07 577.86
  C 497.59 581.67 499.00 585.46 502.05 589.07
  C 509.14 597.45 518.14 609.42 525.53 618.55
  C 534.72 629.92 538.95 635.62 546.94 644.66
  Q 547.45 645.25 558.05 657.71
  C 575.09 677.75 592.95 697.26 615.03 721.33
  Q 632.30 740.15 651.74 762.50
  Q 655.24 766.51 660.18 767.69
  L 652.79 767.96
  A 1.39 1.39 0.0 0 1 651.92 767.70
  C 632.11 753.54 618.16 737.82 600.73 719.61
  Q 592.26 710.77 572.86 688.45
  Q 561.07 674.89 516.62 621.96
  Q 506.21 609.56 499.89 597.65
  Q 496.60 591.45 492.66 579.03
  A 0.95 0.93 60.0 0 1 492.91 578.06
  Q 493.99 577.06 494.35 576.01
  A 1.00 0.97 86.4 0 1 494.83 575.45
  L 500.96 572.26
  A 0.86 0.83 -50.8 0 1 501.56 572.19
  L 506.36 573.34
  Z"
/>
<path fill="#befb4a" d="
  M 583.70 573.00
  L 584.38 573.60
  L 580.41 575.43
  Q 577.15 575.96 573.75 575.98
  Q 541.75 576.12 509.75 576.03
  Q 507.24 576.02 504.27 577.25
  Q 503.76 576.99 504.08 576.20
  Q 507.28 574.59 509.50 574.59
  Q 551.84 574.65 578.00 574.45
  Q 580.91 574.42 583.70 573.00
  Z"
/>
<path fill="#62ac24" d="
  M 580.41 575.43
  L 588.79 576.03
  L 579.08 576.20
  A 0.16 0.15 1.9 0 0 578.92 576.34
  L 578.94 576.38
  A 0.50 0.49 76.1 0 0 579.40 576.66
  L 590.49 576.43
  A 0.05 0.05 0.0 0 1 590.54 576.48
  A 0.13 0.12 83.6 0 1 590.43 576.63
  Q 583.20 577.54 578.51 577.38
  Q 563.99 576.89 534.30 576.77
  Q 521.24 576.72 510.73 578.30
  A 1.30 1.29 -14.8 0 0 509.71 580.04
  Q 512.14 586.40 516.32 591.70
  L 515.14 590.72
  A 0.07 0.07 0.0 0 0 515.04 590.82
  L 517.79 594.26
  L 524.56 604.19
  A 0.07 0.06 4.7 0 1 524.46 604.27
  Q 516.12 596.85 506.67 591.30
  C 503.32 587.05 497.89 582.06 504.27 577.25
  Q 507.24 576.02 509.75 576.03
  Q 541.75 576.12 573.75 575.98
  Q 577.15 575.96 580.41 575.43
  Z
  M 509.6183 584.0177
  A 1.24 0.25 -122.8 0 0 510.0799 585.1954
  A 1.24 0.25 -122.8 0 0 510.9617 586.1023
  A 1.24 0.25 -122.8 0 0 510.5001 584.9246
  A 1.24 0.25 -122.8 0 0 509.6183 584.0177
  Z"
/>
<path fill="#9ed349" d="
  M 812.69 576.24
  L 810.31 587.07
  Q 807.42 584.95 803.94 584.39
  Q 798.73 583.56 793.46 583.48
  Q 769.81 583.13 746.20 584.48
  L 749.54 575.50
  Q 752.14 576.16 753.50 576.14
  Q 780.87 575.85 808.25 576.01
  Q 810.50 576.02 812.69 576.24
  Z"
/>
<path fill="#83c531" d="
  M 591.97 575.94
  Q 592.98 581.42 594.29 583.60
  C 598.66 590.92 601.24 594.64 603.02 600.15
  C 609.45 620.10 618.41 639.15 630.72 655.66
  C 635.55 662.13 643.29 669.94 648.31 676.51
  Q 664.49 697.67 673.56 710.63
  Q 681.16 721.49 692.60 726.97
  Q 680.61 739.15 667.93 750.42
  Q 665.96 752.17 663.71 753.48
  L 660.54 755.10
  A 0.66 0.65 -37.8 0 1 659.79 755.01
  L 655.20 750.94
  Q 639.98 734.83 636.08 730.41
  C 616.71 708.48 604.18 694.22 590.44 679.67
  C 580.95 669.64 571.76 657.82 562.74 648.02
  C 555.89 640.58 550.63 633.41 542.78 624.26
  C 538.25 618.98 532.99 612.03 528.00 606.00
  Q 527.83 605.47 527.49 605.06
  Q 523.84 598.73 518.48 593.81
  L 516.32 591.70
  Q 512.14 586.40 509.71 580.04
  A 1.30 1.29 -14.8 0 1 510.73 578.30
  Q 521.24 576.72 534.30 576.77
  Q 563.99 576.89 578.51 577.38
  Q 583.20 577.54 590.43 576.63
  A 0.13 0.12 83.6 0 0 590.54 576.48
  A 0.05 0.05 0.0 0 0 590.49 576.43
  L 579.40 576.66
  A 0.50 0.49 76.1 0 1 578.94 576.38
  L 578.92 576.34
  A 0.16 0.15 1.9 0 1 579.08 576.20
  L 588.79 576.03
  L 591.97 575.94
  Z
  M 534.50 582.75
  L 566.37 582.75
  A 0.20 0.19 66.4 0 0 566.50 582.41
  C 564.60 580.58 559.90 580.36 557.38 580.28
  C 549.30 580.00 541.30 579.80 534.38 582.03
  A 0.37 0.37 0.0 0 0 534.50 582.75
  Z"
/>
<path fill="#86c639" d="
  M 504.08 576.20
  Q 503.76 576.99 504.27 577.25
  C 497.89 582.06 503.32 587.05 506.67 591.30
  Q 518.74 606.46 530.74 621.75
  Q 545.51 640.57 574.58 673.43
  Q 601.60 703.96 625.91 729.97
  C 628.58 732.83 630.52 735.61 633.15 738.24
  Q 635.30 740.38 638.68 744.39
  Q 645.64 752.62 654.53 761.99
  A 0.70 0.70 0.0 0 0 655.66 761.81
  Q 658.33 756.32 655.20 750.94
  L 659.79 755.01
  A 0.66 0.65 -37.8 0 0 660.54 755.10
  L 663.71 753.48
  L 670.08 761.22
  Q 666.76 763.76 663.04 764.86
  A 4.20 4.19 40.9 0 1 661.21 764.99
  L 656.02 764.22
  Q 654.47 763.71 652.52 761.48
  Q 629.60 735.16 606.14 709.81
  C 592.92 695.52 583.58 684.70 571.77 671.70
  C 563.31 662.39 555.22 651.96 547.75 643.80
  Q 542.89 638.50 510.11 597.13
  Q 505.63 591.48 503.73 589.24
  Q 501.62 586.75 500.31 584.25
  A 2.35 2.30 -61.1 0 1 500.05 583.31
  Q 499.73 578.68 504.08 576.20
  Z"
/>
<path fill="#c6ea70" d="
  M 670.08 761.22
  L 663.71 753.48
  Q 665.96 752.17 667.93 750.42
  Q 680.61 739.15 692.60 726.97
  L 708.77 710.24
  Q 733.45 684.77 756.44 657.45
  Q 761.27 651.69 766.10 645.60
  Q 782.87 624.42 801.75 599.02
  Q 807.18 591.72 810.31 587.07
  L 812.69 576.24
  Q 817.76 575.85 819.33 576.62
  Q 825.92 579.88 821.86 586.16
  Q 817.21 593.35 809.47 603.98
  Q 799.45 617.74 796.61 621.63
  Q 795.86 622.66 794.07 624.62
  A 5.75 4.82 -13.4 0 0 793.49 625.40
  Q 791.50 628.62 789.32 631.10
  Q 786.47 634.35 784.89 636.58
  Q 783.18 639.00 781.62 640.85
  Q 779.08 643.88 778.23 644.98
  Q 771.36 653.82 767.34 658.43
  C 765.53 660.51 764.08 662.96 761.54 665.16
  A 5.27 5.15 86.0 0 0 760.52 666.36
  Q 758.69 669.26 755.41 672.39
  A 6.19 6.08 86.1 0 0 754.62 673.31
  C 751.88 677.13 748.52 679.99 745.21 683.96
  Q 741.59 688.29 738.06 691.81
  Q 737.36 692.51 736.53 694.04
  A 3.12 2.80 -10.9 0 1 736.03 694.70
  Q 728.14 702.44 726.38 704.63
  Q 722.38 709.61 717.55 714.19
  C 712.63 718.84 710.75 721.14 706.81 725.41
  Q 704.35 728.09 702.50 729.90
  Q 686.41 745.72 670.08 761.22
  Z"
/>
<path fill="#93ce3f" d="
  M 534.38 582.03
  C 541.30 579.80 549.30 580.00 557.38 580.28
  C 559.90 580.36 564.60 580.58 566.50 582.41
  A 0.20 0.19 66.4 0 1 566.37 582.75
  L 534.50 582.75
  A 0.37 0.37 0.0 0 1 534.38 582.03
  Z"
/>
<ellipse fill="#6db624" cx="0.00" cy="0.00" transform="translate(510.29,585.06) rotate(-122.8)" rx="1.24" ry="0.25"/>
<path fill="#6db624" d="
  M 516.32 591.70
  L 518.48 593.81
  L 527.49 605.06
  Q 527.83 605.47 528.00 606.00
  L 517.79 594.26
  L 515.04 590.82
  A 0.07 0.07 0.0 0 1 515.14 590.72
  L 516.32 591.70
  Z"
/>
<path fill="#4f9d1b" d="
  M 517.79 594.26
  L 528.00 606.00
  C 532.99 612.03 538.25 618.98 542.78 624.26
  C 550.63 633.41 555.89 640.58 562.74 648.02
  C 571.76 657.82 580.95 669.64 590.44 679.67
  C 604.18 694.22 616.71 708.48 636.08 730.41
  Q 639.98 734.83 655.20 750.94
  Q 658.33 756.32 655.66 761.81
  A 0.70 0.70 0.0 0 1 654.53 761.99
  Q 645.64 752.62 638.68 744.39
  Q 635.30 740.38 633.15 738.24
  C 630.52 735.61 628.58 732.83 625.91 729.97
  Q 601.60 703.96 574.58 673.43
  Q 545.51 640.57 530.74 621.75
  Q 518.74 606.46 506.67 591.30
  Q 516.12 596.85 524.46 604.27
  A 0.07 0.06 4.7 0 0 524.56 604.19
  L 517.79 594.26
  Z"
/>
<path fill="#78bd29" d="
  M 527.49 605.06
  L 518.48 593.81
  Q 523.84 598.73 527.49 605.06
  Z"
/>
</svg>
